SplineFontDB: 3.0
FontName: NineParchments
FullName: NineParchments
FamilyName: Nine Parchments
Weight: Book
Copyright: 
Version: 1.000
ItalicAngle: 0
UnderlinePosition: -100
UnderlineWidth: 50
Ascent: 800
Descent: 200
InvalidEm: 0
sfntRevision: 0x00010000
LayerCount: 2
Layer: 0 1 "+BBcEMAQ0BD0EOAQ5 +BD8EOwQwBD0A" 1
Layer: 1 1 "+BB8ENQRABDUENAQ9BDgEOQAA +BD8EOwQwBD0A" 0
XUID: [1021 124 470122697 3685]
StyleMap: 0x0040
FSType: 4
OS2Version: 3
OS2_WeightWidthSlopeOnly: 0
OS2_UseTypoMetrics: 0
CreationTime: 1423037331
ModificationTime: 1539127685
PfmFamily: 81
TTFWeight: 400
TTFWidth: 5
LineGap: 36
VLineGap: 0
Panose: 0 0 0 0 0 0 0 0 0 0
OS2TypoAscent: 756
OS2TypoAOffset: 0
OS2TypoDescent: -297
OS2TypoDOffset: 0
OS2TypoLinegap: 36
OS2WinAscent: 873
OS2WinAOffset: 0
OS2WinDescent: 392
OS2WinDOffset: 0
HheadAscent: 756
HheadAOffset: 0
HheadDescent: -297
HheadDOffset: 0
OS2SubXSize: 700
OS2SubYSize: 650
OS2SubXOff: 0
OS2SubYOff: 140
OS2SupXSize: 700
OS2SupYSize: 650
OS2SupXOff: 0
OS2SupYOff: 477
OS2StrikeYSize: 50
OS2StrikeYPos: 250
OS2CapHeight: 756
OS2XHeight: 421
OS2Vendor: 'pyrs'
OS2CodePages: 00000003.00000000
OS2UnicodeRanges: 80000027.00000042.00000000.00000000
MarkAttachClasses: 1
DEI: 91125
TtTable: prep
PUSHW_1
 0
CALL
SVTCA[x-axis]
PUSHW_3
 1
 3
 2
CALL
SVTCA[x-axis]
PUSHW_8
 1
 53
 44
 34
 25
 12
 0
 8
CALL
PUSHW_8
 2
 38
 30
 23
 17
 12
 0
 8
CALL
PUSHW_8
 3
 35
 30
 23
 17
 12
 0
 8
CALL
SVTCA[y-axis]
PUSHW_3
 4
 4
 7
CALL
PUSHW_1
 0
DUP
RCVT
RDTG
ROUND[Black]
RTG
WCVTP
EndTTInstrs
TtTable: fpgm
PUSHW_1
 0
FDEF
MPPEM
PUSHW_1
 9
LT
IF
PUSHB_2
 1
 1
INSTCTRL
EIF
PUSHW_1
 511
SCANCTRL
PUSHW_1
 68
SCVTCI
PUSHW_2
 9
 3
SDS
SDB
ENDF
PUSHW_1
 1
FDEF
DUP
DUP
RCVT
ROUND[Black]
WCVTP
PUSHB_1
 1
ADD
ENDF
PUSHW_1
 2
FDEF
PUSHW_1
 1
LOOPCALL
POP
ENDF
PUSHW_1
 3
FDEF
DUP
GC[cur]
PUSHB_1
 3
CINDEX
GC[cur]
GT
IF
SWAP
EIF
DUP
ROLL
DUP
ROLL
MD[grid]
ABS
ROLL
DUP
GC[cur]
DUP
ROUND[Grey]
SUB
ABS
PUSHB_1
 4
CINDEX
GC[cur]
DUP
ROUND[Grey]
SUB
ABS
GT
IF
SWAP
NEG
ROLL
EIF

StartChar: A
Encoding: 65 65 1
Width: 676
Flags: WO
HStem: 1 1<336 338.901> 3 44<564.087 624.875> 191 66<275 433> 687.5 64<252 279.39>
VStem: 283 142<620.872 688.514>
LayerCount: 2
Fore
SplineSet
425 685 m 1,0,-1
 425 669 l 2,1,2
 425 667 425 667 425 667 c 1,3,-1
 425 665 l 2,4,5
 425 644 425 644 478 415 c 0,6,7
 528 200 528 200 562 77 c 0,8,9
 565 65 565 65 573 61.5 c 128,-1,10
 581 58 581 58 592 55 c 0,11,12
 626 46 626 46 626 30 c 0,13,14
 626 23 626 23 620 15 c 128,-1,15
 614 7 614 7 614 4 c 0,16,17
 614 3 614 3 602 3 c 2,18,-1
 477 1 l 1,19,-1
 388 2 l 2,20,21
 380 2 380 2 380 6 c 0,22,23
 381 13 381 13 407 32 c 0,24,25
 423 43 423 43 440 55 c 128,-1,26
 457 67 457 67 462.5 77.5 c 128,-1,27
 468 88 468 88 468 117 c 128,-1,28
 468 146 468 146 447 192 c 1,29,-1
 263 191 l 1,30,31
 231 108 231 108 231 88.5 c 128,-1,32
 231 69 231 69 236 64 c 0,33,34
 250 50 250 50 290 26 c 128,-1,35
 330 2 330 2 339 2 c 1,36,37
 336 1 336 1 312 1 c 2,38,-1
 252 1 l 1,39,-1
 103 2 l 2,40,41
 58 2 58 2 52 20 c 0,42,43
 51 23 51 23 51 24 c 128,-1,44
 51 25 51 25 51 26 c 0,45,46
 51 26 51 26 51 34 c 2,47,-1
 51 46 l 2,48,49
 51 67 51 67 87 71 c 1,50,51
 87 71 87 71 87 70 c 0,52,53
 86 68 86 68 95 61 c 0,54,55
 107 52 107 52 120 52 c 0,56,57
 122 52 122 52 123 52 c 0,58,59
 140 56 140 56 146 63 c 0,60,61
 156 75 156 75 164 119 c 128,-1,62
 172 163 172 163 172 174.5 c 128,-1,63
 172 186 172 186 171 189 c 1,64,65
 158 194 158 194 150.5 194 c 128,-1,66
 143 194 143 194 134.5 192.5 c 128,-1,67
 126 191 126 191 116 186 c 0,68,69
 104 181 104 181 100 178 c 128,-1,70
 96 175 96 175 94 175 c 0,71,72
 92 176 92 176 92 176 c 0,73,74
 86 186 86 186 86 194.5 c 128,-1,75
 86 203 86 203 95.5 215 c 128,-1,76
 105 227 105 227 126 238 c 0,77,78
 138 245 138 245 166 256 c 0,79,80
 181 262 181 262 185 262 c 0,81,82
 185 262 185 262 185 262 c 257,83,84
 283 643 283 643 283 683 c 0,85,86
 283 684 283 684 283 685 c 0,87,88
 284 688 284 688 280 688 c 2,89,-1
 269 688 l 1,90,91
 269 688 269 688 268 688 c 0,92,93
 266 687 266 687 255 690 c 0,94,95
 241 694 241 694 230 706 c 1,96,97
 246 718 246 718 250 730 c 0,98,99
 253 739 253 739 253 744 c 0,100,101
 252 748 252 748 252 749 c 1,102,103
 261 752 261 752 271 752 c 0,104,105
 279 752 279 752 307 742 c 0,106,107
 332 733 332 733 350 733 c 2,108,-1
 380 733 l 2,109,110
 381 733 381 733 392 733 c 0,111,112
 402 733 402 733 472 749 c 1,113,114
 495 743 495 743 495 722.5 c 128,-1,115
 495 702 495 702 484 681 c 1,116,117
 470 691 470 691 454 691 c 128,-1,118
 438 691 438 691 425 685 c 1,0,-1
275 257 m 1,119,-1
 433 258 l 1,120,-1
 395 440 l 2,121,122
 388 474 388 474 381 506.5 c 128,-1,123
 374 539 374 539 369 564.5 c 128,-1,124
 364 590 364 590 360 605 c 2,125,-1
 357 620 l 257,126,-1
 354 604 l 1,127,128
 332 517 332 517 315 437.5 c 128,-1,129
 298 358 298 358 275 257 c 1,119,-1
EndSplineSet
EndChar

StartChar: B
Encoding: 66 66 2
Width: 615
Flags: W
HStem: 1 81<65.642 139.996> 1 58<218.411 435.1> 215 98<217.158 362.217> 640 95<209.622 370.469>
VStem: 133.5 76<313.633 641> 475.053 87.9474<92.4805 180.548> 489 75<405.289 555.652>
LayerCount: 2
Fore
SplineSet
140 67 m 0,0,1
 140 121 140 121 139.5 160 c 128,-1,2
 139 199 139 199 138 230 c 128,-1,3
 137 261 137 261 136 288 c 128,-1,4
 135 315 135 315 134 346 c 0,5,6
 133 369 133 369 133 393 c 0,7,8
 134 406 134 406 134 418 c 0,9,10
 134 454 134 454 134 494.5 c 128,-1,11
 134 535 134 535 133.5 581 c 128,-1,12
 133 627 133 627 132 680 c 0,13,14
 132 687 132 687 126.5 682.5 c 128,-1,15
 121 678 121 678 113.5 674.5 c 128,-1,16
 106 671 106 671 98 674.5 c 128,-1,17
 90 678 90 678 85 701 c 0,18,19
 82 712 82 712 86 721 c 128,-1,20
 90 730 90 730 98.5 737 c 128,-1,21
 107 744 107 744 118 748 c 128,-1,22
 129 752 129 752 140 754 c 0,23,24
 144 754 144 754 147 754 c 0,25,26
 162 754 162 754 176 747 c 0,27,28
 192 738 192 738 207 726 c 1,29,-1
 207 729 l 1,30,31
 249 735 249 735 288 735 c 0,32,33
 342 735 342 735 388 723 c 0,34,35
 422 714 422 714 454 696 c 128,-1,36
 486 678 486 678 511 647.5 c 128,-1,37
 536 617 536 617 550 572 c 0,38,39
 564 530 564 530 564 471 c 0,40,41
 564 467 564 467 564 463 c 0,42,43
 563 417 563 417 550 385 c 128,-1,44
 537 353 537 353 518 331 c 128,-1,45
 499 309 499 309 476 296.5 c 128,-1,46
 453 284 453 284 431 277.5 c 128,-1,47
 409 271 409 271 390.5 269 c 128,-1,48
 372 267 372 267 363 267 c 1,49,50
 374 266 374 266 394 262.5 c 128,-1,51
 414 259 414 259 437.5 252 c 128,-1,52
 461 245 461 245 485 234 c 128,-1,53
 509 223 509 223 527.5 206 c 128,-1,54
 546 189 546 189 556 166 c 0,55,56
 563 150 563 150 563 130 c 0,57,58
 563 122 563 122 562 113 c 0,59,60
 556 78 556 78 525 56.5 c 128,-1,61
 494 35 494 35 451.5 23 c 128,-1,62
 409 11 409 11 361 6.5 c 128,-1,63
 313 2 313 2 273 2 c 0,64,65
 253 1 253 1 228 1 c 128,-1,66
 203 1 203 1 177 1 c 128,-1,67
 151 1 151 1 126 1 c 128,-1,68
 101 1 101 1 80 1 c 0,69,70
 70 1 70 1 65.5 5.5 c 128,-1,71
 61 10 61 10 59 19 c 128,-1,72
 57 28 57 28 56 40 c 128,-1,73
 55 52 55 52 51 67 c 0,74,75
 48 82 48 82 62 82 c 128,-1,76
 76 82 76 82 93 76.5 c 128,-1,77
 110 71 110 71 125 66 c 128,-1,78
 140 61 140 61 140 67 c 0,0,1
209 641 m 2,79,80
 209 628 l 0,81,82
 209 614 209 614 209 591 c 128,-1,83
 209 568 209 568 209.5 539 c 128,-1,84
 210 510 210 510 210 479 c 0,85,86
 211 407 211 407 213 315 c 1,87,88
 234 313 234 313 254 313 c 0,89,90
 303 313 303 313 346 324 c 0,91,92
 371 330 371 330 395.5 341.5 c 128,-1,93
 420 353 420 353 440 371.5 c 128,-1,94
 460 390 460 390 473.5 416.5 c 128,-1,95
 487 443 487 443 489 480 c 2,96,97
 489 492 l 2,98,99
 489 526 489 526 472 550 c 0,100,101
 452 578 452 578 421.5 596 c 128,-1,102
 391 614 391 614 354 623 c 128,-1,103
 317 632 317 632 285 636 c 128,-1,104
 253 640 253 640 231.5 640 c 128,-1,105
 210 640 210 640 209 641 c 2,79,80
220 213 m 2,106,107
 218 213 218 213 217.5 203 c 128,-1,108
 217 193 217 193 217 177 c 128,-1,109
 217 161 217 161 217.5 142 c 128,-1,110
 218 123 218 123 218 106.5 c 128,-1,111
 218 90 218 90 218.5 78.5 c 128,-1,112
 219 67 219 67 219 66 c 256,113,114
 219 65 219 65 238 62.5 c 128,-1,115
 257 60 257 60 285 59 c 0,116,117
 296 59 296 59 308 59 c 0,118,119
 326 60 326 60 346 60 c 0,120,121
 379 62 379 62 407.5 70 c 128,-1,122
 436 78 436 78 455 94 c 0,123,124
 475 111 475 111 475 142 c 0,125,126
 475 164 475 164 458 177 c 0,127,128
 437 193 437 193 412 200 c 0,129,130
 383 209 383 209 350 212 c 128,-1,131
 317 215 317 215 288 215 c 128,-1,132
 259 215 259 215 250 214 c 0,133,-1
 220 213 l 2,106,107
EndSplineSet
Validated: 1
EndChar

StartChar: C
Encoding: 67 67 3
Width: 538
Flags: W
HStem: 1 67<211.507 337.195> 673 69<215.144 315.893>
VStem: 54 74<222 517.525> 379 78<108.146 224.966>
LayerCount: 2
Fore
SplineSet
53 365 m 0,0,1
 50 394 50 394 50 432 c 0,2,3
 50 435 50 435 50 439 c 0,4,5
 50 473 50 473 56 509 c 0,6,7
 62 548 62 548 73.5 586.5 c 128,-1,8
 85 625 85 625 107 657 c 128,-1,9
 129 689 129 689 163 711 c 128,-1,10
 197 733 197 733 246 741 c 0,11,12
 255 742 255 742 264 742 c 0,13,14
 290 742 290 742 312 736 c 0,15,16
 342 728 342 728 365 716 c 0,17,18
 391 703 391 703 413 684 c 0,19,20
 424 671 424 671 432 648.5 c 128,-1,21
 440 626 440 626 446 599 c 128,-1,22
 452 572 452 572 456 544.5 c 128,-1,23
 460 517 460 517 462.5 494.5 c 128,-1,24
 465 472 465 472 465.5 458 c 128,-1,25
 466 444 466 444 465 444 c 0,26,27
 463 445 463 445 458 444.5 c 128,-1,28
 453 444 453 444 448 444 c 0,29,30
 442 443 442 443 434 443 c 0,31,32
 423 442 423 442 413.5 434 c 128,-1,33
 404 426 404 426 396.5 416 c 128,-1,34
 389 406 389 406 384.5 398.5 c 128,-1,35
 380 391 380 391 379 392 c 256,36,37
 378 393 378 393 370.5 398 c 128,-1,38
 363 403 363 403 354.5 409 c 128,-1,39
 346 415 346 415 339 420 c 128,-1,40
 332 425 332 425 332 427 c 0,41,42
 332 428 332 428 340.5 436.5 c 128,-1,43
 349 445 349 445 358.5 457 c 128,-1,44
 368 469 368 469 375 481.5 c 128,-1,45
 382 494 382 494 379 505 c 0,46,47
 372 529 372 529 363.5 560 c 128,-1,48
 355 591 355 591 341 617 c 0,49,50
 327 644 327 644 306 660 c 0,51,52
 289 673 289 673 266 673 c 0,53,54
 260 673 260 673 254 672 c 0,55,56
 231 669 231 669 212.5 649 c 128,-1,57
 194 629 194 629 179.5 600 c 128,-1,58
 165 571 165 571 155 536 c 128,-1,59
 145 501 145 501 138.5 468 c 128,-1,60
 132 435 132 435 130 407 c 0,61,62
 128 387 128 387 128 374 c 0,63,64
 128 369 128 369 128 364 c 0,65,66
 132 300 132 300 144 246 c 128,-1,67
 156 192 156 192 172.5 152.5 c 128,-1,68
 189 113 189 113 210 90.5 c 128,-1,69
 231 68 231 68 254 68 c 0,70,71
 257 68 257 68 261 68 c 0,72,73
 296 68 296 68 318 78 c 0,74,75
 342 89 342 89 356 106.5 c 128,-1,76
 370 124 370 124 374.5 144 c 128,-1,77
 379 164 379 164 379 182 c 128,-1,78
 379 200 379 200 377 212 c 128,-1,79
 375 224 375 224 376 225 c 256,80,81
 377 226 377 226 394.5 229 c 128,-1,82
 412 232 412 232 433 234.5 c 128,-1,83
 454 237 454 237 471 238.5 c 128,-1,84
 488 240 488 240 488 239 c 256,85,86
 488 238 488 238 482.5 231.5 c 128,-1,87
 477 225 477 225 470.5 214 c 128,-1,88
 464 203 464 203 460 187 c 0,89,90
 457 177 457 177 457 167 c 0,91,92
 457 160 457 160 458 152 c 0,93,94
 461 139 461 139 456 125 c 128,-1,95
 451 111 451 111 442.5 98 c 128,-1,96
 434 85 434 85 424 73.5 c 128,-1,97
 414 62 414 62 406 55 c 0,98,99
 370 12 370 12 316 4 c 0,100,101
 298 2 298 2 279 1 c 0,102,103
 242 1 242 1 203 11 c 0,104,105
 160 23 160 23 133 47 c 128,-1,106
 106 71 106 71 89.5 102 c 128,-1,107
 73 133 73 133 66 168 c 0,108,109
 58 204 58 204 56 240 c 128,-1,110
 54 276 54 276 54 297 c 0,111,112
 54 304 54 304 54 308 c 0,113,114
 54 314 54 314 55 320 c 0,115,116
 55 345 55 345 53 365 c 0,0,1
EndSplineSet
Validated: 1
EndChar

StartChar: D
Encoding: 68 68 4
Width: 557
Flags: W
HStem: 0 68<67.6417 128.997> 0 56<211.219 278> 686 56<198 267.578>
VStem: 121 77<582.439 672.793> 125 79.9544<56.0066 673.654> 129 82<56.0066 253.737> 444 62<224.963 487.034>
LayerCount: 2
Fore
SplineSet
213 56 m 0,0,1
 282 71 282 71 335 111 c 0,2,3
 357 128 357 128 378.5 152 c 128,-1,4
 400 176 400 176 415.5 209 c 128,-1,5
 431 242 431 242 439 284 c 0,6,7
 444 312 444 312 444 346 c 0,8,9
 444 363 444 363 443 381 c 0,10,11
 438 448 438 448 419 496.5 c 128,-1,12
 400 545 400 545 374 579 c 128,-1,13
 348 613 348 613 319 633.5 c 128,-1,14
 290 654 290 654 264.5 665.5 c 128,-1,15
 239 677 239 677 220.5 681.5 c 128,-1,16
 202 686 202 686 198 686 c 1,17,18
 201 632 201 632 201 577 c 128,-1,19
 201 522 201 522 203 472 c 0,20,21
 204 397 204 397 204 324 c 0,22,23
 205 299 205 299 205 276 c 0,24,25
 205 276 205 276 206 256 c 0,26,27
 207 212 207 212 208 154 c 0,28,29
 209 141 209 141 211 83 c 0,30,31
 212 56 212 56 213 56 c 0,0,1
129 53 m 0,32,33
 129 107 129 107 128.5 148 c 128,-1,34
 128 189 128 189 127 222.5 c 128,-1,35
 126 256 126 256 125 285.5 c 128,-1,36
 124 315 124 315 124 346 c 0,37,38
 123 381 123 381 123 417.5 c 128,-1,39
 123 454 123 454 123 494.5 c 128,-1,40
 123 535 123 535 122.5 581 c 128,-1,41
 122 627 122 627 121 680 c 0,42,43
 121 687 121 687 116.5 682.5 c 128,-1,44
 112 678 112 678 105 674.5 c 128,-1,45
 98 671 98 671 91 674 c 0,46,47
 86 677 86 677 80 701 c 0,48,49
 79 705 79 705 79 711 c 0,50,51
 79 726 79 726 92 737 c 0,52,53
 109 751 109 751 129 754 c 0,54,55
 135 755 135 755 141 755 c 0,56,57
 152 755 152 755 162 752 c 0,58,59
 176 748 176 748 188 742 c 1,60,61
 209 742 209 742 241 738.5 c 128,-1,62
 273 735 273 735 308.5 721.5 c 128,-1,63
 344 708 344 708 379.5 682.5 c 128,-1,64
 415 657 415 657 443 614 c 128,-1,65
 471 571 471 571 488.5 507.5 c 128,-1,66
 506 444 506 444 506 355 c 0,67,68
 506 259 506 259 484 195.5 c 128,-1,69
 462 132 462 132 429.5 92 c 128,-1,70
 397 52 397 52 358.5 32.5 c 128,-1,71
 320 13 320 13 286 6 c 0,72,73
 284 5 284 5 280 5 c 0,74,75
 276 3 276 3 271.5 3 c 128,-1,76
 267 3 267 3 261 2 c 2,77,-1
 247 0 l 1,78,-1
 219 0 l 2,79,80
 196 -1 196 -1 172 -1 c 0,81,82
 160 -0 160 -0 148 -0 c 0,83,84
 110 0 110 0 81 0 c 0,85,86
 72 0 72 0 67.5 2.5 c 128,-1,87
 63 5 63 5 60.5 11.5 c 128,-1,88
 58 18 58 18 56 28 c 128,-1,89
 54 38 54 38 51 53 c 0,90,91
 49 68 49 68 61 68 c 128,-1,92
 73 68 73 68 88 62.5 c 128,-1,93
 103 57 103 57 116 52 c 128,-1,94
 129 47 129 47 129 53 c 0,32,33
EndSplineSet
Validated: 1
EndChar

StartChar: E
Encoding: 69 69 5
Width: 537
Flags: W
HStem: 0 82<62.1265 139.996> 0 71<212.721 362.297> 732 20G<136.5 486>
VStem: 140 72<72.2239 384 424 649.148> 362 60<556.524 634.781> 381 47<91.6471 175.905>
LayerCount: 2
Fore
SplineSet
140 67 m 0,0,1
 140 121 140 121 139.5 160 c 128,-1,2
 139 199 139 199 138 230 c 128,-1,3
 137 261 137 261 136 288 c 128,-1,4
 135 315 135 315 134 346 c 0,5,6
 133 369 133 369 133 393 c 0,7,8
 134 406 134 406 134 418 c 0,9,10
 134 454 134 454 134 494.5 c 128,-1,11
 134 535 134 535 133.5 581 c 128,-1,12
 133 627 133 627 132 680 c 0,13,14
 132 687 132 687 126.5 682.5 c 128,-1,15
 121 678 121 678 113.5 674.5 c 128,-1,16
 106 671 106 671 98 674.5 c 128,-1,17
 90 678 90 678 85 701 c 0,18,19
 82 712 82 712 86.5 721.5 c 128,-1,20
 91 731 91 731 99.5 738 c 128,-1,21
 108 745 108 745 119.5 748.5 c 128,-1,22
 131 752 131 752 142 752 c 2,23,-1
 486 752 l 1,24,25
 470 737 470 737 458 720 c 0,26,27
 447 706 447 706 437 689 c 128,-1,28
 427 672 427 672 423 656 c 256,29,30
 421 646 421 646 421 635 c 0,31,32
 422 628 422 628 422 620 c 0,33,34
 424 600 424 600 428.5 583 c 128,-1,35
 433 566 433 566 437 555 c 0,36,-1
 441 544 l 256,37,38
 422 538 l 0,39,40
 404 531 404 531 382.5 525 c 128,-1,41
 361 519 361 519 343.5 518.5 c 128,-1,42
 326 518 326 518 329 530 c 0,43,44
 333 544 333 544 342 560 c 0,45,46
 352 578 352 578 358 594 c 0,47,48
 362 605 362 605 362 618 c 0,49,50
 362 622 362 622 362 626 c 0,51,52
 360 642 360 642 342 653 c 0,53,54
 338 656 338 656 329 659.5 c 128,-1,55
 320 663 320 663 308.5 666.5 c 128,-1,56
 297 670 297 670 283.5 673.5 c 128,-1,57
 270 677 270 677 258 680 c 1,58,59
 239 663 239 663 229 641 c 128,-1,60
 219 619 219 619 214 594.5 c 128,-1,61
 209 570 209 570 208.5 544 c 128,-1,62
 208 518 208 518 208 494 c 0,63,64
 208 476 208 476 208.5 458.5 c 128,-1,65
 209 441 209 441 209 424 c 1,66,67
 215 426 215 426 221 428 c 128,-1,68
 227 430 227 430 232 432 c 0,69,70
 238 434 238 434 244 436 c 0,71,72
 283 438 283 438 314 438 c 0,73,74
 340 438 340 438 360.5 436 c 128,-1,75
 381 434 381 434 379 428 c 0,76,77
 376 419 376 419 370 414.5 c 128,-1,78
 364 410 364 410 361 402.5 c 128,-1,79
 358 395 358 395 360 382 c 128,-1,80
 362 369 362 369 376 344 c 1,81,82
 339 357 339 357 306 367 c 0,83,84
 278 374 278 374 250 380 c 0,85,86
 234 383 234 383 223 384 c 0,87,88
 215 384 215 384 209 382 c 1,89,90
 209 325 209 325 209.5 272 c 128,-1,91
 210 219 210 219 210.5 177 c 128,-1,92
 211 135 211 135 212 107 c 128,-1,93
 213 79 213 79 216 72 c 1,94,95
 222 71 222 71 231 71 c 128,-1,96
 240 71 240 71 252 72 c 0,97,98
 274 74 274 74 297 77.5 c 128,-1,99
 320 81 320 81 339 85.5 c 128,-1,100
 358 90 358 90 364 94 c 0,101,102
 381 104 381 104 381 119 c 128,-1,103
 381 134 381 134 373.5 150 c 128,-1,104
 366 166 366 166 355.5 181.5 c 128,-1,105
 345 197 345 197 342 210 c 0,106,107
 340 218 340 218 347 220 c 128,-1,108
 354 222 354 222 365.5 220.5 c 128,-1,109
 377 219 377 219 391 215 c 128,-1,110
 405 211 405 211 417.5 207 c 128,-1,111
 430 203 430 203 438 200 c 0,112,-1
 446 197 l 2,113,114
 442 187 l 0,115,116
 438 177 438 177 434.5 161 c 128,-1,117
 431 145 431 145 429 127 c 0,118,119
 428 121 428 121 428 115 c 0,120,121
 428 104 428 104 431 94 c 0,122,123
 433 79 433 79 442.5 62.5 c 128,-1,124
 452 46 452 46 462 32 c 0,125,126
 473 15 473 15 487 0 c 1,127,-1
 76 0 l 2,128,129
 66 0 66 0 62 5 c 128,-1,130
 58 10 58 10 57 18.5 c 128,-1,131
 56 27 56 27 55.5 39.5 c 128,-1,132
 55 52 55 52 51 67 c 0,133,134
 48 82 48 82 62 82 c 128,-1,135
 76 82 76 82 93 76.5 c 128,-1,136
 110 71 110 71 125 66 c 128,-1,137
 140 61 140 61 140 67 c 0,0,1
EndSplineSet
Validated: 1
EndChar

StartChar: F
Encoding: 70 70 6
Width: 535
Flags: W
HStem: 0 82<62.1265 139.996> 732 20G<131 485>
VStem: 140 74.5<68.2114 373 414.226 647.559> 362 60<556.524 634.781>
LayerCount: 2
Fore
SplineSet
222 374 m 0,0,1
 216 365 216 365 211 373 c 1,2,3
 211 314 211 314 211.5 260 c 128,-1,4
 212 206 212 206 212.5 164 c 128,-1,5
 213 122 213 122 214.5 96 c 128,-1,6
 216 70 216 70 219 67 c 0,7,8
 224 59 224 59 235.5 60 c 128,-1,9
 247 61 247 61 258.5 65 c 128,-1,10
 270 69 270 69 279 72 c 128,-1,11
 288 75 288 75 288 71 c 0,12,13
 289 59 289 59 293 46 c 128,-1,14
 297 33 297 33 300 22.5 c 128,-1,15
 303 12 303 12 303 5.5 c 128,-1,16
 303 -1 303 -1 296 -1 c 0,17,18
 282 0 282 0 256 0 c 128,-1,19
 230 0 230 0 199 0 c 128,-1,20
 168 0 168 0 135.5 0 c 128,-1,21
 103 0 103 0 76 0 c 0,22,23
 66 0 66 0 62 5 c 128,-1,24
 58 10 58 10 57 18.5 c 128,-1,25
 56 27 56 27 55.5 39.5 c 128,-1,26
 55 52 55 52 51 67 c 0,27,28
 48 82 48 82 62 82 c 128,-1,29
 76 82 76 82 93 76.5 c 128,-1,30
 110 71 110 71 125 66 c 128,-1,31
 140 61 140 61 140 67 c 0,32,33
 140 121 140 121 139.5 160 c 128,-1,34
 139 199 139 199 138 230 c 128,-1,35
 137 261 137 261 136 288 c 128,-1,36
 135 315 135 315 134 346 c 0,37,38
 133 369 133 369 133 393 c 0,39,40
 134 406 134 406 134 418 c 0,41,42
 134 454 134 454 134 494.5 c 128,-1,43
 134 535 134 535 133.5 581 c 128,-1,44
 133 627 133 627 132 680 c 0,45,46
 132 687 132 687 126.5 682.5 c 128,-1,47
 121 678 121 678 113.5 674.5 c 128,-1,48
 106 671 106 671 98 674.5 c 128,-1,49
 90 678 90 678 85 701 c 0,50,51
 82 711 82 711 86 720.5 c 128,-1,52
 90 730 90 730 97.5 736.5 c 128,-1,53
 105 743 105 743 115.5 747.5 c 128,-1,54
 126 752 126 752 136 752 c 2,55,-1
 485 752 l 1,56,57
 470 737 470 737 458 720 c 0,58,59
 447 706 447 706 437 689 c 128,-1,60
 427 672 427 672 423 656 c 256,61,62
 421 646 421 646 421 635 c 0,63,64
 422 628 422 628 422 620 c 0,65,66
 424 600 424 600 428.5 583 c 128,-1,67
 433 566 433 566 437 555 c 0,68,-1
 441 544 l 256,69,70
 422 538 l 0,71,72
 404 531 404 531 382.5 525 c 128,-1,73
 361 519 361 519 343.5 518.5 c 128,-1,74
 326 518 326 518 329 530 c 0,75,76
 333 544 333 544 342 560 c 0,77,78
 352 578 352 578 358 594 c 0,79,80
 362 605 362 605 362 618 c 0,81,82
 362 622 362 622 362 626 c 0,83,84
 360 642 360 642 342 653 c 0,85,86
 333 659 333 659 309 667 c 128,-1,87
 285 675 285 675 264 679 c 1,88,89
 243 662 243 662 232 640 c 128,-1,90
 221 618 221 618 216 593 c 128,-1,91
 211 568 211 568 210.5 542 c 128,-1,92
 210 516 210 516 210 491 c 0,93,94
 210 471 210 471 210.5 452 c 128,-1,95
 211 433 211 433 211 414 c 1,96,97
 217 416 217 416 226 419.5 c 128,-1,98
 235 423 235 423 244 426 c 0,99,100
 254 430 254 430 265 433 c 0,101,102
 299 436 299 436 325 438 c 0,103,104
 332 438 332 438 339 437 c 0,105,106
 353 437 353 437 364 436 c 0,107,108
 381 434 381 434 379 428 c 0,109,110
 376 419 376 419 370 414.5 c 128,-1,111
 364 410 364 410 361 402.5 c 128,-1,112
 358 395 358 395 360 382 c 128,-1,113
 362 369 362 369 376 344 c 1,114,115
 338 358 338 358 306 368 c 0,116,117
 279 376 279 376 254 380 c 0,118,119
 247 381 247 381 241 380 c 0,120,121
 227 380 227 380 222 374 c 0,0,1
EndSplineSet
Validated: 1
EndChar

StartChar: G
Encoding: 71 71 7
Width: 535
Flags: W
HStem: 1 67<211.507 324.328> 250 84<281.38 373.781> 683 69<215.438 312.974>
VStem: 54 74<222 521.981> 377 81<128.555 249.742>
LayerCount: 2
Fore
SplineSet
53 365 m 0,0,1
 50 395 50 395 50 433 c 0,2,3
 50 436 50 436 50 439 c 0,4,5
 50 474 50 474 56 512 c 0,6,7
 62 552 62 552 73.5 591.5 c 128,-1,8
 85 631 85 631 107 664 c 128,-1,9
 129 697 129 697 163 720 c 128,-1,10
 197 743 197 743 246 751 c 0,11,12
 254 752 254 752 263 752 c 0,13,14
 290 752 290 752 312 744 c 0,15,16
 342 734 342 734 365 721 c 0,17,18
 391 705 391 705 413 684 c 0,19,20
 424 671 424 671 432 648.5 c 128,-1,21
 440 626 440 626 446 599 c 128,-1,22
 452 572 452 572 456 544.5 c 128,-1,23
 460 517 460 517 462.5 494.5 c 128,-1,24
 465 472 465 472 465.5 458 c 128,-1,25
 466 444 466 444 465 444 c 0,26,27
 463 445 463 445 458 444.5 c 128,-1,28
 453 444 453 444 448 444 c 0,29,30
 442 443 442 443 434 443 c 0,31,32
 423 442 423 442 413.5 434 c 128,-1,33
 404 426 404 426 396.5 416 c 128,-1,34
 389 406 389 406 384.5 398.5 c 128,-1,35
 380 391 380 391 379 392 c 256,36,37
 378 393 378 393 370.5 398 c 128,-1,38
 363 403 363 403 354.5 409 c 128,-1,39
 346 415 346 415 339 420 c 128,-1,40
 332 425 332 425 332 427 c 0,41,42
 332 428 332 428 340.5 436.5 c 128,-1,43
 349 445 349 445 358.5 457 c 128,-1,44
 368 469 368 469 375 481.5 c 128,-1,45
 382 494 382 494 379 505 c 0,46,47
 372 529 372 529 363.5 561.5 c 128,-1,48
 355 594 355 594 341 622 c 128,-1,49
 327 650 327 650 306 668 c 0,50,51
 289 683 289 683 265 683 c 0,52,53
 260 683 260 683 254 682 c 0,54,55
 231 679 231 679 212.5 658.5 c 128,-1,56
 194 638 194 638 179.5 607.5 c 128,-1,57
 165 577 165 577 155 541 c 128,-1,58
 145 505 145 505 138.5 470.5 c 128,-1,59
 132 436 132 436 130 408 c 0,60,61
 128 388 128 388 128 374 c 0,62,63
 128 369 128 369 128 364 c 0,64,65
 132 300 132 300 144 246 c 128,-1,66
 156 192 156 192 172.5 152.5 c 128,-1,67
 189 113 189 113 210 90.5 c 128,-1,68
 231 68 231 68 254 68 c 0,69,70
 256 68 256 68 258 68 c 0,71,72
 295 68 295 68 318 84 c 0,73,74
 342 102 342 102 355 128.5 c 128,-1,75
 368 155 368 155 372.5 186.5 c 128,-1,76
 377 218 377 218 377 246 c 1,77,78
 371 250 371 250 361 250 c 0,79,80
 354 250 354 250 346 248 c 0,81,82
 325 244 325 244 303 236 c 0,83,84
 277 227 277 227 248 214 c 1,85,86
 261 239 261 239 263.5 256 c 128,-1,87
 266 273 266 273 262.5 286 c 128,-1,88
 259 299 259 299 253.5 308 c 128,-1,89
 248 317 248 317 245 325 c 0,90,91
 242 331 242 331 256 333 c 0,92,93
 266 334 266 334 277 334 c 0,94,95
 283 334 283 334 289 334 c 0,96,97
 310 333 310 333 338 330 c 0,98,99
 344 328 344 328 350 326 c 0,100,101
 355 324 355 324 361 322 c 128,-1,102
 367 320 367 320 374 318 c 0,103,104
 378 320 378 320 396 324.5 c 128,-1,105
 414 329 414 329 434 333.5 c 128,-1,106
 454 338 454 338 469.5 341 c 128,-1,107
 485 344 485 344 485 343 c 256,108,109
 485 342 485 342 479.5 335.5 c 128,-1,110
 474 329 474 329 467.5 318 c 128,-1,111
 461 307 461 307 457 291 c 0,112,113
 455 282 455 282 455 272 c 0,114,115
 455 264 455 264 456 256 c 0,116,117
 458 246 458 246 458 228 c 0,118,119
 458 224 458 224 458 218 c 0,120,121
 458 194 458 194 452 165 c 128,-1,122
 446 136 446 136 435.5 106.5 c 128,-1,123
 425 77 425 77 406 55 c 0,124,125
 370 12 370 12 316 4 c 0,126,127
 298 2 298 2 279 1 c 0,128,129
 242 1 242 1 203 11 c 0,130,131
 160 23 160 23 133 47 c 128,-1,132
 106 71 106 71 89.5 102 c 128,-1,133
 73 133 73 133 66 168 c 0,134,135
 58 204 58 204 56 240 c 128,-1,136
 54 276 54 276 54 297 c 0,137,138
 54 304 54 304 54 308 c 0,139,140
 54 314 54 314 55 320 c 0,141,142
 55 345 55 345 53 365 c 0,0,1
EndSplineSet
Validated: 1
EndChar

StartChar: w
Encoding: 119 119 8
Width: 976
Flags: W
HStem: 1 69<221.095 278.028 578.579 635.059> 1 45<352.126 406.512 710.126 765.512> 375 20G<829.536 926>
LayerCount: 2
Fore
SplineSet
926 394 m 1,0,-1
 710 53 l 1,1,2
 714 46 714 46 723 45 c 128,-1,3
 732 44 732 44 740 44.5 c 128,-1,4
 748 45 748 45 754.5 46 c 128,-1,5
 761 47 761 47 761 43 c 0,6,7
 762 31 762 31 766 23 c 128,-1,8
 770 15 770 15 774 10 c 128,-1,9
 778 5 778 5 779 3 c 128,-1,10
 780 1 780 1 774 1 c 0,11,12
 763 1 763 1 740.5 1 c 128,-1,13
 718 1 718 1 691 1 c 128,-1,14
 664 1 664 1 636.5 1 c 128,-1,15
 609 1 609 1 588 1 c 0,16,17
 581 1 581 1 578.5 4 c 128,-1,18
 576 7 576 7 575 13 c 128,-1,19
 574 19 574 19 573.5 29.5 c 128,-1,20
 573 40 573 40 570 55 c 256,21,22
 567 70 567 70 578 70 c 128,-1,23
 589 70 589 70 602.5 65 c 128,-1,24
 616 60 616 60 626.5 55 c 128,-1,25
 637 50 637 50 635 55 c 0,26,27
 610 123 610 123 576.5 173.5 c 128,-1,28
 543 224 543 224 508 267 c 1,29,-1
 352 53 l 1,30,31
 356 46 356 46 364.5 45 c 128,-1,32
 373 44 373 44 381.5 44.5 c 128,-1,33
 390 45 390 45 396 46 c 128,-1,34
 402 47 402 47 402 43 c 0,35,36
 403 31 403 31 407 23 c 128,-1,37
 411 15 411 15 415 10 c 128,-1,38
 419 5 419 5 420 3 c 128,-1,39
 421 1 421 1 415 1 c 0,40,41
 405 1 405 1 383 1 c 128,-1,42
 361 1 361 1 334.5 1 c 128,-1,43
 308 1 308 1 280 1 c 128,-1,44
 252 1 252 1 231 1 c 0,45,46
 224 1 224 1 221 4 c 128,-1,47
 218 7 218 7 217 13 c 128,-1,48
 216 19 216 19 215.5 29.5 c 128,-1,49
 215 40 215 40 212 55 c 256,50,51
 209 70 209 70 219.5 70 c 128,-1,52
 230 70 230 70 243.5 65 c 128,-1,53
 257 60 257 60 268 55 c 128,-1,54
 279 50 279 50 278 55 c 0,55,56
 260 103 260 103 237 144 c 128,-1,57
 214 185 214 185 188.5 220.5 c 128,-1,58
 163 256 163 256 137 286.5 c 128,-1,59
 111 317 111 317 89 346 c 1,60,61
 89 353 89 353 84.5 348.5 c 128,-1,62
 80 344 80 344 74 340.5 c 128,-1,63
 68 337 68 337 61.5 340.5 c 128,-1,64
 55 344 55 344 51 367 c 0,65,66
 49 378 49 378 52 387 c 128,-1,67
 55 396 55 396 61.5 403 c 128,-1,68
 68 410 68 410 76 414 c 128,-1,69
 84 418 84 418 92 420 c 0,70,71
 106 422 106 422 118.5 414.5 c 128,-1,72
 131 407 131 407 141 396 c 128,-1,73
 151 385 151 385 159 374.5 c 128,-1,74
 167 364 167 364 173 361 c 0,75,76
 189 363 189 363 200 364 c 0,77,78
 210 365 210 365 215.5 364 c 128,-1,79
 221 363 221 363 216 359 c 0,80,81
 196 344 196 344 192 330 c 0,82,83
 191 325 191 325 190 320 c 0,84,85
 190 310 190 310 195 299 c 0,86,87
 202 283 202 283 217 263.5 c 128,-1,88
 232 244 232 244 247 218 c 0,89,90
 265 176 265 176 279 148 c 128,-1,91
 293 120 293 120 304 102 c 1,92,-1
 466 318 l 1,93,-1
 451 337 l 2,94,95
 450 344 450 344 445.5 339.5 c 128,-1,96
 441 335 441 335 435 331.5 c 128,-1,97
 429 328 429 328 423 331.5 c 128,-1,98
 417 335 417 335 413 358 c 0,99,100
 412 363 412 363 412 367 c 0,101,102
 412 383 412 383 424 394 c 0,103,104
 438 408 438 408 454 411 c 0,105,106
 468 413 468 413 480 405.5 c 128,-1,107
 492 398 492 398 502.5 387 c 128,-1,108
 513 376 513 376 521 365.5 c 128,-1,109
 529 355 529 355 535 352 c 0,110,111
 553 353 553 353 566 354 c 0,112,113
 577 354 577 354 584 353.5 c 128,-1,114
 591 353 591 353 586 349 c 0,115,116
 565 334 565 334 561 323 c 128,-1,117
 557 312 557 312 563 300 c 128,-1,118
 569 288 569 288 582.5 272 c 128,-1,119
 596 256 596 256 611 230 c 0,120,121
 628 194 628 194 643 166.5 c 128,-1,122
 658 139 658 139 670 119 c 1,123,-1
 842 395 l 1,124,-1
 926 394 l 1,0,-1
EndSplineSet
Validated: 1
EndChar

StartChar: s
Encoding: 115 115 9
Width: 433
Flags: W
HStem: 2 46<133.157 296.695> 379 41<159.901 302.411>
VStem: 68 76<291.355 363.017>
LayerCount: 2
Fore
SplineSet
61 140 m 1,0,1
 74 116 74 116 95 97 c 0,2,3
 113 80 113 80 142 65 c 128,-1,4
 171 50 171 50 214 48 c 1,5,6
 263 52 263 52 287.5 64.5 c 128,-1,7
 312 77 312 77 318 94 c 0,8,9
 320 99 320 99 319 105 c 0,10,11
 318 116 318 116 310 130 c 0,12,13
 298 150 298 150 273.5 167 c 128,-1,14
 249 184 249 184 214.5 197.5 c 128,-1,15
 180 211 180 211 140 215 c 0,16,17
 118 217 118 217 104 228.5 c 128,-1,18
 90 240 90 240 81.5 256 c 128,-1,19
 73 272 73 272 70.5 289 c 128,-1,20
 68 306 68 306 68 319 c 0,21,22
 69 340 69 340 80.5 356.5 c 128,-1,23
 92 373 92 373 111 385 c 128,-1,24
 130 397 130 397 154.5 405 c 128,-1,25
 179 413 179 413 207 417 c 0,26,27
 227 420 227 420 245 420 c 0,28,29
 270 420 270 420 292 415 c 0,30,31
 330 407 330 407 354 391 c 0,32,33
 381 372 381 372 382 349 c 0,34,35
 382 330 382 330 358 310 c 1,36,37
 343 330 343 330 323 346 c 0,38,39
 304 360 304 360 278 370 c 0,40,41
 254 379 254 379 221 379 c 0,42,43
 218 379 218 379 214 379 c 0,44,45
 186 376 186 376 166.5 363.5 c 128,-1,46
 147 351 147 351 144 334 c 0,47,48
 144 331 144 331 144 329 c 0,49,50
 144 314 144 314 158 298 c 0,51,52
 175 280 175 280 219 265 c 0,53,54
 250 254 250 254 278.5 244.5 c 128,-1,55
 307 235 307 235 329.5 221.5 c 128,-1,56
 352 208 352 208 366 188 c 0,57,58
 382 164 382 164 382 132 c 0,59,60
 382 110 382 110 370 87 c 0,61,62
 356 63 356 63 333 44 c 128,-1,63
 310 25 310 25 279 13.5 c 128,-1,64
 248 2 248 2 214 2 c 0,65,66
 188 2 188 2 162 5.5 c 128,-1,67
 136 9 136 9 113.5 18 c 128,-1,68
 91 27 91 27 74.5 41 c 128,-1,69
 58 55 58 55 52 76 c 0,70,71
 50 85 50 85 51 96 c 128,-1,72
 52 107 52 107 54 117 c 0,73,74
 57 128 57 128 61 140 c 1,0,1
EndSplineSet
Validated: 1
EndChar

StartChar: H
Encoding: 72 72 10
Width: 758
Flags: W
HStem: 0 79<113.127 188 449.126 524> 191 66<140.034 186 281 522> 733 20G<183 196 518.5 531>
VStem: 185.5 94.5<66.1322 191 257 639.238> 519 96<64.1335 187 261 637.238>
LayerCount: 2
Fore
SplineSet
188 66 m 0,0,1
 188 105 188 105 188 135.5 c 128,-1,2
 188 166 188 166 187 191 c 1,3,-1
 124 191 l 2,4,5
 124 192 124 192 112.5 190 c 128,-1,6
 101 188 101 188 87 186 c 128,-1,7
 73 184 73 184 61.5 182 c 128,-1,8
 50 180 50 180 50 181 c 256,9,10
 50 182 50 182 63.5 194 c 128,-1,11
 77 206 77 206 93.5 221 c 128,-1,12
 110 236 110 236 124 248.5 c 128,-1,13
 138 261 138 261 140 263 c 1,14,15
 141 260 141 260 153 259 c 128,-1,16
 165 258 165 258 186 257 c 1,17,18
 186 279 186 279 185.5 300 c 128,-1,19
 185 321 185 321 185 345 c 0,20,21
 184 380 184 380 184 416.5 c 128,-1,22
 184 453 184 453 184 493.5 c 128,-1,23
 184 534 184 534 184 580 c 128,-1,24
 184 626 184 626 183 679 c 0,25,26
 183 686 183 686 177.5 681.5 c 128,-1,27
 172 677 172 677 164 673.5 c 128,-1,28
 156 670 156 670 147.5 673.5 c 128,-1,29
 139 677 139 677 134 700 c 0,30,31
 132 711 132 711 136 720 c 128,-1,32
 140 729 140 729 148.5 736 c 128,-1,33
 157 743 157 743 167.5 747 c 128,-1,34
 178 751 178 751 188 753 c 0,35,36
 192 753 192 753 196 753 c 0,37,38
 211 754 211 754 223 748 c 0,39,40
 239 740 239 740 252.5 729 c 128,-1,41
 266 718 266 718 276.5 707.5 c 128,-1,42
 287 697 287 697 295 694 c 0,43,44
 316 696 316 696 331 697 c 0,45,46
 344 698 344 698 351.5 697 c 128,-1,47
 359 696 359 696 352 692 c 0,48,49
 325 677 325 677 310 653.5 c 128,-1,50
 295 630 295 630 288 603 c 128,-1,51
 281 576 281 576 280 547 c 0,52,53
 280 533 280 533 280 518.5 c 128,-1,54
 280 504 280 504 280 490 c 0,55,56
 281 449 281 449 281 410 c 0,57,58
 281 390 281 390 280.5 370 c 128,-1,59
 280 350 280 350 280 331 c 0,60,61
 280 293 280 293 281 257 c 1,62,63
 341 257 341 257 406 258.5 c 128,-1,64
 471 260 471 260 522 261 c 1,65,66
 521 281 521 281 520.5 300.5 c 128,-1,67
 520 320 520 320 520 343 c 0,68,69
 519 378 519 378 519 414.5 c 128,-1,70
 519 451 519 451 519 491.5 c 128,-1,71
 519 532 519 532 519 578 c 128,-1,72
 519 624 519 624 517 677 c 0,73,74
 517 684 517 684 511.5 679.5 c 128,-1,75
 506 675 506 675 498 671.5 c 128,-1,76
 490 668 490 668 482 671.5 c 128,-1,77
 474 675 474 675 469 698 c 0,78,79
 467 709 467 709 471 718 c 128,-1,80
 475 727 475 727 483.5 734 c 128,-1,81
 492 741 492 741 502.5 745 c 128,-1,82
 513 749 513 749 524 751 c 0,83,84
 528 751 528 751 531 751 c 0,85,86
 545 752 545 752 558 746 c 0,87,88
 574 738 574 738 587.5 727 c 128,-1,89
 601 716 601 716 611.5 705.5 c 128,-1,90
 622 695 622 695 630 692 c 0,91,92
 651 694 651 694 666 695 c 0,93,94
 679 696 679 696 687 695 c 128,-1,95
 695 694 695 694 688 690 c 0,96,97
 660 675 660 675 645 651.5 c 128,-1,98
 630 628 630 628 623 601 c 128,-1,99
 616 574 616 574 615 545 c 128,-1,100
 614 516 614 516 614 488 c 0,101,102
 615 413 615 413 615.5 339.5 c 128,-1,103
 616 266 616 266 616.5 206 c 128,-1,104
 617 146 617 146 618.5 107 c 128,-1,105
 620 68 620 68 623 64 c 0,106,107
 628 56 628 56 639.5 57 c 128,-1,108
 651 58 651 58 662.5 62 c 128,-1,109
 674 66 674 66 683 69 c 128,-1,110
 692 72 692 72 692 68 c 0,111,112
 693 56 693 56 697 43.5 c 128,-1,113
 701 31 701 31 704.5 21.5 c 128,-1,114
 708 12 708 12 707.5 6 c 128,-1,115
 707 0 707 0 699 0 c 0,116,117
 685 0 685 0 657 0 c 128,-1,118
 629 0 629 0 594.5 0 c 128,-1,119
 560 0 560 0 525 0 c 128,-1,120
 490 0 490 0 463 0 c 0,121,122
 453 0 453 0 449 4.5 c 128,-1,123
 445 9 445 9 443.5 17 c 128,-1,124
 442 25 442 25 441.5 37 c 128,-1,125
 441 49 441 49 438 64 c 0,126,127
 434 79 434 79 447 79 c 128,-1,128
 460 79 460 79 477 73.5 c 128,-1,129
 494 68 494 68 509 63 c 128,-1,130
 524 58 524 58 524 64 c 0,131,132
 524 102 524 102 524 132 c 128,-1,133
 524 162 524 162 523 187 c 1,134,-1
 281 191 l 1,135,136
 282 137 282 137 283.5 103.5 c 128,-1,137
 285 70 285 70 287 66 c 0,138,139
 292 58 292 58 303.5 59 c 128,-1,140
 315 60 315 60 326.5 64 c 128,-1,141
 338 68 338 68 347 71 c 128,-1,142
 356 74 356 74 356 70 c 0,143,144
 357 58 357 58 361.5 45 c 128,-1,145
 366 32 366 32 369 22 c 128,-1,146
 372 12 372 12 372 6 c 128,-1,147
 372 0 372 0 364 0 c 0,148,149
 351 0 351 0 322.5 0 c 128,-1,150
 294 0 294 0 259.5 0 c 128,-1,151
 225 0 225 0 190 0 c 128,-1,152
 155 0 155 0 128 0 c 0,153,154
 117 0 117 0 113 4.5 c 128,-1,155
 109 9 109 9 107.5 18 c 128,-1,156
 106 27 106 27 105.5 39 c 128,-1,157
 105 51 105 51 102 66 c 0,158,159
 98 81 98 81 111 81 c 128,-1,160
 124 81 124 81 141 75.5 c 128,-1,161
 158 70 158 70 173 65 c 128,-1,162
 188 60 188 60 188 66 c 0,0,1
EndSplineSet
Validated: 1
EndChar

StartChar: I
Encoding: 73 73 11
Width: 373
Flags: W
HStem: 0 82<63.1265 139.996>
VStem: 140 93<68.2114 392.25 393.406 645.564>
LayerCount: 2
Fore
SplineSet
140 67 m 0,0,1
 140 121 140 121 139.5 160 c 128,-1,2
 139 199 139 199 138 230 c 128,-1,3
 137 261 137 261 136 288 c 128,-1,4
 135 315 135 315 134 346 c 0,5,6
 133 369 133 369 133 393 c 0,7,8
 134 406 134 406 134 418 c 0,9,10
 134 454 134 454 134 494.5 c 128,-1,11
 134 535 134 535 133.5 581 c 128,-1,12
 133 627 133 627 132 680 c 0,13,14
 132 687 132 687 126.5 682.5 c 128,-1,15
 121 678 121 678 113.5 674.5 c 128,-1,16
 106 671 106 671 98 674.5 c 128,-1,17
 90 678 90 678 85 701 c 0,18,19
 82 712 82 712 86 721 c 128,-1,20
 90 730 90 730 98.5 737 c 128,-1,21
 107 744 107 744 118 748 c 128,-1,22
 129 752 129 752 140 754 c 0,23,24
 144 754 144 754 147 754 c 0,25,26
 161 754 161 754 174 748 c 0,27,28
 190 740 190 740 203 729.5 c 128,-1,29
 216 719 216 719 226.5 708.5 c 128,-1,30
 237 698 237 698 245 695 c 0,31,32
 266 697 266 697 281 698 c 0,33,34
 294 699 294 699 302 698 c 128,-1,35
 310 697 310 697 302 693 c 0,36,37
 275 678 275 678 260 654.5 c 128,-1,38
 245 631 245 631 238 604 c 128,-1,39
 231 577 231 577 230 548 c 0,40,41
 230 534 230 534 230 519.5 c 128,-1,42
 230 505 230 505 230 491 c 0,43,44
 231 416 231 416 231 342.5 c 128,-1,45
 231 269 231 269 231.5 209 c 128,-1,46
 232 149 232 149 233 110 c 128,-1,47
 234 71 234 71 237 67 c 0,48,49
 242 59 242 59 253.5 60 c 128,-1,50
 265 61 265 61 276.5 65 c 128,-1,51
 288 69 288 69 297 72 c 128,-1,52
 306 75 306 75 306 71 c 0,53,54
 307 59 307 59 312 46 c 128,-1,55
 317 33 317 33 320 23 c 128,-1,56
 323 13 323 13 322.5 6.5 c 128,-1,57
 322 0 322 0 314 0 c 2,58,-1
 77 0 l 2,59,60
 67 0 67 0 63 5 c 128,-1,61
 59 10 59 10 57.5 18.5 c 128,-1,62
 56 27 56 27 55.5 39.5 c 128,-1,63
 55 52 55 52 51 67 c 0,64,65
 48 82 48 82 62 82 c 128,-1,66
 76 82 76 82 93 76.5 c 128,-1,67
 110 71 110 71 125 66 c 128,-1,68
 140 61 140 61 140 67 c 0,0,1
EndSplineSet
Validated: 1
EndChar

StartChar: J
Encoding: 74 74 12
Width: 581
Flags: W
HStem: -2 86<220.514 348.25> 729 20G<373.5 387>
VStem: 78 98<128.783 331.974> 373 111<514.969 666.555> 391 85<191.508 650.492>
LayerCount: 2
Fore
SplineSet
439 107 m 2,0,1
 426 68 426 68 407.5 41.5 c 128,-1,2
 389 15 389 15 363 7 c 0,3,4
 334 -2 334 -2 301 -2 c 0,5,6
 299 -2 299 -2 297 -2 c 0,7,8
 266 -2 266 -2 236 5 c 0,9,10
 204 12 204 12 175.5 26 c 128,-1,11
 147 40 147 40 129 62 c 128,-1,12
 111 84 111 84 100 113 c 128,-1,13
 89 142 89 142 84 170 c 0,14,15
 78 200 78 200 78 224 c 0,16,17
 78 229 78 229 78 233 c 0,18,19
 78 251 78 251 80 261 c 0,20,21
 81 269 81 269 81 276 c 0,22,23
 80 288 80 288 78 296 c 0,24,25
 74 312 74 312 68 322.5 c 128,-1,26
 62 333 62 333 56 339.5 c 128,-1,27
 50 346 50 346 50 347 c 128,-1,28
 50 348 50 348 61 347.5 c 128,-1,29
 72 347 72 347 88 346 c 128,-1,30
 104 345 104 345 123 343.5 c 128,-1,31
 142 342 142 342 158.5 340 c 128,-1,32
 175 338 175 338 186 336.5 c 128,-1,33
 197 335 197 335 198 334 c 128,-1,34
 199 333 199 333 192.5 313.5 c 128,-1,35
 186 294 186 294 181 265.5 c 128,-1,36
 176 237 176 237 176 204 c 128,-1,37
 176 171 176 171 189 144 c 0,38,39
 202 115 202 115 232 98 c 0,40,41
 257 84 257 84 296 84 c 0,42,43
 298 84 298 84 301 84 c 0,44,45
 309 84 309 84 317 84 c 0,46,47
 339 84 339 84 354.5 117 c 128,-1,48
 370 150 370 150 379 202 c 128,-1,49
 388 254 388 254 390 318 c 0,50,51
 391 343 391 343 391 368 c 0,52,53
 391 427 391 427 389 447 c 0,54,55
 388 457 388 457 388 466 c 0,56,57
 388 467 388 467 386 492 c 0,58,59
 377 581 377 581 373 675 c 0,60,61
 373 682 373 682 367 677.5 c 128,-1,62
 361 673 361 673 353 669.5 c 128,-1,63
 345 666 345 666 337 669.5 c 128,-1,64
 329 673 329 673 324 696 c 0,65,66
 321 707 321 707 325.5 716 c 128,-1,67
 330 725 330 725 338.5 732 c 128,-1,68
 347 739 347 739 357.5 743 c 128,-1,69
 368 747 368 747 379 749 c 0,70,71
 383 749 383 749 387 749 c 0,72,73
 401 750 401 750 412 744 c 0,74,75
 426 736 426 736 436 725 c 128,-1,76
 446 714 446 714 454 703.5 c 128,-1,77
 462 693 462 693 470 690 c 0,78,79
 490 692 490 692 505 693 c 0,80,81
 518 694 518 694 526 693 c 128,-1,82
 534 692 534 692 528 688 c 0,83,84
 504 674 504 674 494.5 642 c 128,-1,85
 485 610 485 610 484 578 c 0,86,87
 482 545 482 545 480.5 514 c 128,-1,88
 479 483 479 483 477 454 c 0,89,90
 477 452 477 452 476.5 451 c 128,-1,91
 476 450 476 450 476 448 c 2,92,-1
 476 442 l 2,93,94
 474 367 474 367 469 291.5 c 128,-1,95
 464 216 464 216 450 153 c 2,96,-1
 448 141 l 1,97,-1
 439 107 l 2,0,1
EndSplineSet
Validated: 1
EndChar

StartChar: K
Encoding: 75 75 13
Width: 720
Flags: W
HStem: 0 83<63.642 136.996> 732 20G<477 595>
VStem: 133 95<69.6838 187 361 638.93>
LayerCount: 2
Fore
SplineSet
137 68 m 0,0,1
 137 122 137 122 136.5 161 c 128,-1,2
 136 200 136 200 135.5 231 c 128,-1,3
 135 262 135 262 134.5 289 c 128,-1,4
 134 316 134 316 134 347 c 0,5,6
 133 382 133 382 133 418.5 c 128,-1,7
 133 455 133 455 133 495.5 c 128,-1,8
 133 536 133 536 133 582 c 128,-1,9
 133 628 133 628 132 681 c 0,10,11
 132 688 132 688 126 683.5 c 128,-1,12
 120 679 120 679 112 675.5 c 128,-1,13
 104 672 104 672 96 675.5 c 128,-1,14
 88 679 88 679 83 702 c 0,15,16
 81 713 81 713 85 722 c 128,-1,17
 89 731 89 731 97.5 738 c 128,-1,18
 106 745 106 745 116.5 749 c 128,-1,19
 127 753 127 753 137 755 c 0,20,21
 141 755 141 755 145 755 c 0,22,23
 160 756 160 756 172 750 c 0,24,25
 188 742 188 742 201.5 731 c 128,-1,26
 215 720 215 720 225.5 709.5 c 128,-1,27
 236 699 236 699 244 696 c 0,28,29
 265 698 265 698 280 699 c 0,30,31
 293 700 293 700 301 699 c 128,-1,32
 309 698 309 698 302 694 c 0,33,34
 274 679 274 679 259 655.5 c 128,-1,35
 244 632 244 632 237 605 c 128,-1,36
 230 578 230 578 229 549 c 128,-1,37
 228 520 228 520 228 492 c 0,38,39
 228 459 228 459 228.5 426 c 128,-1,40
 229 393 229 393 229 361 c 1,41,42
 241 377 241 377 259 402.5 c 128,-1,43
 277 428 277 428 299 458.5 c 128,-1,44
 321 489 321 489 345 522.5 c 128,-1,45
 369 556 369 556 392 589 c 0,46,47
 447 666 447 666 507 752 c 1,48,-1
 595 752 l 1,49,-1
 416 475 l 1,50,-1
 430 451 l 2,51,52
 441 429 441 429 450.5 391 c 128,-1,53
 460 353 460 353 467.5 307 c 128,-1,54
 475 261 475 261 482.5 210.5 c 128,-1,55
 490 160 490 160 497.5 114.5 c 128,-1,56
 505 69 505 69 513 31.5 c 128,-1,57
 521 -6 521 -6 532 -26 c 0,58,59
 548 -58 548 -58 571 -80.5 c 128,-1,60
 594 -103 594 -103 615.5 -116.5 c 128,-1,61
 637 -130 637 -130 652.5 -136 c 128,-1,62
 668 -142 668 -142 669 -142 c 256,63,64
 670 -142 670 -142 656 -145 c 128,-1,65
 642 -148 642 -148 621 -150 c 0,66,67
 605 -151 605 -151 588 -151 c 0,68,69
 582 -150 582 -150 576 -150 c 0,70,71
 552 -150 552 -150 534 -142 c 0,72,73
 511 -133 511 -133 496 -123.5 c 128,-1,74
 481 -114 481 -114 470 -100 c 128,-1,75
 459 -86 459 -86 450.5 -65 c 128,-1,76
 442 -44 442 -44 433 -11 c 0,77,78
 433 -8 433 -8 429 14 c 128,-1,79
 425 36 425 36 418 69.5 c 128,-1,80
 411 103 411 103 402 145 c 128,-1,81
 393 187 393 187 384 229.5 c 128,-1,82
 375 272 375 272 366.5 311 c 128,-1,83
 358 350 358 350 353 378 c 1,84,-1
 230 187 l 1,85,86
 230 136 230 136 231.5 104 c 128,-1,87
 233 72 233 72 236 68 c 0,88,89
 241 60 241 60 252.5 61 c 128,-1,90
 264 62 264 62 275.5 66 c 128,-1,91
 287 70 287 70 296 73 c 128,-1,92
 305 76 305 76 305 72 c 0,93,94
 306 60 306 60 310.5 47 c 128,-1,95
 315 34 315 34 318 23.5 c 128,-1,96
 321 13 321 13 321 6.5 c 128,-1,97
 321 0 321 0 313 0 c 2,98,-1
 78 0 l 2,99,100
 68 0 68 0 63.5 5 c 128,-1,101
 59 10 59 10 57.5 19 c 128,-1,102
 56 28 56 28 55 40.5 c 128,-1,103
 54 53 54 53 51 68 c 0,104,105
 47 83 47 83 60 83 c 128,-1,106
 73 83 73 83 90 77.5 c 128,-1,107
 107 72 107 72 122 67 c 128,-1,108
 137 62 137 62 137 68 c 0,0,1
EndSplineSet
Validated: 1
EndChar

StartChar: L
Encoding: 76 76 14
Width: 536
Flags: W
HStem: 0 53<233.086 302.937>
VStem: 134 96<68.6838 639.662> 374 54<76.1549 127>
LayerCount: 2
Fore
SplineSet
140 67 m 0,0,1
 140 121 140 121 139.5 160 c 128,-1,2
 139 199 139 199 138 230 c 128,-1,3
 137 261 137 261 136 288 c 128,-1,4
 135 315 135 315 134 346 c 0,5,6
 133 369 133 369 133 393 c 0,7,8
 134 406 134 406 134 418 c 0,9,10
 134 454 134 454 134 494.5 c 128,-1,11
 134 535 134 535 133.5 581 c 128,-1,12
 133 627 133 627 132 680 c 0,13,14
 132 687 132 687 126.5 682.5 c 128,-1,15
 121 678 121 678 113.5 674.5 c 128,-1,16
 106 671 106 671 98 674.5 c 128,-1,17
 90 678 90 678 85 701 c 0,18,19
 82 712 82 712 86 721 c 128,-1,20
 90 730 90 730 98.5 737 c 128,-1,21
 107 744 107 744 118 748 c 128,-1,22
 129 752 129 752 140 754 c 0,23,24
 144 754 144 754 147 754 c 0,25,26
 161 754 161 754 174 748 c 0,27,28
 190 740 190 740 203 729.5 c 128,-1,29
 216 719 216 719 226.5 708.5 c 128,-1,30
 237 698 237 698 245 695 c 0,31,32
 266 697 266 697 281 698 c 0,33,34
 294 699 294 699 302 698 c 128,-1,35
 310 697 310 697 302 693 c 0,36,37
 275 678 275 678 260 654.5 c 128,-1,38
 245 631 245 631 238 604 c 128,-1,39
 231 577 231 577 230 548 c 0,40,41
 230 534 230 534 230 519.5 c 128,-1,42
 230 505 230 505 230 491 c 0,43,44
 231 416 231 416 231 340.5 c 128,-1,45
 231 265 231 265 231 203.5 c 128,-1,46
 231 142 231 142 232 101 c 128,-1,47
 233 60 233 60 236 56 c 0,48,49
 236 55 236 55 238 53 c 0,50,51
 249 53 249 53 263 55 c 128,-1,52
 277 57 277 57 292 60 c 0,53,54
 296 61 296 61 298.5 62 c 128,-1,55
 301 63 301 63 303 62 c 0,56,57
 321 66 321 66 335.5 70 c 128,-1,58
 350 74 350 74 355 78 c 0,59,60
 372 88 372 88 374 106 c 0,61,62
 374 110 374 110 374 113 c 0,63,64
 374 127 374 127 369 142 c 0,65,66
 363 161 363 161 354 179 c 128,-1,67
 345 197 345 197 342 210 c 0,68,69
 340 218 340 218 347 220 c 128,-1,70
 354 222 354 222 365.5 220.5 c 128,-1,71
 377 219 377 219 391 215 c 128,-1,72
 405 211 405 211 417.5 207 c 128,-1,73
 430 203 430 203 438 200 c 0,74,-1
 446 197 l 2,75,76
 442 187 l 0,77,78
 438 177 438 177 434.5 161 c 128,-1,79
 431 145 431 145 430 127 c 0,80,81
 429 121 429 121 428 115 c 0,82,83
 428 104 428 104 431 94 c 0,84,85
 433 79 433 79 442 62.5 c 128,-1,86
 451 46 451 46 461 32 c 0,87,88
 472 15 472 15 486 0 c 1,89,-1
 80 0 l 2,90,91
 70 0 70 0 65.5 5 c 128,-1,92
 61 10 61 10 59 18.5 c 128,-1,93
 57 27 57 27 56 39.5 c 128,-1,94
 55 52 55 52 51 67 c 0,95,96
 48 82 48 82 62 82 c 128,-1,97
 76 82 76 82 93 76.5 c 128,-1,98
 110 71 110 71 125 66 c 128,-1,99
 140 61 140 61 140 67 c 0,0,1
EndSplineSet
Validated: 1
EndChar

StartChar: M
Encoding: 77 77 15
Width: 707
Flags: W
HStem: 0 42<70.015 154.168> 743 4<348 358.654>
VStem: 171.5 62.5<67.1324 515.826> 346 73<1 97.8362> 522 54<83.849 270.423> 524 68<417.564 519> 524.5 57.5<156.658 517.908>
LayerCount: 2
Fore
SplineSet
167 116 m 0,0,1
 170 168 170 168 171.5 204 c 128,-1,2
 173 240 173 240 174 268.5 c 128,-1,3
 175 297 175 297 175 323.5 c 128,-1,4
 175 350 175 350 173.5 384.5 c 128,-1,5
 172 419 172 419 170 465.5 c 128,-1,6
 168 512 168 512 164 581 c 0,7,8
 162 616 162 616 153 646 c 128,-1,9
 144 676 144 676 134.5 698 c 128,-1,10
 125 720 125 720 117.5 733 c 128,-1,11
 110 746 110 746 110 747 c 256,12,13
 110 748 110 748 126 745 c 128,-1,14
 142 742 142 742 161.5 738.5 c 128,-1,15
 181 735 181 735 198 732 c 0,16,-1
 214 730 l 1,17,18
 220 743 220 743 240 748 c 0,19,20
 253 751 253 751 266 751 c 0,21,22
 269 751 269 751 273 751 c 0,23,24
 278 751 278 751 282 751 c 0,25,26
 304 750 304 750 326 747 c 128,-1,27
 348 744 348 744 359 743 c 1,28,29
 348 742 348 742 337.5 735 c 128,-1,30
 327 728 327 728 319 720 c 0,31,32
 309 710 309 710 300 697 c 1,33,34
 302 689 302 689 308 651.5 c 128,-1,35
 314 614 314 614 322.5 561.5 c 128,-1,36
 331 509 331 509 340 449 c 128,-1,37
 349 389 349 389 357 337 c 128,-1,38
 365 285 365 285 370.5 248 c 128,-1,39
 376 211 376 211 376 204 c 1,40,41
 377 211 377 211 381 236 c 128,-1,42
 385 261 385 261 391 298.5 c 128,-1,43
 397 336 397 336 405 382.5 c 128,-1,44
 413 429 413 429 422 479 c 128,-1,45
 431 529 431 529 440 579.5 c 128,-1,46
 449 630 449 630 458 674 c 0,47,48
 460 684 460 684 458 696 c 128,-1,49
 456 708 456 708 453 719 c 0,50,51
 449 731 449 731 445 743 c 1,52,53
 465 747 465 747 484 747 c 0,54,55
 488 747 488 747 491 747 c 0,56,57
 510 746 510 746 528.5 738.5 c 128,-1,58
 547 731 547 731 558 712 c 1,59,60
 583 732 583 732 600 739 c 128,-1,61
 617 746 617 746 628 745 c 0,62,63
 640 744 640 744 648 737 c 1,64,65
 632 716 632 716 620 692 c 0,66,67
 609 671 609 671 600.5 644 c 128,-1,68
 592 617 592 617 592 587 c 0,69,70
 589 497 589 497 585 415 c 0,71,72
 583 380 583 380 582 343 c 128,-1,73
 581 306 581 306 579.5 271.5 c 128,-1,74
 578 237 578 237 577 207 c 128,-1,75
 576 177 576 177 576 156 c 0,76,77
 582 115 582 115 596.5 86.5 c 128,-1,78
 611 58 611 58 626 39 c 128,-1,79
 641 20 641 20 650.5 11 c 128,-1,80
 660 2 660 2 655 0 c 0,81,82
 654 0 654 0 626 0.5 c 128,-1,83
 598 1 598 1 563 1 c 2,84,-1
 471 1 l 1,85,86
 474 14 474 14 479 27 c 0,87,88
 484 38 484 38 490.5 51.5 c 128,-1,89
 497 65 497 65 506 77 c 0,90,91
 512 85 512 85 516 121 c 128,-1,92
 520 157 520 157 522 206 c 128,-1,93
 524 255 524 255 524.5 310.5 c 128,-1,94
 525 366 525 366 525 412.5 c 128,-1,95
 525 459 525 459 524 489 c 0,96,-1
 524 519 l 2,97,98
 523 519 523 519 517.5 497.5 c 128,-1,99
 512 476 512 476 504 441 c 128,-1,100
 496 406 496 406 485.5 361 c 128,-1,101
 475 316 475 316 465 268.5 c 128,-1,102
 455 221 455 221 445.5 175 c 128,-1,103
 436 129 436 129 429.5 92 c 128,-1,104
 423 55 423 55 420 30 c 128,-1,105
 417 5 417 5 419 1 c 1,106,-1
 346 1 l 1,107,108
 344 5 344 5 338.5 29.5 c 128,-1,109
 333 54 333 54 325.5 91 c 128,-1,110
 318 128 318 128 309 174 c 128,-1,111
 300 220 300 220 291 267.5 c 128,-1,112
 282 315 282 315 273.5 360 c 128,-1,113
 265 405 265 405 258 439.5 c 128,-1,114
 251 474 251 474 247 495 c 128,-1,115
 243 516 243 516 242 516 c 0,116,117
 241 515 241 515 239.5 483 c 128,-1,118
 238 451 238 451 236.5 402.5 c 128,-1,119
 235 354 235 354 234 297 c 0,120,121
 234 274 234 274 234 253 c 0,122,123
 234 220 234 220 234 190 c 0,124,125
 236 140 236 140 240.5 105.5 c 128,-1,126
 245 71 245 71 253 67 c 0,127,128
 265 61 265 61 271.5 49.5 c 128,-1,129
 278 38 278 38 281 27 c 0,130,131
 285 14 285 14 286 0 c 1,132,-1
 266 0 l 0,133,134
 247 0 247 0 217 0 c 128,-1,135
 187 0 187 0 151.5 0 c 128,-1,136
 116 0 116 0 85 0 c 0,137,138
 75 0 75 0 66.5 9 c 128,-1,139
 58 18 58 18 54 31 c 128,-1,140
 50 44 50 44 51.5 56.5 c 128,-1,141
 53 69 53 69 63 77 c 1,142,143
 61 74 61 74 66 67.5 c 128,-1,144
 71 61 71 61 79 55 c 128,-1,145
 87 49 87 49 97 45 c 128,-1,146
 107 41 107 41 116 42 c 0,147,148
 144 46 144 46 154.5 63 c 128,-1,149
 165 80 165 80 167 116 c 0,0,1
EndSplineSet
Validated: 1
EndChar

StartChar: N
Encoding: 78 78 16
Width: 637
Flags: W
HStem: 0 48<99.0944 155.062> 730 20G<175.5 185.5 453.5 480>
VStem: 63 38<625.623 673.828> 179 58<88.1884 558.049> 385 115<0 109.438> 426 69<173.974 649.23>
LayerCount: 2
Fore
SplineSet
247 109 m 0,0,1
 256 91 256 91 268.5 73 c 128,-1,2
 281 55 281 55 293 39.5 c 128,-1,3
 305 24 305 24 314 13.5 c 128,-1,4
 323 3 323 3 325 1 c 1,5,6
 305 1 305 1 279 0.5 c 128,-1,7
 253 0 253 0 224.5 0 c 128,-1,8
 196 0 196 0 167 0 c 128,-1,9
 138 0 138 0 113 0 c 0,10,11
 89 0 89 0 76.5 9 c 128,-1,12
 64 18 64 18 58 28.5 c 128,-1,13
 52 39 52 39 51.5 47 c 128,-1,14
 51 55 51 55 51 53 c 1,15,16
 51 59 51 59 55.5 71.5 c 128,-1,17
 60 84 60 84 69 95 c 128,-1,18
 78 106 78 106 91 111.5 c 128,-1,19
 104 117 104 117 121 109 c 1,20,21
 103 92 103 92 99.5 81 c 128,-1,22
 96 70 96 70 99 63 c 128,-1,23
 102 56 102 56 107.5 53 c 128,-1,24
 113 50 113 50 113 49 c 256,25,26
 113 48 113 48 123 48 c 128,-1,27
 133 48 133 48 144.5 57.5 c 128,-1,28
 156 67 156 67 166.5 92 c 128,-1,29
 177 117 177 117 179 166 c 0,30,31
 182 204 182 204 182 257.5 c 128,-1,32
 182 311 182 311 179.5 369.5 c 128,-1,33
 177 428 177 428 172 486 c 0,34,35
 170 520 170 520 161 595 c 0,36,37
 156 637 156 637 142 655 c 0,38,39
 127 674 127 674 115 674 c 0,40,41
 101 674 101 674 101 658 c 0,42,43
 101 645 101 645 119 625 c 1,44,45
 113 611 113 611 105.5 606.5 c 128,-1,46
 98 602 98 602 90.5 604.5 c 128,-1,47
 83 607 83 607 75.5 615.5 c 128,-1,48
 68 624 68 624 63 637 c 0,49,50
 63 648 63 648 67 662.5 c 128,-1,51
 71 677 71 677 79 691.5 c 128,-1,52
 87 706 87 706 99 718.5 c 128,-1,53
 111 731 111 731 126 738 c 0,54,55
 144 746 144 746 162 748 c 0,56,57
 171 749 171 749 180 750 c 0,58,59
 191 750 191 750 198 748 c 0,60,61
 224 741 224 741 230 738 c 0,62,63
 245 730 245 730 255 716 c 256,64,65
 265 702 265 702 277.5 671.5 c 128,-1,66
 290 641 290 641 303 600 c 128,-1,67
 316 559 316 559 330 512 c 128,-1,68
 344 465 344 465 357 417.5 c 128,-1,69
 370 370 370 370 381 326.5 c 128,-1,70
 392 283 392 283 400.5 249 c 128,-1,71
 409 215 409 215 414 194 c 0,72,-1
 420 174 l 2,73,74
 421 173 421 173 421.5 194.5 c 128,-1,75
 422 216 422 216 423 250 c 128,-1,76
 424 284 424 284 425 325 c 128,-1,77
 426 366 426 366 426 405 c 128,-1,78
 426 444 426 444 426 475 c 128,-1,79
 426 506 426 506 426 521 c 0,80,81
 426 549 426 549 423.5 569.5 c 128,-1,82
 421 590 421 590 416.5 608 c 128,-1,83
 412 626 412 626 405.5 645.5 c 128,-1,84
 399 665 399 665 389 691 c 0,85,86
 384 704 384 704 385 716 c 128,-1,87
 386 728 386 728 396 736.5 c 128,-1,88
 406 745 406 745 426 749 c 0,89,90
 442 752 442 752 465 752 c 0,91,92
 471 752 471 752 477 752 c 128,-1,93
 483 752 483 752 477.5 747.5 c 128,-1,94
 472 743 472 743 464 738.5 c 128,-1,95
 456 734 456 734 450 730 c 128,-1,96
 444 726 444 726 449 726 c 0,97,98
 460 726 460 726 476.5 733 c 128,-1,99
 493 740 493 740 512 746 c 0,100,101
 532 752 532 752 550 754 c 0,102,103
 552 754 552 754 554 754 c 0,104,105
 570 754 570 754 584 745 c 0,106,107
 592 740 592 740 578.5 736.5 c 128,-1,108
 565 733 565 733 545.5 721 c 128,-1,109
 526 709 526 709 508.5 684 c 128,-1,110
 491 659 491 659 491 613 c 2,111,-1
 495 307 l 2,112,113
 496 250 496 250 496.5 194.5 c 128,-1,114
 497 139 497 139 498 96 c 0,115,116
 500 52 500 52 500 26 c 0,117,-1
 500 0 l 1,118,-1
 385 0 l 1,119,120
 385 7 385 7 378 42 c 128,-1,121
 371 77 371 77 359 128 c 128,-1,122
 347 179 347 179 331.5 240 c 128,-1,123
 316 301 316 301 299 361 c 128,-1,124
 282 421 282 421 264 473 c 128,-1,125
 246 525 246 525 230 559 c 0,126,127
 229 561 229 561 229.5 529.5 c 128,-1,128
 230 498 230 498 231 449.5 c 128,-1,129
 232 401 232 401 233.5 343.5 c 128,-1,130
 235 286 235 286 237 235.5 c 128,-1,131
 239 185 239 185 241.5 149.5 c 128,-1,132
 244 114 244 114 247 109 c 0,0,1
EndSplineSet
Validated: 1
EndChar

StartChar: O
Encoding: 79 79 17
Width: 637
Flags: W
HStem: -1 84<264.862 394.215> 656 96<251.705 393.041>
VStem: 51 98<248.319 514.043> 489 98<225.876 535.421>
LayerCount: 2
Fore
SplineSet
334 752 m 0,0,1
 421 752 421 752 475 708.5 c 128,-1,2
 529 665 529 665 556 596 c 0,3,4
 583 528 583 528 586 442 c 0,5,6
 587 427 587 427 587 411 c 0,7,8
 587 341 587 341 575 272 c 0,9,10
 552 140 552 140 490.5 69.5 c 128,-1,11
 429 -1 429 -1 335 -1 c 0,12,13
 282 0 282 0 232 21 c 128,-1,14
 182 42 182 42 142.5 82.5 c 128,-1,15
 103 123 103 123 78.5 181 c 128,-1,16
 54 239 54 239 52 313 c 0,17,18
 51 336 51 336 51 358 c 0,19,20
 52 422 52 422 58 480 c 0,21,22
 66 560 66 560 97 620 c 128,-1,23
 128 680 128 680 184.5 716 c 128,-1,24
 241 752 241 752 334 752 c 0,0,1
328 655 m 0,25,26
 322 656 322 656 316 656 c 0,27,28
 280 656 280 656 252 635 c 0,29,30
 218 611 218 611 195 570 c 128,-1,31
 172 529 172 529 160 476 c 0,32,33
 149 427 149 427 149 376 c 0,34,35
 149 372 149 372 149 368 c 0,36,37
 152 315 152 315 166 264 c 128,-1,38
 180 213 180 213 204 172.5 c 128,-1,39
 228 132 228 132 260.5 107.5 c 128,-1,40
 293 83 293 83 332 83 c 0,41,42
 369 83 369 83 397 106 c 128,-1,43
 425 129 425 129 444.5 167 c 128,-1,44
 464 205 464 205 475 254 c 128,-1,45
 486 303 486 303 489 355 c 0,46,47
 489 363 489 363 489 372 c 0,48,49
 488 416 488 416 484 460 c 0,50,51
 478 512 478 512 460.5 553.5 c 128,-1,52
 443 595 443 595 411 622 c 128,-1,53
 379 649 379 649 328 655 c 0,25,26
EndSplineSet
Validated: 1
EndChar

StartChar: P
Encoding: 80 80 18
Width: 606
Flags: W
HStem: 0 82<61.8926 139.996> 186 70<229 375.625> 643 105<219.215 356.793>
VStem: 134 88<258.439 644> 139.5 89.5<68.3712 187 257 351.923> 474 81<359.516 545.393>
LayerCount: 2
Fore
SplineSet
140 67 m 0,0,1
 140 121 140 121 139.5 160 c 128,-1,2
 139 199 139 199 138 230 c 128,-1,3
 137 261 137 261 136 288 c 128,-1,4
 135 315 135 315 134 346 c 0,5,6
 133 369 133 369 133 393 c 0,7,8
 134 406 134 406 134 418 c 0,9,10
 134 454 134 454 134 494.5 c 128,-1,11
 134 535 134 535 133.5 581 c 128,-1,12
 133 627 133 627 132 680 c 0,13,14
 132 687 132 687 126.5 682.5 c 128,-1,15
 121 678 121 678 113.5 674.5 c 128,-1,16
 106 671 106 671 98 674.5 c 128,-1,17
 90 678 90 678 85 701 c 0,18,19
 82 712 82 712 86 721 c 128,-1,20
 90 730 90 730 98.5 737 c 128,-1,21
 107 744 107 744 118 748 c 128,-1,22
 129 752 129 752 140 754 c 0,23,24
 152 756 152 756 163 752.5 c 128,-1,25
 174 749 174 749 184 743 c 1,26,27
 192 744 192 744 223 746 c 0,28,29
 237 747 237 747 253 748 c 0,30,31
 274 748 274 748 296 746 c 0,32,33
 338 743 338 743 383.5 731.5 c 128,-1,34
 429 720 429 720 467.5 692 c 128,-1,35
 506 664 506 664 530.5 617.5 c 128,-1,36
 555 571 555 571 555 498 c 0,37,38
 554 421 554 421 536 367.5 c 128,-1,39
 518 314 518 314 489 279 c 128,-1,40
 460 244 460 244 424 224.5 c 128,-1,41
 388 205 388 205 352 196 c 128,-1,42
 316 187 316 187 284 186 c 0,43,44
 273 186 273 186 263 186 c 0,45,46
 244 186 244 186 229 187 c 1,47,48
 231 136 231 136 233 103 c 128,-1,49
 235 70 235 70 237 67 c 0,50,51
 242 59 242 59 253.5 60 c 128,-1,52
 265 61 265 61 276.5 65 c 128,-1,53
 288 69 288 69 297 72 c 128,-1,54
 306 75 306 75 306 71 c 0,55,56
 307 59 307 59 311.5 46 c 128,-1,57
 316 33 316 33 319 23 c 128,-1,58
 322 13 322 13 322 6.5 c 128,-1,59
 322 0 322 0 314 0 c 2,60,-1
 87 0 l 2,61,62
 77 0 77 0 71.5 5 c 128,-1,63
 66 10 66 10 63 18.5 c 128,-1,64
 60 27 60 27 57.5 39.5 c 128,-1,65
 55 52 55 52 51 67 c 0,66,67
 48 82 48 82 62 82 c 128,-1,68
 76 82 76 82 93 76.5 c 128,-1,69
 110 71 110 71 125 66 c 128,-1,70
 140 61 140 61 140 67 c 0,0,1
219 644 m 2,71,-1
 219 643 l 2,72,73
 219 602 219 602 220 554 c 128,-1,74
 221 506 221 506 222 455 c 128,-1,75
 223 404 223 404 224 353.5 c 128,-1,76
 225 303 225 303 227 257 c 0,77,78
 228 258 228 258 249 256 c 0,79,80
 255 256 255 256 262 255 c 0,81,82
 279 256 279 256 300 258 c 0,83,84
 330 262 330 262 363.5 273 c 128,-1,85
 397 284 397 284 423.5 310 c 128,-1,86
 450 336 450 336 464 379 c 0,87,88
 473 407 473 407 474 444 c 0,89,90
 474 465 474 465 471 488 c 0,91,92
 465 530 465 530 444.5 557.5 c 128,-1,93
 424 585 424 585 396 602 c 128,-1,94
 368 619 368 619 337.5 627.5 c 128,-1,95
 307 636 307 636 280.5 639.5 c 128,-1,96
 254 643 254 643 237 643 c 128,-1,97
 220 643 220 643 219 644 c 2,71,-1
EndSplineSet
Validated: 1
EndChar

StartChar: Q
Encoding: 81 81 19
Width: 744
Flags: W
HStem: 0 84<263.027 392.902> 656 96<248.97 391.713>
VStem: 51 98<248.331 514.043> 422 2<285 285.997> 455.5 82<-31.9165 34> 489 97.5<324.496 534.841>
LayerCount: 2
Fore
SplineSet
333 752 m 0,0,1
 420 752 420 752 474 708 c 0,2,3
 527 665 527 665 555 596 c 0,4,5
 586 520 586 520 586 442 c 0,6,7
 586 434 586 434 586 425 c 128,-1,8
 586 416 586 416 586 407 c 0,9,10
 586 339 586 339 575 272 c 0,11,12
 568 232 568 232 557 197.5 c 128,-1,13
 546 163 546 163 532 134 c 1,14,15
 534 88 534 88 537.5 45.5 c 128,-1,16
 541 3 541 3 556 -26 c 0,17,18
 572 -58 572 -58 595 -80.5 c 128,-1,19
 618 -103 618 -103 639.5 -116.5 c 128,-1,20
 661 -130 661 -130 676.5 -136 c 128,-1,21
 692 -142 692 -142 693 -142 c 256,22,23
 694 -142 694 -142 680 -145 c 128,-1,24
 666 -148 666 -148 645 -150 c 0,25,26
 629 -151 629 -151 612 -151 c 0,27,28
 606 -150 606 -150 600 -150 c 0,29,30
 576 -150 576 -150 558 -142 c 0,31,32
 535 -133 535 -133 520 -123.5 c 128,-1,33
 505 -114 505 -114 494 -100 c 128,-1,34
 483 -86 483 -86 474.5 -65 c 128,-1,35
 466 -44 466 -44 457 -11 c 0,36,37
 457 -9 457 -9 455.5 3.5 c 128,-1,38
 454 16 454 16 452 34 c 1,39,40
 402 0 402 0 343 -0 c 0,41,42
 338 0 338 0 333 0 c 0,43,44
 279 1 279 1 229.5 22 c 128,-1,45
 180 43 180 43 141 83 c 128,-1,46
 102 123 102 123 78 181 c 128,-1,47
 54 239 54 239 52 313 c 0,48,49
 51 336 51 336 51 358 c 0,50,51
 52 422 52 422 58 480 c 0,52,53
 66 560 66 560 96 620 c 128,-1,54
 126 680 126 680 183 716 c 128,-1,55
 240 752 240 752 333 752 c 0,0,1
424 286 m 1,56,57
 422 285 422 285 428.5 291 c 128,-1,58
 435 297 435 297 446 306 c 128,-1,59
 457 315 457 315 468.5 324 c 128,-1,60
 480 333 480 333 488 338 c 0,61,62
 488 342 488 342 488 346 c 128,-1,63
 488 350 488 350 489 355 c 0,64,65
 489 363 489 363 489 370 c 0,66,67
 489 416 489 416 484 460 c 0,68,69
 478 512 478 512 460 553.5 c 128,-1,70
 442 595 442 595 409.5 622 c 128,-1,71
 377 649 377 649 327 655 c 0,72,73
 321 656 321 656 315 656 c 0,74,75
 278 656 278 656 250 635 c 0,76,77
 216 611 216 611 194 570 c 128,-1,78
 172 529 172 529 160 476 c 0,79,80
 149 427 149 427 149 376 c 0,81,82
 149 372 149 372 149 368 c 0,83,84
 152 315 152 315 166 264 c 128,-1,85
 180 213 180 213 203.5 173 c 128,-1,86
 227 133 227 133 259 108.5 c 128,-1,87
 291 84 291 84 330 84 c 0,88,89
 363 84 363 84 389 102.5 c 128,-1,90
 415 121 415 121 435 153 c 1,91,92
 432 178 432 178 429 202 c 128,-1,93
 426 226 426 226 424 244.5 c 128,-1,94
 422 263 422 263 422 274.5 c 128,-1,95
 422 286 422 286 424 286 c 1,56,57
EndSplineSet
Validated: 1
EndChar

StartChar: R
Encoding: 82 82 20
Width: 658
Flags: W
HStem: 0 82<66.642 139.996> 186 70<229 376.137> 645 103<221.035 356.161>
VStem: 134 88<258.439 645.972> 453 76<-23.16 159.84> 474 81<360.043 545.867>
LayerCount: 2
Fore
SplineSet
140 67 m 0,0,1
 140 121 140 121 139.5 160 c 128,-1,2
 139 199 139 199 138 230 c 128,-1,3
 137 261 137 261 136 288 c 128,-1,4
 135 315 135 315 134 346 c 0,5,6
 133 369 133 369 133 393 c 0,7,8
 134 406 134 406 134 418 c 0,9,10
 134 454 134 454 134 494.5 c 128,-1,11
 134 535 134 535 133.5 581 c 128,-1,12
 133 627 133 627 132 680 c 0,13,14
 132 687 132 687 126.5 682.5 c 128,-1,15
 121 678 121 678 113.5 674.5 c 128,-1,16
 106 671 106 671 98 674.5 c 128,-1,17
 90 678 90 678 85 701 c 0,18,19
 82 712 82 712 86 721 c 128,-1,20
 90 730 90 730 98.5 737 c 128,-1,21
 107 744 107 744 118 748 c 128,-1,22
 129 752 129 752 140 754 c 0,23,24
 152 756 152 756 163 752.5 c 128,-1,25
 174 749 174 749 184 743 c 1,26,27
 192 744 192 744 223 746 c 0,28,29
 237 747 237 747 253 748 c 0,30,31
 274 748 274 748 296 746 c 0,32,33
 338 743 338 743 383.5 731.5 c 128,-1,34
 429 720 429 720 467.5 692 c 128,-1,35
 506 664 506 664 530.5 617.5 c 128,-1,36
 555 571 555 571 555 498 c 0,37,38
 554 432 554 432 541 384.5 c 128,-1,39
 528 337 528 337 506 302 c 1,40,41
 521 269 521 269 524.5 224.5 c 128,-1,42
 528 180 528 180 529 134.5 c 128,-1,43
 530 89 530 89 533.5 46.5 c 128,-1,44
 537 4 537 4 552 -26 c 0,45,46
 568 -58 568 -58 591 -80.5 c 128,-1,47
 614 -103 614 -103 635.5 -116.5 c 128,-1,48
 657 -130 657 -130 672.5 -136 c 128,-1,49
 688 -142 688 -142 689 -142 c 256,50,51
 690 -142 690 -142 676 -145 c 128,-1,52
 662 -148 662 -148 641 -150 c 0,53,54
 625 -151 625 -151 608 -151 c 0,55,56
 602 -150 602 -150 596 -150 c 0,57,58
 572 -150 572 -150 554 -142 c 0,59,60
 531 -133 531 -133 516 -123.5 c 128,-1,61
 501 -114 501 -114 490 -100 c 128,-1,62
 479 -86 479 -86 470.5 -65 c 128,-1,63
 462 -44 462 -44 453 -11 c 0,64,65
 453 -8 453 -8 449.5 17.5 c 128,-1,66
 446 43 446 43 441.5 78 c 128,-1,67
 437 113 437 113 432 152.5 c 128,-1,68
 427 192 427 192 423 224 c 1,69,70
 397 209 397 209 369.5 201 c 128,-1,71
 342 193 342 193 316.5 189.5 c 128,-1,72
 291 186 291 186 268 186 c 128,-1,73
 245 186 245 186 229 187 c 1,74,75
 231 135 231 135 233 102.5 c 128,-1,76
 235 70 235 70 237 67 c 0,77,78
 242 59 242 59 253.5 60 c 128,-1,79
 265 61 265 61 276.5 65 c 128,-1,80
 288 69 288 69 297 72 c 128,-1,81
 306 75 306 75 306 71 c 0,82,83
 307 59 307 59 312 46 c 128,-1,84
 317 33 317 33 320 23 c 128,-1,85
 323 13 323 13 322.5 6.5 c 128,-1,86
 322 0 322 0 314 0 c 2,87,-1
 81 0 l 2,88,89
 71 0 71 0 66.5 5 c 128,-1,90
 62 10 62 10 60 18.5 c 128,-1,91
 58 27 58 27 56.5 39.5 c 128,-1,92
 55 52 55 52 51 67 c 0,93,94
 48 82 48 82 62 82 c 128,-1,95
 76 82 76 82 93 76.5 c 128,-1,96
 110 71 110 71 125 66 c 128,-1,97
 140 61 140 61 140 67 c 0,0,1
222 491 m 2,98,-1
 222 455 l 2,99,100
 224 404 224 404 225 353.5 c 128,-1,101
 226 303 226 303 227 257 c 0,102,103
 228 258 228 258 250 256 c 0,104,105
 256 256 256 256 263 255 c 0,106,107
 280 255 280 255 302 258 c 0,108,109
 332 262 332 262 365 273.5 c 128,-1,110
 398 285 398 285 424 311 c 0,111,112
 450 338 450 338 464 380 c 0,113,114
 473 407 473 407 474 444 c 0,115,116
 474 464 474 464 471 488 c 0,117,118
 465 530 465 530 445 557.5 c 128,-1,119
 425 585 425 585 397.5 602.5 c 128,-1,120
 370 620 370 620 339 629 c 128,-1,121
 308 638 308 638 282 641.5 c 128,-1,122
 256 645 256 645 239 645 c 128,-1,123
 222 645 222 645 221 646 c 0,124,125
 220 646 220 646 220 623 c 128,-1,126
 220 600 220 600 221 564 c 0,127,128
 221 547 221 547 221 529 c 128,-1,129
 221 511 221 511 222 491 c 2,98,-1
EndSplineSet
Validated: 1
EndChar

StartChar: S
Encoding: 83 83 21
Width: 541
Flags: W
HStem: 0 68<220.188 334.206> 689 62<218.835 331.358>
VStem: 91 69<525 632.068> 392 75<130.004 263.109>
LayerCount: 2
Fore
SplineSet
92 570 m 0,0,1
 91 579 91 579 91 588 c 0,2,3
 92 614 92 614 98 638 c 0,4,5
 106 672 106 672 129.5 698 c 128,-1,6
 153 724 153 724 193 738 c 0,7,8
 228 751 228 751 278 751 c 0,9,10
 285 751 285 751 292 751 c 0,11,12
 349 746 349 746 382 727 c 128,-1,13
 415 708 415 708 431.5 682.5 c 128,-1,14
 448 657 448 657 452.5 630 c 128,-1,15
 457 603 457 603 457 582 c 1,16,17
 457 583 457 583 462 579.5 c 128,-1,18
 467 576 467 576 474 571 c 256,19,20
 481 566 481 566 491 558 c 1,21,22
 474 558 474 558 453.5 550 c 128,-1,23
 433 542 433 542 415 539 c 0,24,25
 411 538 411 538 407 538 c 0,26,27
 394 538 394 538 383 546 c 0,28,29
 369 556 369 556 365 593 c 0,30,31
 363 606 363 606 358 622.5 c 128,-1,32
 353 639 353 639 343 653.5 c 128,-1,33
 333 668 333 668 318 678 c 128,-1,34
 303 688 303 688 281 689 c 0,35,36
 279 689 279 689 277 689 c 0,37,38
 254 688 254 688 236 678 c 0,39,40
 214 666 214 666 196 648 c 0,41,42
 178 631 178 631 168 609 c 0,43,44
 161 594 161 594 160 577 c 0,45,46
 160 572 160 572 161 568 c 0,47,48
 166 542 166 542 185.5 520.5 c 128,-1,49
 205 499 205 499 232 480 c 128,-1,50
 259 461 259 461 290.5 443 c 128,-1,51
 322 425 322 425 351 406 c 128,-1,52
 380 387 380 387 403 365 c 128,-1,53
 426 343 426 343 437 317 c 0,54,55
 444 298 444 298 452.5 267 c 128,-1,56
 461 236 461 236 465 201 c 0,57,58
 467 183 467 183 467 165.5 c 128,-1,59
 467 148 467 148 465 130 c 0,60,61
 461 94 461 94 444 65 c 128,-1,62
 427 36 427 36 394 18 c 128,-1,63
 361 0 361 0 307 0 c 0,64,65
 283 0 283 0 253 2.5 c 128,-1,66
 223 5 223 5 193 15 c 128,-1,67
 163 25 163 25 136 43.5 c 128,-1,68
 109 62 109 62 92 94 c 0,69,70
 85 107 85 107 86 120 c 128,-1,71
 87 133 87 133 90 145 c 128,-1,72
 93 157 93 157 94.5 168.5 c 128,-1,73
 96 180 96 180 92 192 c 1,74,75
 80 201 80 201 70 209 c 0,76,77
 62 216 62 216 55.5 222 c 128,-1,78
 49 228 49 228 51 230 c 0,79,80
 52 232 52 232 68 238.5 c 128,-1,81
 84 245 84 245 102.5 250.5 c 128,-1,82
 121 256 121 256 137.5 256 c 128,-1,83
 154 256 154 256 157 244 c 0,84,85
 158 238 158 238 160 222.5 c 128,-1,86
 162 207 162 207 168 187.5 c 128,-1,87
 174 168 174 168 182.5 146.5 c 128,-1,88
 191 125 191 125 204 108 c 0,89,90
 218 89 218 89 234 78 c 0,91,92
 249 68 249 68 267 68 c 0,93,94
 268 68 268 68 270 68 c 128,-1,95
 272 68 272 68 273 68 c 0,96,97
 306 69 306 69 332 88 c 128,-1,98
 358 107 358 107 373 134.5 c 128,-1,99
 388 162 388 162 392 192 c 0,100,101
 393 199 393 199 392 204 c 0,102,103
 392 226 392 226 383 243 c 0,104,105
 366 274 366 274 339.5 300 c 128,-1,106
 313 326 313 326 282 349.5 c 128,-1,107
 251 373 251 373 219 396 c 128,-1,108
 187 419 187 419 160 445 c 128,-1,109
 133 471 133 471 114.5 501.5 c 128,-1,110
 96 532 96 532 92 570 c 0,0,1
EndSplineSet
Validated: 1
EndChar

StartChar: T
Encoding: 84 84 22
Width: 707
Flags: W
HStem: 0 80<234.126 306.996> 732 20G<50 657>
VStem: 111 55<562.559 656.031> 302 96<66.6838 638.37> 543 59<558.937 653.624>
LayerCount: 2
Fore
SplineSet
307 65 m 0,0,1
 307 119 307 119 306.5 158 c 128,-1,2
 306 197 306 197 305.5 228 c 128,-1,3
 305 259 305 259 304 286 c 128,-1,4
 303 313 303 313 303 344 c 0,5,6
 302 379 302 379 302 415.5 c 128,-1,7
 302 452 302 452 302 492.5 c 128,-1,8
 302 533 302 533 302 579 c 128,-1,9
 302 625 302 625 301 678 c 1,10,11
 282 675 282 675 263 672 c 128,-1,12
 244 669 244 669 228 666 c 128,-1,13
 212 663 212 663 200.5 660 c 128,-1,14
 189 657 189 657 185 655 c 0,15,16
 167 644 167 644 166 629.5 c 128,-1,17
 165 615 165 615 171 599 c 128,-1,18
 177 583 177 583 185.5 567 c 128,-1,19
 194 551 194 551 197 538 c 0,20,21
 200 526 200 526 184 527 c 128,-1,22
 168 528 168 528 147.5 534 c 128,-1,23
 127 540 127 540 110 546 c 0,24,-1
 92 552 l 256,25,26
 96 562 l 0,27,28
 100 573 100 573 104 589 c 128,-1,29
 108 605 108 605 110 624 c 0,30,31
 111 634 111 634 111 640 c 0,32,33
 111 649 111 649 109 658 c 0,34,35
 105 673 105 673 95.5 689.5 c 128,-1,36
 86 706 86 706 76 720 c 0,37,38
 64 736 64 736 50 752 c 1,39,-1
 657 752 l 1,40,41
 645 736 645 736 634 720 c 0,42,43
 625 706 625 706 616.5 689.5 c 128,-1,44
 608 673 608 673 604 657 c 256,45,46
 602 647 602 647 602 636 c 0,47,48
 602 629 602 629 602 621 c 0,49,50
 604 601 604 601 608.5 584 c 128,-1,51
 613 567 613 567 617 556 c 0,52,53
 621 545 l 256,54,55
 602 538 l 0,56,57
 584 532 584 532 562 526 c 128,-1,58
 540 520 540 520 523.5 519.5 c 128,-1,59
 507 519 507 519 510 531 c 0,60,61
 513 545 513 545 522.5 561.5 c 128,-1,62
 532 578 532 578 538 594 c 0,63,64
 543 607 543 607 543 620 c 0,65,66
 542 622 542 622 542 626 c 0,67,68
 540 642 540 642 523 654 c 0,69,70
 516 658 516 658 495.5 664 c 128,-1,71
 475 670 475 670 450 676 c 1,72,73
 430 659 430 659 419 637 c 128,-1,74
 408 615 408 615 403 590.5 c 128,-1,75
 398 566 398 566 398 540 c 0,76,77
 398 531 398 531 397 523 c 0,78,79
 397 506 397 506 398 489 c 0,80,81
 399 414 399 414 399 340.5 c 128,-1,82
 399 267 399 267 399.5 207 c 128,-1,83
 400 147 400 147 401 108 c 128,-1,84
 402 69 402 69 405 65 c 0,85,86
 411 57 411 57 422.5 58 c 128,-1,87
 434 59 434 59 445.5 63 c 128,-1,88
 457 67 457 67 466 70 c 128,-1,89
 475 73 475 73 475 69 c 0,90,91
 476 57 476 57 480.5 44.5 c 128,-1,92
 485 32 485 32 488.5 22.5 c 128,-1,93
 492 13 492 13 492 6.5 c 128,-1,94
 492 0 492 0 485 0 c 0,95,96
 471 0 471 0 442.5 0 c 128,-1,97
 414 0 414 0 380 0 c 128,-1,98
 346 0 346 0 311 0 c 128,-1,99
 276 0 276 0 248 0 c 0,100,101
 238 0 238 0 234 4.5 c 128,-1,102
 230 9 230 9 228 17.5 c 128,-1,103
 226 26 226 26 225 38 c 128,-1,104
 224 50 224 50 220 65 c 0,105,106
 217 80 217 80 230 80 c 128,-1,107
 243 80 243 80 260 74.5 c 128,-1,108
 277 69 277 69 292 64 c 128,-1,109
 307 59 307 59 307 65 c 0,0,1
EndSplineSet
Validated: 1
EndChar

StartChar: U
Encoding: 85 85 23
Width: 621
Flags: W
HStem: 0 80<224.646 366.184> 682 4<230.05 242.175> 732 20G<428 536.5>
VStem: 55 106<161.141 553.73> 448 92<246.36 679.046>
LayerCount: 2
Fore
SplineSet
530 97 m 1,0,1
 572 57 572 57 572 46 c 2,2,3
 572 42 l 2,4,5
 572 32 572 32 560 0 c 1,6,-1
 436 0 l 2,7,8
 423 0 423 0 423 15 c 128,-1,9
 423 30 423 30 428 47 c 1,10,11
 401 32 401 32 361 16 c 128,-1,12
 321 0 321 0 254.5 0 c 128,-1,13
 188 0 188 0 145.5 37.5 c 128,-1,14
 103 75 103 75 80.5 136.5 c 128,-1,15
 58 198 58 198 56.5 251 c 128,-1,16
 55 304 55 304 55 324 c 2,17,-1
 55 366 l 1,18,19
 55 377 l 2,20,21
 55 394 55 394 60 442 c 0,22,23
 72 560 72 560 97 667 c 1,24,25
 79 656 79 656 72 657 c 0,26,27
 59 659 59 659 51 693 c 0,28,29
 50 698 50 698 50 701 c 0,30,31
 52 722 52 722 64 736 c 0,32,33
 84 759 84 759 103 759 c 128,-1,34
 122 759 122 759 134 750 c 128,-1,35
 146 741 146 741 158 727.5 c 128,-1,36
 170 714 170 714 179.5 701.5 c 128,-1,37
 189 689 189 689 197 685 c 1,38,39
 217 686 217 686 229 686 c 0,40,41
 263 686 263 686 247 682 c 0,42,43
 216 673 216 673 188 619 c 1,44,45
 186 576 186 576 179 520 c 0,46,47
 161 376 161 376 161 297 c 0,48,49
 161 292 161 292 161 287 c 0,50,51
 161 166 161 166 215 110 c 0,52,53
 244 80 244 80 293 80 c 0,54,55
 294 80 294 80 296 80 c 128,-1,56
 298 80 298 80 300 80 c 128,-1,57
 302 80 302 80 304 80 c 128,-1,58
 305.99137931 79.9224137931 305.99137931 79.9224137931 307.958011296 79.9224137931 c 0,59,60
 382.034482759 79.9224137931 382.034482759 79.9224137931 421 190 c 0,61,62
 448 266 448 266 448 385 c 2,63,-1
 448 422 l 1,64,65
 447 506 447 506 436.5 602 c 128,-1,66
 426 698 426 698 424 726 c 128,-1,67
 422 754 422 754 428 752 c 1,68,-1
 533 752 l 2,69,70
 540 752 540 752 540 502 c 128,-1,71
 540 252 540 252 530 102 c 1,72,-1
 530 97 l 1,0,1
EndSplineSet
Validated: 524289
EndChar

StartChar: V
Encoding: 86 86 24
Width: 636
Flags: W
HStem: 0 21G<457 480> 705 48<558.037 609> 712 41<90.4575 140.874 561.006 609>
VStem: 436 122<614.311 702.129>
LayerCount: 2
Fore
SplineSet
262 700 m 0,0,1
 257 695 257 695 257 677 c 0,2,3
 257 668 257 668 258 654 c 0,4,5
 262 616 262 616 271.5 561.5 c 128,-1,6
 281 507 281 507 295 444.5 c 128,-1,7
 309 382 309 382 321.5 326.5 c 128,-1,8
 334 271 334 271 343.5 231 c 128,-1,9
 353 191 353 191 355 181 c 1,10,11
 356 192 356 192 364.5 228.5 c 128,-1,12
 373 265 373 265 384 315 c 128,-1,13
 395 365 395 365 407 422.5 c 128,-1,14
 419 480 419 480 427 533 c 128,-1,15
 435 586 435 586 436 628 c 0,16,17
 436 632 436 632 436 635 c 0,18,19
 436 671 436 671 427 690 c 0,20,21
 424 697 424 697 412 708 c 128,-1,22
 400 719 400 719 389.5 729 c 128,-1,23
 379 739 379 739 375 746 c 128,-1,24
 371 753 371 753 384 753 c 2,25,-1
 609 753 l 1,26,-1
 615 743 l 2,27,28
 620 733 620 733 620 725 c 0,29,30
 619 716 619 716 609.5 712 c 128,-1,31
 600 708 600 708 588.5 705 c 128,-1,32
 577 702 577 702 567.5 697 c 128,-1,33
 558 692 558 692 558 682 c 0,34,35
 509 524 509 524 475 396 c 0,36,37
 460 341 460 341 447.5 286.5 c 128,-1,38
 435 232 435 232 427 187 c 128,-1,39
 419 142 419 142 417 110 c 0,40,41
 417 104 417 104 417 99 c 0,42,43
 417 77 417 77 423 69 c 0,44,45
 431 58 431 58 440.5 58 c 128,-1,46
 450 58 450 58 459 61 c 0,47,48
 470 65 470 65 480 73 c 1,49,50
 492 52 492 52 492 31 c 0,51,52
 492 6 492 6 468 0 c 1,53,54
 446 6 446 6 424 10 c 0,55,56
 405 14 405 14 383 17 c 0,57,58
 367 19 367 19 352 19 c 0,59,60
 347 19 347 19 343 19 c 0,61,62
 329 18 329 18 317.5 14 c 128,-1,63
 306 10 306 10 295.5 6 c 128,-1,64
 285 2 285 2 274.5 0.5 c 128,-1,65
 264 -1 264 -1 254 3 c 0,66,67
 247 7 247 7 242 13 c 0,68,69
 237 18 237 18 233.5 26.5 c 128,-1,70
 230 35 230 35 229 47 c 0,71,72
 228 63 228 63 236 66 c 128,-1,73
 244 69 244 69 254 68 c 128,-1,74
 264 67 264 67 272.5 65.5 c 128,-1,75
 281 64 281 64 281 71 c 0,76,77
 278 100 278 100 269 139.5 c 128,-1,78
 260 179 260 179 251 215 c 128,-1,79
 242 251 242 251 234.5 276 c 128,-1,80
 227 301 227 301 227 302 c 0,81,82
 216 350 216 350 208.5 383.5 c 128,-1,83
 201 417 201 417 196.5 440.5 c 128,-1,84
 192 464 192 464 189 480 c 128,-1,85
 186 496 186 496 183 510.5 c 128,-1,86
 180 525 180 525 177 539.5 c 128,-1,87
 174 554 174 554 170 574 c 0,88,89
 165 597 165 597 163.5 615.5 c 128,-1,90
 162 634 162 634 160 649.5 c 128,-1,91
 158 665 158 665 154 678.5 c 128,-1,92
 150 692 150 692 141 704 c 0,93,94
 137 709 137 709 129 708.5 c 128,-1,95
 121 708 121 708 112.5 704 c 128,-1,96
 104 700 104 700 96.5 695.5 c 128,-1,97
 89 691 89 691 86 688 c 0,98,99
 75 679 75 679 69 684 c 128,-1,100
 63 689 63 689 59.5 699.5 c 128,-1,101
 56 710 56 710 54 720.5 c 128,-1,102
 52 731 52 731 51 733 c 0,103,104
 50 734 50 734 52 737.5 c 128,-1,105
 54 741 54 741 60.5 744.5 c 128,-1,106
 67 748 67 748 78 750.5 c 128,-1,107
 89 753 89 753 106 753 c 2,108,-1
 336 753 l 2,109,110
 335 752 335 752 327.5 747.5 c 128,-1,111
 320 743 320 743 308.5 735.5 c 128,-1,112
 297 728 297 728 284.5 718.5 c 128,-1,113
 272 709 272 709 262 700 c 0,0,1
EndSplineSet
Validated: 1
EndChar

StartChar: W
Encoding: 87 87 25
Width: 696
Flags: W
HStem: -0 21G<228.5 239 427 437.5 584.5 585.5> 708 43<544.832 627.564> 751 0.5<52.0688 81.1313>
VStem: 124 58<232.092 593.311> 133 52<478.577 667.34> 276 92<599.688 642> 277 50<425.313 547> 468 58<234.297 684.801>
LayerCount: 2
Fore
SplineSet
532 634 m 0,0,1
 530 581 530 581 528.5 545.5 c 128,-1,2
 527 510 527 510 526 482 c 0,3,4
 526 468 526 468 526 454 c 128,-1,5
 526 440 526 440 526 426 c 0,6,7
 526 400 526 400 528 365.5 c 128,-1,8
 530 331 530 331 532.5 284.5 c 128,-1,9
 535 238 535 238 539 169 c 0,10,11
 540 135 540 135 547.5 104.5 c 128,-1,12
 555 74 555 74 563 51.5 c 128,-1,13
 571 29 571 29 578 15 c 128,-1,14
 585 1 585 1 586 0 c 1,15,16
 583 1 583 1 567 4.5 c 128,-1,17
 551 8 551 8 533 11.5 c 128,-1,18
 515 15 515 15 501 18 c 0,19,-1
 487 20 l 1,20,21
 481 7 481 7 463 3 c 0,22,23
 447 -1 447 -1 428 -1 c 0,24,25
 426 -0 426 -0 424 -0 c 0,26,27
 402 0 402 0 381.5 3 c 128,-1,28
 361 6 361 6 350 7 c 1,29,30
 358 9 358 9 367 16 c 128,-1,31
 376 23 376 23 384 31 c 0,32,33
 393 41 393 41 401 53 c 1,34,35
 400 61 400 61 394.5 99 c 128,-1,36
 389 137 389 137 381 190.5 c 128,-1,37
 373 244 373 244 363.5 304 c 128,-1,38
 354 364 354 364 346 416.5 c 128,-1,39
 338 469 338 469 333 505.5 c 128,-1,40
 328 542 328 542 327 547 c 1,41,42
 327 544 327 544 323.5 521 c 128,-1,43
 320 498 320 498 314 461 c 128,-1,44
 308 424 308 424 300 376.5 c 128,-1,45
 292 329 292 329 283.5 277.5 c 128,-1,46
 275 226 275 226 265.5 174 c 128,-1,47
 256 122 256 122 248 76 c 0,48,49
 246 65 246 65 247.5 52.5 c 128,-1,50
 249 40 249 40 251 29 c 0,51,52
 254 16 254 16 258 2 c 1,53,54
 245 0 245 0 233 -0 c 0,55,56
 224 0 224 0 215 1 c 0,57,58
 198 3 198 3 180 10.5 c 128,-1,59
 162 18 162 18 152 38 c 1,60,61
 127 17 127 17 109.5 9.5 c 128,-1,62
 92 2 92 2 81 0 c 0,63,64
 68 -2 68 -2 60 4 c 1,65,66
 75 27 75 27 87 53 c 0,67,68
 98 76 98 76 106.5 104.5 c 128,-1,69
 115 133 115 133 117 163 c 0,70,71
 120 253 120 253 124 335 c 0,72,73
 125 370 125 370 126.5 406.5 c 128,-1,74
 128 443 128 443 129.5 477.5 c 128,-1,75
 131 512 131 512 132 542 c 128,-1,76
 133 572 133 572 133 594 c 0,77,78
 127 635 127 635 112 665.5 c 128,-1,79
 97 696 97 696 82 715.5 c 128,-1,80
 67 735 67 735 57 744 c 128,-1,81
 47 753 47 753 52 751 c 0,82,83
 54 751 54 751 82 751.5 c 128,-1,84
 110 752 110 752 145 752 c 2,85,-1
 236 752 l 1,86,87
 232 738 232 738 227 724 c 0,88,89
 222 712 222 712 216 698 c 128,-1,90
 210 684 210 684 201 673 c 0,91,92
 197 667 197 667 193.5 645 c 128,-1,93
 190 623 190 623 188 590.5 c 128,-1,94
 186 558 186 558 185 519 c 128,-1,95
 184 480 184 480 183.5 440 c 128,-1,96
 183 400 183 400 182 362 c 0,97,98
 182 343 182 343 182 326.5 c 128,-1,99
 182 310 182 310 182 295 c 0,100,101
 182 266 182 266 183 248 c 0,102,-1
 184 231 l 2,103,104
 185 232 185 232 201.5 266 c 128,-1,105
 218 300 218 300 236.5 357 c 128,-1,106
 255 414 255 414 268 488 c 0,107,108
 277 541 277 541 277 599 c 0,109,110
 277 621 277 621 276 643 c 0,111,112
 276 644 276 644 290.5 644 c 128,-1,113
 305 644 305 644 322 643.5 c 128,-1,114
 339 643 339 643 354 642 c 0,115,-1
 368 642 l 1,116,117
 371 592 371 592 378.5 542 c 128,-1,118
 386 492 386 492 396 446.5 c 128,-1,119
 406 401 406 401 417.5 362 c 128,-1,120
 429 323 429 323 438 294.5 c 128,-1,121
 447 266 447 266 453.5 250 c 128,-1,122
 460 234 460 234 461 234 c 2,123,124
 462 253 l 0,125,126
 463 272 463 272 464.5 302.5 c 128,-1,127
 466 333 466 333 467 372.5 c 128,-1,128
 468 412 468 412 468 453 c 0,129,130
 468 473 468 473 468 494 c 0,131,132
 468 514 468 514 468 534 c 0,133,134
 468 574 468 574 466 606 c 128,-1,135
 464 638 464 638 460 659 c 128,-1,136
 456 680 456 680 450 683 c 0,137,138
 438 689 438 689 431 700.5 c 128,-1,139
 424 712 424 712 420.5 723 c 128,-1,140
 417 734 417 734 416 743 c 0,141,-1
 414 752 l 1,142,143
 448 751 448 751 482 751 c 2,144,-1
 610 751 l 2,145,146
 620 751 620 751 629 742 c 128,-1,147
 638 733 638 733 642.5 720 c 128,-1,148
 647 707 647 707 645.5 694 c 128,-1,149
 644 681 644 681 634 673 c 1,150,151
 635 677 635 677 630.5 683 c 128,-1,152
 626 689 626 689 618.5 695 c 128,-1,153
 611 701 611 701 601.5 705 c 128,-1,154
 592 709 592 709 583 708 c 0,155,156
 555 704 555 704 544.5 687 c 128,-1,157
 534 670 534 670 532 634 c 0,0,1
EndSplineSet
Validated: 1
EndChar

StartChar: X
Encoding: 88 88 26
Width: 672
Flags: W
HStem: 0.5 79.4583<532.566 593.936> 732 20G<465.639 584>
VStem: 395 199<9.88428 79.4974>
LayerCount: 2
Fore
SplineSet
584 752 m 1,0,-1
 362 365 l 1,1,2
 394 310 394 310 426 258 c 0,3,4
 434 246 434 246 486 166 c 0,5,6
 511 128 511 128 532 102 c 0,7,8
 550 80 550 80 556 80 c 0,9,10
 557 80 557 80 557 80 c 0,11,-1
 558 80 l 0,12,13
 576 83 576 83 584 84 c 128,-1,14
 592 85 592 85 594 84 c 128,-1,15
 596 83 596 83 595 79.5 c 128,-1,16
 594 76 594 76 594 69 c 0,17,18
 595 48 595 48 601 34.5 c 128,-1,19
 607 21 607 21 613 13.5 c 128,-1,20
 619 6 619 6 621 3 c 128,-1,21
 623 0 623 0 616 0 c 0,22,23
 603 0 603 0 576.5 0 c 128,-1,24
 550 0 550 0 518 0 c 128,-1,25
 486 0 486 0 453 0.5 c 128,-1,26
 420 1 420 1 395 1 c 0,27,28
 386 1 386 1 386 4 c 128,-1,29
 386 7 386 7 388 16 c 0,30,31
 392 24 392 24 394 39 c 0,32,33
 395 46 395 46 395 55 c 0,34,35
 395 66 395 66 393 79 c 0,36,37
 391 95 391 95 394.5 100.5 c 128,-1,38
 398 106 398 106 405 105 c 128,-1,39
 412 104 412 104 420 98.5 c 128,-1,40
 428 93 428 93 435 88 c 128,-1,41
 442 83 442 83 446 81 c 128,-1,42
 450 79 450 79 448 84 c 0,43,44
 423 136 423 136 392 191 c 128,-1,45
 361 246 361 246 326 302 c 1,46,-1
 153 0 l 1,47,-1
 52 1 l 1,48,-1
 271 388 l 1,49,50
 219 469 219 469 172.5 538.5 c 128,-1,51
 126 608 126 608 97 657 c 0,52,53
 96 664 96 664 93.5 662.5 c 128,-1,54
 91 661 91 661 87 656.5 c 128,-1,55
 83 652 83 652 78 647.5 c 128,-1,56
 73 643 73 643 68 644.5 c 128,-1,57
 63 646 63 646 58.5 656 c 128,-1,58
 54 666 54 666 51 691 c 0,59,60
 48 709 48 709 54 719.5 c 128,-1,61
 60 730 60 730 70 736 c 128,-1,62
 80 742 80 742 92.5 744.5 c 128,-1,63
 105 747 105 747 115 750 c 0,64,65
 132 754 132 754 140.5 747 c 128,-1,66
 149 740 149 740 154 729.5 c 128,-1,67
 159 719 159 719 163 708 c 128,-1,68
 167 697 167 697 174 692 c 1,69,70
 194 695 194 695 207 696 c 0,71,72
 218 697 218 697 225.5 695.5 c 128,-1,73
 233 694 233 694 226 688 c 0,74,75
 219 681 219 681 223 660 c 128,-1,76
 227 639 227 639 239 608 c 128,-1,77
 251 577 251 577 269 538.5 c 128,-1,78
 287 500 287 500 310 458 c 1,79,-1
 477 752 l 1,80,-1
 584 752 l 1,0,-1
EndSplineSet
Validated: 1
EndChar

StartChar: Y
Encoding: 89 89 27
Width: 681
Flags: W
HStem: 0 55.5<199.643 304.998> 732 20G<116.5 355 399 631>
VStem: 300 107<58.9692 339.504>
LayerCount: 2
Fore
SplineSet
427 685 m 0,0,1
 424 692 424 692 415 703.5 c 128,-1,2
 406 715 406 715 399.5 726 c 128,-1,3
 393 737 393 737 392.5 744.5 c 128,-1,4
 392 752 392 752 406 752 c 2,5,-1
 631 752 l 1,6,7
 629 745 629 745 626 740 c 0,8,9
 624 735 624 735 622 730 c 128,-1,10
 620 725 620 725 620 720 c 0,11,12
 619 711 619 711 610.5 706.5 c 128,-1,13
 602 702 602 702 591 698.5 c 128,-1,14
 580 695 580 695 570.5 690.5 c 128,-1,15
 561 686 561 686 558 677 c 0,16,17
 520 585 520 585 489 506 c 0,18,19
 475 472 475 472 462 438 c 128,-1,20
 449 404 449 404 438 373.5 c 128,-1,21
 427 343 427 343 418.5 319.5 c 128,-1,22
 410 296 410 296 407 283 c 0,23,24
 408 249 408 249 409 211.5 c 128,-1,25
 410 174 410 174 411.5 141.5 c 128,-1,26
 413 109 413 109 415.5 85.5 c 128,-1,27
 418 62 418 62 422 58 c 0,28,29
 429 50 429 50 444.5 51 c 128,-1,30
 460 52 460 52 476.5 56 c 128,-1,31
 493 60 493 60 505.5 63 c 128,-1,32
 518 66 518 66 519 62 c 0,33,34
 520 50 520 50 526 38.5 c 128,-1,35
 532 27 532 27 536 19 c 128,-1,36
 540 11 540 11 540 5.5 c 128,-1,37
 540 0 540 0 529 0 c 0,38,39
 511 0 511 0 474.5 0 c 128,-1,40
 438 0 438 0 394 0 c 128,-1,41
 350 0 350 0 303.5 0 c 128,-1,42
 257 0 257 0 218 0 c 0,43,44
 204 0 204 0 199.5 3.5 c 128,-1,45
 195 7 195 7 194 14 c 128,-1,46
 193 21 193 21 193 32 c 128,-1,47
 193 43 193 43 188 58 c 0,48,49
 184 68 184 68 191.5 71 c 128,-1,50
 199 74 199 74 212 72 c 128,-1,51
 225 70 225 70 241 67 c 128,-1,52
 257 64 257 64 271.5 60.5 c 128,-1,53
 286 57 286 57 295.5 55.5 c 128,-1,54
 305 54 305 54 305 58 c 0,55,56
 305 112 305 112 304.5 142 c 128,-1,57
 304 172 304 172 303.5 192.5 c 128,-1,58
 303 213 303 213 302 231.5 c 128,-1,59
 301 250 301 250 300 281 c 2,60,-1
 300 282 l 1,61,62
 271 360 271 360 251 415.5 c 128,-1,63
 231 471 231 471 214.5 516.5 c 128,-1,64
 198 562 198 562 181 604.5 c 128,-1,65
 164 647 164 647 141 699 c 0,66,67
 139 705 139 705 131.5 704 c 128,-1,68
 124 703 124 703 115 699 c 128,-1,69
 106 695 106 695 97.5 690.5 c 128,-1,70
 89 686 89 686 86 683 c 0,71,72
 75 674 75 674 69 679 c 128,-1,73
 63 684 63 684 59.5 694.5 c 128,-1,74
 56 705 56 705 54 715.5 c 128,-1,75
 52 726 52 726 51 728 c 0,76,77
 50 729 50 729 55.5 733 c 128,-1,78
 61 737 61 737 71 741.5 c 128,-1,79
 81 746 81 746 94.5 749 c 128,-1,80
 108 752 108 752 125 752 c 2,81,-1
 355 752 l 2,82,83
 353 751 353 751 341.5 745.5 c 128,-1,84
 330 740 330 740 316 731.5 c 128,-1,85
 302 723 302 723 287 713.5 c 128,-1,86
 272 704 272 704 262 695 c 0,87,88
 257 690 257 690 257 678 c 0,89,90
 257 672 257 672 258 664 c 0,91,92
 262 640 262 640 271.5 607 c 128,-1,93
 281 574 281 574 295 537 c 128,-1,94
 309 500 309 500 321.5 467 c 128,-1,95
 334 434 334 434 344 409.5 c 128,-1,96
 354 385 354 385 355 378 c 1,97,98
 356 388 356 388 364.5 409 c 128,-1,99
 373 430 373 430 384 457.5 c 128,-1,100
 395 485 395 485 407 516.5 c 128,-1,101
 419 548 419 548 427 579 c 0,102,103
 436 614 436 614 436 642 c 0,104,105
 436 667 436 667 427 685 c 0,0,1
EndSplineSet
Validated: 1
EndChar

StartChar: Z
Encoding: 90 90 28
Width: 590
Flags: W
HStem: 0 56.6667<165.315 389.676> 332 56<134 202 323 404.667> 680 72<208.222 359.684>
VStem: 139 51<566.939 662.624> 414 60<80.3438 195.663>
LayerCount: 2
Fore
SplineSet
426 337 m 1,0,-1
 296 334 l 1,1,-1
 165 60 l 1,2,3
 175 58 175 58 195 58 c 0,4,5
 200 58 200 58 205 57 c 0,6,7
 210 57 210 57 215 57 c 0,8,9
 222 56 222 56 238 58 c 0,10,11
 262 60 262 60 287.5 62.5 c 128,-1,12
 313 65 313 65 334.5 67.5 c 128,-1,13
 356 70 356 70 372 73.5 c 128,-1,14
 388 77 388 77 392 80 c 0,15,16
 411 92 411 92 413 111 c 0,17,18
 414 116 414 116 414 121 c 0,19,20
 414 136 414 136 409 151 c 0,21,22
 403 172 403 172 393.5 192.5 c 128,-1,23
 384 213 384 213 380 227 c 0,24,25
 378 235 378 235 386 237 c 128,-1,26
 394 239 394 239 406.5 237.5 c 128,-1,27
 419 236 419 236 434.5 231.5 c 128,-1,28
 450 227 450 227 463 223 c 128,-1,29
 476 219 476 219 483.5 216.5 c 128,-1,30
 491 214 491 214 494 213 c 256,31,-1
 490 202 l 0,32,33
 486 191 486 191 482 173.5 c 128,-1,34
 478 156 478 156 476 136 c 0,35,36
 475 127 475 127 474 119 c 0,37,38
 474 109 474 109 476 100 c 0,39,40
 480 83 480 83 490.5 66 c 128,-1,41
 501 49 501 49 512 34 c 0,42,43
 525 16 525 16 540 0 c 1,44,-1
 50 0 l 1,45,-1
 202 332 l 1,46,-1
 130 331 l 1,47,-1
 134 386 l 1,48,-1
 228 388 l 1,49,-1
 360 676 l 1,50,51
 350 680 350 680 327.5 680 c 128,-1,52
 305 680 305 680 281 677.5 c 128,-1,53
 257 675 257 675 236 671 c 128,-1,54
 215 667 215 667 208 663 c 0,55,56
 190 651 190 651 190 634 c 128,-1,57
 190 617 190 617 197.5 598 c 128,-1,58
 205 579 205 579 215.5 560.5 c 128,-1,59
 226 542 226 542 230 529 c 0,60,61
 233 517 233 517 216 517.5 c 128,-1,62
 199 518 199 518 178 524 c 128,-1,63
 157 530 157 530 138 536 c 0,64,-1
 120 543 l 256,65,-1
 124 554 l 0,66,67
 128 565 128 565 132 582 c 0,68,69
 136 598 136 598 138 618 c 0,70,71
 139 626 139 626 139 633 c 0,72,73
 139 644 139 644 137 654 c 0,74,75
 133 669 133 669 123 686.5 c 128,-1,76
 113 704 113 704 102 718 c 0,77,78
 89 735 89 735 74 752 c 1,79,-1
 494 752 l 1,80,-1
 323 391 l 1,81,-1
 421 394 l 1,82,-1
 426 337 l 1,0,-1
EndSplineSet
Validated: 1
EndChar

StartChar: underscore
Encoding: 95 95 29
Width: 866
Flags: W
HStem: -226 55<54 810>
LayerCount: 2
Fore
SplineSet
816 -224 m 1,0,-1
 50 -226 l 1,1,-1
 54 -171 l 1,2,-1
 810 -167 l 1,3,-1
 816 -224 l 1,0,-1
EndSplineSet
Validated: 1
EndChar

StartChar: grave
Encoding: 96 96 30
Width: 321
Flags: W
HStem: 538 127.2<73.0449 196.592>
VStem: 202 67<465.836 553.282>
LayerCount: 2
Fore
SplineSet
197 554 m 1,0,1
 184 550 184 550 164 544 c 0,2,3
 146 538 146 538 127 538 c 0,4,5
 126 538 126 538 124 538 c 0,6,7
 104 538 104 538 84.5 549.5 c 128,-1,8
 65 561 65 561 53 591 c 0,9,10
 50 601 50 601 53.5 613.5 c 128,-1,11
 57 626 57 626 66.5 637 c 128,-1,12
 76 648 76 648 90 656 c 0,13,14
 107 664 107 664 123 664 c 0,15,16
 127 664 127 664 131 665 c 0,17,18
 134 665 134 665 138 665 c 0,19,20
 150 666 150 666 164 662 c 0,21,22
 189 655 189 655 204 648 c 0,23,24
 223 637 223 637 235.5 624 c 128,-1,25
 248 611 248 611 252 596 c 0,26,27
 269 525 269 525 269 490 c 0,28,29
 269 486 269 486 269 484 c 0,30,31
 267 459 267 459 250 458 c 0,32,33
 244 458 244 458 236 461 c 0,34,35
 207 471 207 471 202 481.5 c 128,-1,36
 197 492 197 492 200 503.5 c 128,-1,37
 203 515 203 515 206.5 527.5 c 128,-1,38
 210 540 210 540 197 554 c 1,0,1
EndSplineSet
Validated: 1
EndChar

StartChar: a
Encoding: 97 97 31
Width: 522
Flags: W
HStem: 4 56<167.844 283.304> 363 57<175.992 313.998>
VStem: 50 98<93.1723 148.682> 337 67<245.492 298.996 299 339.712>
LayerCount: 2
Fore
SplineSet
191 4 m 0,0,1
 143 4 143 4 108.5 30.5 c 128,-1,2
 74 57 74 57 55 92 c 0,3,4
 50 102 50 102 50 112 c 0,5,6
 50 125 50 125 59 137 c 0,7,8
 75 158 75 158 106 175 c 128,-1,9
 137 192 137 192 176.5 206 c 128,-1,10
 216 220 216 220 251.5 229.5 c 128,-1,11
 287 239 287 239 311 244.5 c 128,-1,12
 335 250 335 250 336 251 c 0,13,14
 336 252 336 252 337 266 c 0,15,16
 337 269 337 269 337 272 c 0,17,18
 337 284 337 284 334 299 c 0,19,20
 330 317 330 317 319 334.5 c 128,-1,21
 308 352 308 352 285 359 c 0,22,23
 272 363 272 363 259 363 c 0,24,25
 252 363 252 363 244 362 c 0,26,27
 222 359 222 359 201 351.5 c 128,-1,28
 180 344 180 344 160 333 c 128,-1,29
 140 322 140 322 124.5 312.5 c 128,-1,30
 109 303 109 303 99.5 296.5 c 128,-1,31
 90 290 90 290 90 291 c 256,32,33
 90 292 90 292 82.5 298 c 128,-1,34
 75 304 75 304 69.5 313 c 128,-1,35
 64 322 64 322 64.5 334 c 128,-1,36
 65 346 65 346 82 359.5 c 128,-1,37
 99 373 99 373 137 387 c 128,-1,38
 175 401 175 401 243 415 c 0,39,40
 269 420 269 420 290 420 c 0,41,42
 302 420 302 420 314 418 c 0,43,44
 342 413 342 413 360.5 400 c 128,-1,45
 379 387 379 387 388 369.5 c 128,-1,46
 397 352 397 352 400.5 336.5 c 128,-1,47
 404 321 404 321 404 310 c 0,48,-1
 404 299 l 2,49,50
 403 299 403 299 403.5 283.5 c 128,-1,51
 404 268 404 268 404 244 c 128,-1,52
 404 220 404 220 404.5 192.5 c 128,-1,53
 405 165 405 165 405.5 140.5 c 128,-1,54
 406 116 406 116 407 99 c 128,-1,55
 408 82 408 82 407 80 c 0,56,57
 411 77 411 77 421.5 71.5 c 128,-1,58
 432 66 432 66 442.5 59.5 c 128,-1,59
 453 53 453 53 462 45.5 c 128,-1,60
 471 38 471 38 472 32 c 0,61,62
 472 28 472 28 471 24 c 128,-1,63
 470 20 470 20 469 15 c 0,64,65
 467 10 467 10 466 4 c 1,66,-1
 363 4 l 2,67,68
 354 4 354 4 352 11 c 128,-1,69
 350 18 350 18 351.5 27.5 c 128,-1,70
 353 37 353 37 357 47 c 128,-1,71
 361 57 361 57 364 62 c 1,72,73
 354 57 354 57 333.5 47 c 128,-1,74
 313 37 313 37 288 27.5 c 128,-1,75
 263 18 263 18 237 11 c 128,-1,76
 211 4 211 4 191 4 c 0,0,1
341 194 m 256,77,78
 340 194 340 194 326 193 c 128,-1,79
 312 192 312 192 289.5 188.5 c 128,-1,80
 267 185 267 185 241 178.5 c 128,-1,81
 215 172 215 172 193.5 162.5 c 128,-1,82
 172 153 172 153 159 139 c 0,83,84
 148 128 148 128 148 113 c 0,85,86
 148 110 148 110 149 106 c 1,87,88
 164 80 164 80 184 70 c 0,89,90
 203 61 203 61 224 60 c 0,91,92
 225 60 225 60 226 60 c 0,93,94
 248 60 248 60 269.5 68.5 c 128,-1,95
 291 77 291 77 308.5 87 c 128,-1,96
 326 97 326 97 336.5 105 c 128,-1,97
 347 113 347 113 347 114 c 256,98,99
 347 115 347 115 346 127.5 c 128,-1,100
 345 140 345 140 343.5 155 c 128,-1,101
 342 170 342 170 342 182 c 0,102,-1
 341 194 l 256,77,78
EndSplineSet
Validated: 1
EndChar

StartChar: b
Encoding: 98 98 32
Width: 596
Flags: W
HStem: 1 75<53.3785 106.998> 1 68<165.236 294.634> 1 49.8<166.079 406.547> 320 64<171.8 405.332>
VStem: 104.5 57.5<70.6838 309.093 359 630.827> 470 75<110.267 263.418>
LayerCount: 2
Fore
SplineSet
107 69 m 0,0,1
 107 123 107 123 106.5 162 c 128,-1,2
 106 201 106 201 105.5 232 c 128,-1,3
 105 263 105 263 104.5 290 c 128,-1,4
 104 317 104 317 104 348 c 0,5,6
 104 383 104 383 104 419.5 c 128,-1,7
 104 456 104 456 104 496.5 c 128,-1,8
 104 537 104 537 104 583 c 128,-1,9
 104 629 104 629 103 682 c 0,10,11
 102 689 102 689 97.5 684.5 c 128,-1,12
 93 680 93 680 87 676.5 c 128,-1,13
 81 673 81 673 75 676.5 c 128,-1,14
 69 680 69 680 65 703 c 0,15,16
 64 708 64 708 64 712 c 0,17,18
 64 728 64 728 76 736 c 0,19,20
 91 748 91 748 107 751 c 0,21,22
 121 753 121 753 133 746 c 128,-1,23
 145 739 145 739 155 729 c 128,-1,24
 165 719 165 719 173.5 709.5 c 128,-1,25
 182 700 182 700 188 697 c 0,26,27
 204 699 204 699 215 700 c 0,28,29
 224 701 224 701 230 700 c 128,-1,30
 236 699 236 699 231 695 c 0,31,32
 210 680 210 680 196 655.5 c 128,-1,33
 182 631 182 631 173.5 602.5 c 128,-1,34
 165 574 165 574 162 543.5 c 128,-1,35
 159 513 159 513 159 485 c 2,36,-1
 161 359 l 1,37,38
 184 366 184 366 222 374 c 128,-1,39
 260 382 260 382 304 384 c 0,40,41
 304 384 304 384 323 384 c 0,42,43
 357 384 357 384 392 378 c 0,44,45
 436 370 436 370 471 347 c 128,-1,46
 506 324 506 324 527 281 c 0,47,48
 545 243 545 243 545 185 c 0,49,50
 545 177 545 177 545 168 c 0,51,52
 543 113 543 113 513.5 79.5 c 128,-1,53
 484 46 484 46 439.5 28.5 c 128,-1,54
 395 11 395 11 343 5.5 c 128,-1,55
 291 0 291 0 245 0 c 2,56,-1
 235 0 l 2,57,58
 230 0 230 0 226 0 c 128,-1,59
 222 0 222 0 217 1 c 0,60,61
 202 1 202 1 182 1 c 128,-1,62
 162 1 162 1 140.5 1 c 128,-1,63
 119 1 119 1 98 1 c 128,-1,64
 77 1 77 1 60 1 c 0,65,66
 53 1 53 1 52 4.5 c 128,-1,67
 51 8 51 8 51.5 15.5 c 128,-1,68
 52 23 52 23 53 34 c 128,-1,69
 54 45 54 45 51 60 c 0,70,71
 49 75 49 75 57.5 76 c 128,-1,72
 66 77 66 77 77 73.5 c 128,-1,73
 88 70 88 70 97.5 66.5 c 128,-1,74
 107 63 107 63 107 69 c 0,0,1
167 69 m 256,75,76
 171 69 171 69 190 64 c 0,77,78
 214 58 214 58 247 54 c 0,79,80
 273 51 273 51 295 51 c 0,81,82
 300 51 300 51 306 51 c 0,83,84
 313 51 313 51 320 51 c 0,85,86
 359 52 359 52 392.5 65.5 c 128,-1,87
 426 79 426 79 448 109 c 128,-1,88
 470 139 470 139 470 192 c 0,89,90
 469 237 469 237 448 263.5 c 128,-1,91
 427 290 427 290 394.5 303.5 c 128,-1,92
 362 317 362 317 324 319 c 0,93,94
 307 320 307 320 291 320 c 0,95,96
 271 320 271 320 252 318 c 0,97,98
 218 316 218 316 193 311 c 128,-1,99
 168 306 168 306 162 304 c 1,100,-1
 162 294 l 2,101,102
 163 282 163 282 163.5 261 c 128,-1,103
 164 240 164 240 164 215 c 128,-1,104
 164 190 164 190 164.5 163.5 c 128,-1,105
 165 137 165 137 165 116 c 128,-1,106
 165 95 165 95 165.5 82 c 128,-1,107
 166 69 166 69 167 69 c 256,75,76
EndSplineSet
Validated: 1
EndChar

StartChar: c
Encoding: 99 99 33
Width: 474
Flags: W
HStem: 1 51<182 276> 357 49<285.726 410.028> 374 47.3333<182.783 390.964>
VStem: 51 63<128.524 304.462>
LayerCount: 2
Fore
SplineSet
51 196 m 256,0,1
 51 202 51 202 51 208 c 0,2,3
 51 261 51 261 67 298 c 0,4,5
 85 340 85 340 115 366 c 0,6,7
 146 392 146 392 184 404 c 0,8,9
 226 417 226 417 262 420 c 0,10,11
 275 421 275 421 286 421 c 0,12,13
 289 421 289 421 296 421 c 0,14,15
 306 421 306 421 338 418 c 0,16,17
 374 414 374 414 400 406 c 0,18,19
 413 401 413 401 413.5 393 c 128,-1,20
 414 385 414 385 409 377 c 0,21,22
 397 357 397 357 391 357 c 0,23,24
 390 357 390 357 368 363 c 0,25,26
 347 368 347 368 315 372 c 0,27,28
 299 374 299 374 281.5 374 c 128,-1,29
 264 374 264 374 246 372 c 0,30,31
 209 368 209 368 178.5 350 c 128,-1,32
 148 332 148 332 130 294 c 0,33,34
 115 263 115 263 114 214 c 0,35,36
 114 203 114 203 115 192 c 1,37,38
 125 145 125 145 142.5 116 c 128,-1,39
 160 87 160 87 182 72 c 0,40,41
 204 58 204 58 228 54 c 0,42,43
 239 52 239 52 250 52 c 0,44,-1
 276 54 l 0,45,46
 331 63 331 63 396 105 c 1,47,48
 410 105 410 105 413 97 c 128,-1,49
 416 89 416 89 422 81 c 0,50,51
 428 72 428 72 415.5 59 c 128,-1,52
 403 46 403 46 378.5 34 c 128,-1,53
 354 22 354 22 321 12.5 c 128,-1,54
 288 3 288 3 252 1 c 0,55,56
 245 1 245 1 238 1 c 0,57,-1
 182 6 l 0,58,59
 146 14 146 14 118 36.5 c 128,-1,60
 90 59 90 59 71.5 97.5 c 128,-1,61
 53 136 53 136 51 196 c 256,0,1
EndSplineSet
Validated: 1
EndChar

StartChar: d
Encoding: 100 100 34
Width: 610
Flags: W
HStem: -0 50<186.151 438.963> 0.5 60.5<211.834 439> 318 68<250.696 428>
VStem: 50 77.9545<98.4633 233.867> 429 69.5<65.1335 318 386 653.232> 439 61<65.1335 317.609>
LayerCount: 2
Fore
SplineSet
54 143 m 0,0,1
 50 163 50 163 50 182 c 0,2,3
 50 210 50 210 60 234 c 0,4,5
 76 272 76 272 108 299 c 128,-1,6
 140 326 140 326 183.5 343 c 128,-1,7
 227 360 227 360 271.5 369 c 128,-1,8
 316 378 316 378 357.5 381.5 c 128,-1,9
 399 385 399 385 428 386 c 1,10,11
 428 449 428 449 427.5 521 c 128,-1,12
 427 593 427 593 426 678 c 0,13,14
 426 685 426 685 421 680.5 c 128,-1,15
 416 676 416 676 410 672.5 c 128,-1,16
 404 669 404 669 398 672.5 c 128,-1,17
 392 676 392 676 388 699 c 0,18,19
 387 704 387 704 387 708 c 0,20,21
 387 724 387 724 398 735 c 0,22,23
 412 749 412 749 429 752 c 0,24,25
 443 754 443 754 455.5 746.5 c 128,-1,26
 468 739 468 739 478 728 c 128,-1,27
 488 717 488 717 496.5 706.5 c 128,-1,28
 505 696 505 696 511 693 c 0,29,30
 527 695 527 695 538 696 c 0,31,32
 547 697 547 697 552.5 696 c 128,-1,33
 558 695 558 695 552 691 c 0,34,35
 531 676 531 676 520 652.5 c 128,-1,36
 509 629 509 629 504 602 c 128,-1,37
 499 575 499 575 498 546 c 128,-1,38
 497 517 497 517 497 489 c 0,39,40
 498 414 498 414 498.5 340.5 c 128,-1,41
 499 267 499 267 499 207 c 128,-1,42
 499 147 499 147 500 108 c 128,-1,43
 501 69 501 69 504 65 c 0,44,45
 508 57 508 57 516.5 54 c 128,-1,46
 525 51 525 51 533.5 49.5 c 128,-1,47
 542 48 542 48 548.5 47 c 128,-1,48
 555 46 555 46 555 42 c 0,49,50
 556 30 556 30 557.5 22 c 128,-1,51
 559 14 559 14 559 9 c 128,-1,52
 559 4 559 4 557 2 c 128,-1,53
 555 0 555 0 548 0 c 0,54,55
 537 0 537 0 513.5 0 c 128,-1,56
 490 0 490 0 464.5 0 c 128,-1,57
 439 0 439 0 416 0.5 c 128,-1,58
 393 1 393 1 382 1 c 2,59,-1
 381 1 l 2,60,61
 379 1 379 1 377.5 0.5 c 128,-1,62
 376 0 376 0 375 0 c 2,63,-1
 375 1 l 1,64,-1
 373 1 l 2,65,66
 372 1 372 1 372.5 0.5 c 128,-1,67
 373 0 373 0 374 0 c 1,68,69
 366 0 366 0 357 -0 c 0,70,71
 319 0 319 0 277 4 c 0,72,73
 225 8 225 8 178.5 23 c 128,-1,74
 132 38 132 38 97.5 66.5 c 128,-1,75
 63 95 63 95 54 143 c 0,0,1
438 115 m 0,76,77
 437 136 437 136 436 160.5 c 128,-1,78
 435 185 435 185 433.5 209.5 c 128,-1,79
 432 234 432 234 431 256 c 128,-1,80
 430 278 430 278 429 293 c 2,81,-1
 429 318 l 2,82,83
 428 318 428 318 405 318 c 128,-1,84
 382 318 382 318 348.5 315 c 128,-1,85
 315 312 315 312 275.5 303.5 c 128,-1,86
 236 295 236 295 203 278 c 0,87,88
 171 260 171 260 148 232 c 0,89,90
 128 208 128 208 128 171 c 0,91,92
 128 121 128 121 150.5 97.5 c 128,-1,93
 173 74 173 74 207.5 63 c 128,-1,94
 242 52 242 52 282 50 c 0,95,96
 297 49 297 49 311 50 c 0,97,98
 334 50 334 50 356 52 c 0,99,100
 390 54 390 54 414 57.5 c 128,-1,101
 438 61 438 61 439 61 c 1,102,103
 439 76 439 76 439 89.5 c 128,-1,104
 439 103 439 103 438 115 c 0,76,77
EndSplineSet
Validated: 1
EndChar

StartChar: e
Encoding: 101 101 35
Width: 518
Flags: W
HStem: 2 48<180.096 307.218> 49 63<354.006 455.749> 217 42<128.234 390.467> 379 40<200.617 359.426>
VStem: 53 69<125.865 217>
LayerCount: 2
Fore
SplineSet
408 112 m 2,0,-1
 424 112 l 1,1,2
 442 110 442 110 452.5 101 c 128,-1,3
 463 92 463 92 466 81 c 128,-1,4
 469 70 469 70 466 59.5 c 128,-1,5
 463 49 463 49 456 45 c 1,6,7
 452 47 452 47 439 48 c 0,8,9
 429 49 429 49 411 44 c 0,10,11
 386 38 386 38 344 24 c 0,12,13
 281 3 281 3 240 3 c 0,14,15
 236 3 236 3 233 3 c 0,16,-1
 178 10 l 0,17,18
 148 18 148 18 116 54 c 0,19,20
 81 93 81 93 63 162 c 0,21,22
 53 200 53 200 53 232 c 2,23,-1
 53 242 l 2,24,25
 53 260 53 260 60 282 c 0,26,27
 90 375 90 375 188 406 c 0,28,29
 229 419 229 419 246 419 c 0,30,31
 270 419 270 419 294 420 c 0,32,33
 295 420 295 420 296 420 c 0,34,35
 321 420 321 420 350 411 c 0,36,37
 382 401 382 401 400 388 c 128,-1,38
 418 375 418 375 429 356.5 c 128,-1,39
 440 338 440 338 445 320 c 128,-1,40
 450 302 450 302 451.5 285 c 128,-1,41
 453 268 453 268 454.5 258 c 128,-1,42
 456 248 456 248 442 242.5 c 128,-1,43
 428 237 428 237 405 233 c 0,44,45
 313 217 313 217 126 217 c 1,46,47
 122 199 122 199 122 187 c 0,48,49
 122 182 122 182 124 162 c 0,50,51
 129 112 129 112 158 88 c 0,52,53
 197 56 197 56 244 50 c 1,54,55
 276 50 276 50 324.5 81 c 128,-1,56
 373 112 373 112 408 112 c 2,0,-1
394 302 m 0,57,58
 389 347 389 347 343 368 c 0,59,60
 319 379 319 379 275 379 c 128,-1,61
 231 379 231 379 199 359 c 0,62,63
 147 326 147 326 133 286 c 2,64,-1
 128 271 l 1,65,-1
 143 270 l 1,66,67
 226 259 226 259 274 259 c 0,68,69
 362 259 362 259 391 271 c 1,70,71
 395 280 395 280 394.5 289 c 128,-1,72
 394 298 394 298 394 302 c 0,57,58
EndSplineSet
Validated: 1
EndChar

StartChar: f
Encoding: 102 102 36
Width: 460
Flags: W
HStem: 0 69<97.5792 150.997> 330 55<52 147 220 297.556> 337 57<220 320>
VStem: 148 70<55.5908 332 390 675.818> 378 75<699.251 742.78>
LayerCount: 2
Fore
SplineSet
325 337 m 1,0,-1
 220 334 l 1,1,2
 221 280 221 280 221.5 230.5 c 128,-1,3
 222 181 222 181 222.5 143 c 128,-1,4
 223 105 223 105 224 81 c 128,-1,5
 225 57 225 57 227 54 c 0,6,7
 231 46 231 46 239.5 44.5 c 128,-1,8
 248 43 248 43 256.5 44 c 128,-1,9
 265 45 265 45 271.5 45.5 c 128,-1,10
 278 46 278 46 278 42 c 0,11,12
 279 30 279 30 282.5 22 c 128,-1,13
 286 14 286 14 288 9 c 128,-1,14
 290 4 290 4 290 2 c 128,-1,15
 290 0 290 0 283 0 c 0,16,17
 273 0 273 0 252 0 c 128,-1,18
 231 0 231 0 205.5 0 c 128,-1,19
 180 0 180 0 153.5 0 c 128,-1,20
 127 0 127 0 107 0 c 0,21,22
 100 0 100 0 97.5 3 c 128,-1,23
 95 6 95 6 93.5 12 c 128,-1,24
 92 18 92 18 91.5 28.5 c 128,-1,25
 91 39 91 39 88 54 c 256,26,27
 85 69 85 69 94.5 69 c 128,-1,28
 104 69 104 69 116.5 63.5 c 128,-1,29
 129 58 129 58 140 53 c 128,-1,30
 151 48 151 48 151 54 c 0,31,32
 151 105 151 105 150.5 144 c 128,-1,33
 150 183 150 183 149.5 215.5 c 128,-1,34
 149 248 149 248 148.5 275.5 c 128,-1,35
 148 303 148 303 148 332 c 1,36,-1
 50 330 l 1,37,-1
 52 385 l 1,38,-1
 147 388 l 1,39,40
 147 432 147 432 148 480.5 c 128,-1,41
 149 529 149 529 149 584 c 0,42,43
 150 640 150 640 168 686 c 0,44,45
 175 705 175 705 186.5 723.5 c 128,-1,46
 198 742 198 742 215 757 c 128,-1,47
 232 772 232 772 254.5 782 c 128,-1,48
 277 792 277 792 307 793 c 0,49,50
 351 793 351 793 378.5 789 c 128,-1,51
 406 785 406 785 422.5 777 c 128,-1,52
 439 769 439 769 445.5 759 c 128,-1,53
 452 749 452 749 453 738.5 c 128,-1,54
 454 728 454 728 452 717.5 c 128,-1,55
 450 707 450 707 449 699 c 1,56,57
 443 696 443 696 429 693 c 128,-1,58
 415 690 415 690 401 688 c 0,59,60
 384 685 384 685 365 682 c 1,61,62
 378 708 378 708 378 725 c 0,63,64
 378 736 378 736 373 743 c 0,65,66
 369 749 369 749 359 752 c 128,-1,67
 349 755 349 755 333 753 c 128,-1,68
 317 751 317 751 293 743 c 0,69,70
 270 732 270 732 256.5 710 c 128,-1,71
 243 688 243 688 235 662 c 128,-1,72
 227 636 227 636 223.5 609 c 128,-1,73
 220 582 220 582 218 562 c 0,74,75
 219 544 219 544 219 526 c 128,-1,76
 219 508 219 508 218 490 c 0,77,78
 218 465 218 465 218.5 440 c 128,-1,79
 219 415 219 415 219 390 c 1,80,-1
 320 394 l 1,81,-1
 325 337 l 1,0,-1
EndSplineSet
Validated: 1
EndChar

StartChar: g
Encoding: 103 103 37
Width: 594
Flags: W
HStem: -297 25<233.156 372.09> -20 25<272.559 382.159> 96 25<242.659 353.83> 317 89<471.344 521.868> 368 24<239.148 357.76>
VStem: 50.9091 75.0909<-201.664 -87.7614> 86.9565 85.0435<174.391 315.235> 419 78<168.689 315.034> 479.091 64.9091<-207.281 -82.217>
LayerCount: 2
Fore
SplineSet
51 -144 m 2,0,1
 54 -91 54 -91 86.5 -60.5 c 128,-1,2
 119 -30 119 -30 167 -14 c 1,3,4
 155 -5 155 -5 139.5 8 c 128,-1,5
 124 21 124 21 110.5 33.5 c 128,-1,6
 97 46 97 46 88 55.5 c 128,-1,7
 79 65 79 65 79 67 c 0,8,9
 78 76 78 76 86.5 84.5 c 128,-1,10
 95 93 95 93 108 100 c 128,-1,11
 121 107 121 107 136.5 113 c 128,-1,12
 152 119 152 119 167 123 c 1,13,14
 132 141 132 141 108 171 c 0,15,16
 86.9565217391 197.782608696 86.9565217391 197.782608696 86.9565217391 235.54442344 c 2,17,-1
 87 246 l 2,18,19
 90 289 90 289 110 317 c 128,-1,20
 130 345 130 345 160.5 362 c 128,-1,21
 191 379 191 379 229.5 385.5 c 128,-1,22
 268 392 268 392 308 392 c 0,23,24
 345 391 345 391 373.5 383.5 c 128,-1,25
 402 376 402 376 425 363 c 1,26,27
 438 378 438 378 454 393 c 0,28,29
 469 406 469 406 484 406 c 0,30,31
 486 406 486 406 488 406 c 0,32,33
 496 404 496 404 504.5 399.5 c 128,-1,34
 513 395 513 395 519 388 c 128,-1,35
 525 381 525 381 528 371.5 c 128,-1,36
 531 362 531 362 529 351 c 0,37,38
 527 336 527 336 520.5 328 c 128,-1,39
 514 320 514 320 505.5 318 c 128,-1,40
 497 316 497 316 487.5 317 c 128,-1,41
 478 318 478 318 471 321 c 1,42,43
 492 294 492 294 496 262 c 0,44,45
 498 251 498 251 497 241 c 0,46,47
 497 220 497 220 491 200 c 0,48,49
 483 173 483 173 462 154 c 128,-1,50
 441 135 441 135 414 123 c 128,-1,51
 387 111 387 111 357.5 105 c 128,-1,52
 328 99 328 99 303 97 c 0,53,54
 294 96 294 96 284 96 c 0,55,56
 269 96 269 96 254 98 c 0,57,58
 228 101 228 101 202 109 c 1,59,60
 185 105 185 105 172 97 c 128,-1,61
 159 89 159 89 164 74 c 0,62,63
 168 61 168 61 190.5 49.5 c 128,-1,64
 213 38 213 38 239.5 28.5 c 128,-1,65
 266 19 266 19 288.5 12.5 c 128,-1,66
 311 6 311 6 314 5 c 2,67,-1
 317 5 l 2,68,69
 386 3 386 3 433.5 -15 c 128,-1,70
 481 -33 481 -33 507.5 -60.5 c 128,-1,71
 534 -88 534 -88 541 -122 c 0,72,73
 544 -135 544 -135 544 -148 c 0,74,75
 544 -169 544 -169 536 -190 c 0,76,77
 527 -218 527 -218 502 -237 c 128,-1,78
 477 -256 477 -256 444.5 -268.5 c 128,-1,79
 412 -281 412 -281 375.5 -287 c 128,-1,80
 339 -293 339 -293 308 -296 c 0,81,82
 297 -297 297 -297 285 -297 c 0,83,84
 270 -298 270 -298 254 -296 c 0,85,86
 225 -294 225 -294 196 -286.5 c 128,-1,87
 167 -279 167 -279 140 -266.5 c 128,-1,88
 113 -254 113 -254 92.5 -236.5 c 128,-1,89
 72 -219 72 -219 60 -196 c 0,90,91
 50.9090909091 -177.818181818 50.9090909091 -177.818181818 50.9090909091 -156.330578512 c 2,92,-1
 51 -144 l 2,0,1
303 -20 m 0,93,94
 300 -20 300 -20 296 -20 c 0,95,96
 262 -20 262 -20 233 -30 c 0,97,98
 201 -40 201 -40 177 -58 c 128,-1,99
 153 -76 153 -76 139.5 -99.5 c 128,-1,100
 126 -123 126 -123 126 -147 c 256,101,102
 126 -171 126 -171 141.5 -193.5 c 128,-1,103
 157 -216 157 -216 182.5 -234 c 128,-1,104
 208 -252 208 -252 240 -262 c 0,105,106
 270 -272 270 -272 302 -272 c 0,107,108
 305 -272 305 -272 308 -272 c 0,109,110
 339 -271 339 -271 370 -260.5 c 128,-1,111
 401 -250 401 -250 425.5 -234 c 128,-1,112
 450 -218 450 -218 465 -198 c 0,113,114
 479.090909091 -179.883116883 479.090909091 -179.883116883 479.090909091 -156.090909091 c 0,115,116
 479.090909091 -131.545454545 479.090909091 -131.545454545 470 -107 c 0,117,118
 462 -83 462 -83 441.5 -64.5 c 128,-1,119
 421 -46 421 -46 387.5 -34 c 128,-1,120
 354 -22 354 -22 303 -20 c 0,93,94
296 368 m 0,121,122
 293 368 293 368 291 368 c 0,123,124
 263 368 263 368 242 358 c 0,125,126
 219 347 219 347 203 328.5 c 128,-1,127
 187 310 187 310 179.5 287 c 128,-1,128
 172 264 172 264 172 241 c 256,129,130
 172 218 172 218 181.5 196 c 128,-1,131
 191 174 191 174 208.5 157 c 128,-1,132
 226 140 226 140 250 130 c 0,133,134
 272 121 272 121 298 121 c 0,135,136
 301 121 301 121 303 121 c 0,137,138
 328 122 328 122 350 131.5 c 128,-1,139
 372 141 372 141 388 155.5 c 128,-1,140
 404 170 404 170 412 189 c 0,141,142
 419 204 419 204 419 220 c 0,143,144
 419 224 419 224 419 228 c 0,145,146
 418 253 418 253 415 277.5 c 128,-1,147
 412 302 412 302 400 321.5 c 128,-1,148
 388 341 388 341 363.5 353.5 c 128,-1,149
 339 366 339 366 296 368 c 0,121,122
406 344 m 0,150,151
 406 342 406 342 409 345 c 1,152,153
 405 345 405 345 406 344 c 0,150,151
EndSplineSet
Validated: 524289
EndChar

StartChar: h
Encoding: 104 104 38
Width: 615
Flags: W
HStem: 0 78<56.2393 116> 351 44<270.135 410.274>
VStem: 114.5 70.5<63.0975 289 352 650.495> 442 74<69.41 311.947>
LayerCount: 2
Fore
SplineSet
116 63 m 0,0,1
 116 117 116 117 116 156 c 128,-1,2
 116 195 116 195 115.5 226 c 128,-1,3
 115 257 115 257 114.5 284 c 128,-1,4
 114 311 114 311 114 342 c 0,5,6
 114 377 114 377 114 413.5 c 128,-1,7
 114 450 114 450 114 490.5 c 128,-1,8
 114 531 114 531 114 577 c 128,-1,9
 114 623 114 623 113 676 c 0,10,11
 112 683 112 683 107.5 678.5 c 128,-1,12
 103 674 103 674 97 670.5 c 128,-1,13
 91 667 91 667 85 670.5 c 128,-1,14
 79 674 79 674 75 697 c 0,15,16
 74 703 74 703 74 708 c 0,17,18
 74 723 74 723 84 733 c 0,19,20
 98 747 98 747 116 750 c 0,21,22
 130 752 130 752 142 744.5 c 128,-1,23
 154 737 154 737 164.5 726 c 128,-1,24
 175 715 175 715 183 704.5 c 128,-1,25
 191 694 191 694 197 691 c 0,26,27
 213 693 213 693 224 694 c 0,28,29
 233 695 233 695 238.5 694 c 128,-1,30
 244 693 244 693 239 689 c 0,31,32
 218 674 218 674 207 650.5 c 128,-1,33
 196 627 196 627 191 600 c 128,-1,34
 186 573 186 573 185 544 c 128,-1,35
 184 515 184 515 184 487 c 0,36,37
 184 453 184 453 184.5 419 c 128,-1,38
 185 385 185 385 185 352 c 1,39,40
 203 359 203 359 227.5 367 c 128,-1,41
 252 375 252 375 279.5 381.5 c 128,-1,42
 307 388 307 388 335 392 c 0,43,44
 357 395 357 395 379 395 c 0,45,46
 384 395 384 395 389 395 c 0,47,48
 429 393 429 393 453.5 371.5 c 128,-1,49
 478 350 478 350 492 318 c 128,-1,50
 506 286 506 286 511 248 c 128,-1,51
 516 210 516 210 516 174.5 c 128,-1,52
 516 139 516 139 513 110.5 c 128,-1,53
 510 82 510 82 508 69 c 1,54,55
 515 65 515 65 524 60 c 128,-1,56
 533 55 533 55 542 49 c 128,-1,57
 551 43 551 43 557.5 37 c 128,-1,58
 564 31 564 31 565 26 c 0,59,60
 565 20 565 20 561 10 c 0,61,62
 559 6 559 6 558 0 c 1,63,-1
 436 0 l 2,64,65
 425 0 425 0 424 8.5 c 128,-1,66
 423 17 423 17 426 27 c 128,-1,67
 429 37 429 37 433 45 c 128,-1,68
 437 53 437 53 437 52 c 1,69,70
 437 53 437 53 439 75.5 c 128,-1,71
 441 98 441 98 442 130 c 0,72,73
 442 143 442 143 442 157 c 0,74,75
 442 178 442 178 442 202 c 0,76,77
 440 240 440 240 433 272.5 c 128,-1,78
 426 305 426 305 412 327.5 c 128,-1,79
 398 350 398 350 374 351 c 0,80,81
 371 351 371 351 367 351 c 0,82,83
 346 351 346 351 324 346 c 0,84,85
 298 340 298 340 272.5 330 c 128,-1,86
 247 320 247 320 224 308.5 c 128,-1,87
 201 297 201 297 185 289 c 1,88,89
 185 244 185 244 185 204 c 128,-1,90
 185 164 185 164 185.5 133.5 c 128,-1,91
 186 103 186 103 186.5 84.5 c 128,-1,92
 187 66 187 66 189 63 c 0,93,94
 193 55 193 55 201.5 53.5 c 128,-1,95
 210 52 210 52 219 53 c 128,-1,96
 228 54 228 54 234.5 54.5 c 128,-1,97
 241 55 241 55 241 51 c 0,98,99
 242 39 242 39 246 29.5 c 128,-1,100
 250 20 250 20 253.5 13.5 c 128,-1,101
 257 7 257 7 257.5 3.5 c 128,-1,102
 258 0 258 0 252 0 c 2,103,-1
 72 0 l 2,104,105
 58 0 58 0 56.5 16.5 c 128,-1,106
 55 33 55 33 51 63 c 0,107,108
 48 78 48 78 58 78 c 128,-1,109
 68 78 68 78 80.5 72.5 c 128,-1,110
 93 67 93 67 104.5 62 c 128,-1,111
 116 57 116 57 116 63 c 0,0,1
EndSplineSet
Validated: 1
EndChar

StartChar: i
Encoding: 105 105 39
Width: 294
Flags: W
HStem: 2 21G<68.5 241>
VStem: 103.5 71<65.7222 351.776>
LayerCount: 2
Fore
SplineSet
104 65 m 0,0,1
 104 119 104 119 103.5 150 c 128,-1,2
 103 181 103 181 103 197 c 2,3,-1
 103 221 l 2,4,5
 102 265 102 265 102 284.5 c 128,-1,6
 102 304 102 304 102 310 c 128,-1,7
 102 316 102 316 102.5 314.5 c 128,-1,8
 103 313 103 313 103 316 c 128,-1,9
 103 319 103 319 103 332.5 c 128,-1,10
 103 346 103 346 102 381 c 0,11,12
 102 388 102 388 97.5 383.5 c 128,-1,13
 93 379 93 379 87 375.5 c 128,-1,14
 81 372 81 372 74.5 375.5 c 128,-1,15
 68 379 68 379 64 402 c 0,16,17
 63 406 63 406 63 410 c 0,18,19
 63 427 63 427 75 438 c 0,20,21
 89 452 89 452 106 455 c 0,22,23
 117 457 117 457 133 447 c 128,-1,24
 149 437 149 437 164 422 c 128,-1,25
 179 407 179 407 189.5 391.5 c 128,-1,26
 200 376 200 376 200 367 c 0,27,28
 200 356 200 356 196 357.5 c 128,-1,29
 192 359 192 359 186.5 359 c 128,-1,30
 181 359 181 359 177 352 c 128,-1,31
 173 345 173 345 173 317 c 0,32,33
 174 242 174 242 174 195 c 128,-1,34
 174 148 174 148 174.5 120.5 c 128,-1,35
 175 93 175 93 176 81 c 128,-1,36
 177 69 177 69 180 65 c 0,37,38
 183 57 183 57 191.5 55.5 c 128,-1,39
 200 54 200 54 208.5 55 c 128,-1,40
 217 56 217 56 223.5 56.5 c 128,-1,41
 230 57 230 57 230 53 c 0,42,43
 231 41 231 41 234.5 31 c 128,-1,44
 238 21 238 21 241 14.5 c 128,-1,45
 244 8 244 8 244 5 c 128,-1,46
 244 2 244 2 238 2 c 0,47,48
 227 2 227 2 207.5 2 c 128,-1,49
 188 2 188 2 165 2 c 128,-1,50
 142 2 142 2 117.5 2 c 128,-1,51
 93 2 93 2 72 2 c 0,52,53
 65 2 65 2 62.5 4 c 128,-1,54
 60 6 60 6 58.5 11.5 c 128,-1,55
 57 17 57 17 55.5 26.5 c 128,-1,56
 54 36 54 36 51 51 c 256,57,58
 48 66 48 66 56 68 c 128,-1,59
 64 70 64 70 74.5 67.5 c 128,-1,60
 85 65 85 65 94.5 62 c 128,-1,61
 104 59 104 59 104 65 c 0,0,1
122 632 m 1,62,-1
 192 579 l 1,63,-1
 124 531 l 1,64,-1
 64 579 l 1,65,-1
 122 632 l 1,62,-1
EndSplineSet
Validated: 1
EndChar

StartChar: j
Encoding: 106 106 40
Width: 316
Flags: W
HStem: -306 48<10.3467 75.4385>
VStem: -85 76<-251.717 -212.099> 147.5 73<-212.154 -54.5468 -52.4536 101 342 354.905> 154 66<-198.514 -53.5 11.5 66.2482>
LayerCount: 2
Fore
SplineSet
145 299 m 0,0,1
 145 306 145 306 145 309 c 128,-1,2
 145 312 145 312 144 321 c 0,3,4
 144 357 144 357 144 368 c 0,5,6
 144 376 144 376 138 370 c 0,7,8
 134 366 134 366 128 362.5 c 128,-1,9
 122 359 122 359 116 362 c 0,10,11
 111 365 111 365 105 389 c 0,12,13
 104 393 104 393 104 396 c 0,14,15
 104 413 104 413 116 425 c 0,16,17
 130 439 130 439 147 442 c 0,18,19
 161 444 161 444 173.5 436.5 c 128,-1,20
 186 429 186 429 196 418 c 128,-1,21
 206 407 206 407 214 396 c 0,22,23
 225 384 225 384 230 383 c 128,-1,24
 235 382 235 382 243 382 c 0,25,26
 255 381 255 381 248 373 c 0,27,28
 238 362 238 362 232 360 c 128,-1,29
 226 358 226 358 222.5 355 c 128,-1,30
 219 352 219 352 218 342 c 128,-1,31
 217 332 217 332 217 304 c 0,32,33
 218 229 218 229 218.5 165 c 128,-1,34
 219 101 219 101 219 53 c 128,-1,35
 219 5 219 5 219.5 -24.5 c 128,-1,36
 220 -54 220 -54 220 -59 c 256,37,38
 220 -64 220 -64 220.5 -67.5 c 128,-1,39
 221 -71 221 -71 221 -75 c 0,40,41
 222 -92 222 -92 223 -115 c 0,42,43
 223 -120 223 -120 223 -125 c 0,44,45
 221 -154 221 -154 220 -162 c 0,46,47
 216 -186 216 -186 207.5 -211 c 128,-1,48
 199 -236 199 -236 180.5 -256 c 128,-1,49
 162 -276 162 -276 133 -290 c 0,50,51
 98 -306 98 -306 61 -306 c 0,52,53
 55 -306 55 -306 49 -306 c 0,54,55
 -7 -306 -7 -306 -35 -297 c 0,56,57
 -66 -287 -66 -287 -76 -272 c 0,58,59
 -88 -255 -88 -255 -85 -247 c 0,60,61
 -84 -244 -84 -244 -84 -240 c 0,62,63
 -81 -218 -81 -218 -80 -212 c 0,64,65
 -78 -203 -78 -203 -62 -199 c 0,66,67
 -49 -195 -49 -195 -34 -194 c 0,68,69
 -34 -194 -34 -194 -22 -194 c 128,-1,70
 -10 -194 -10 -194 4 -195 c 1,71,72
 -9 -214 -9 -214 -9 -227 c 0,73,74
 -9 -243 -9 -243 10 -252 c 0,75,76
 21 -257 21 -257 44 -258 c 0,77,78
 58 -258 58 -258 76 -256 c 1,79,80
 100 -249 100 -249 115 -229 c 128,-1,81
 130 -209 130 -209 138.5 -181 c 128,-1,82
 147 -153 147 -153 150.5 -120 c 128,-1,83
 154 -87 154 -87 154 -53.5 c 128,-1,84
 154 -20 154 -20 152 11.5 c 128,-1,85
 150 43 150 43 149 67 c 0,86,87
 149 68 149 68 148.5 69 c 128,-1,88
 148 70 148 70 148 71 c 0,89,90
 148 75 148 75 147.5 78 c 128,-1,91
 147 81 147 81 147 83 c 2,92,-1
 147 86 l 2,93,94
 146 90 146 90 147 101 c 0,95,96
 148 109 148 109 147 119 c 0,97,98
 147 138 147 138 146 174 c 0,99,100
 146 174 146 174 146 215 c 2,101,-1
 146 238 l 2,102,103
 145 282 145 282 145 299 c 0,0,1
161 625 m 1,104,-1
 231 572 l 1,105,-1
 163 524 l 1,106,-1
 103 572 l 1,107,-1
 161 625 l 1,104,-1
EndSplineSet
Validated: 1
EndChar

StartChar: k
Encoding: 107 107 41
Width: 570
Flags: W
HStem: 2 81<58.579 116>
VStem: 112 73<68.1318 186 256 655.495>
LayerCount: 2
Fore
SplineSet
116 68 m 0,0,1
 116 122 116 122 116 161 c 128,-1,2
 116 200 116 200 115.5 231 c 128,-1,3
 115 262 115 262 114 289 c 0,4,5
 112 343 112 343 112 347 c 0,6,7
 112 382 112 382 112 418 c 0,8,9
 112 486 112 486 112 496 c 0,10,11
 112 516 112 516 112 538 c 0,12,13
 112 559 112 559 112 582 c 0,14,15
 112 628 112 628 111 681 c 0,16,17
 111 688 111 688 106.5 683.5 c 128,-1,18
 102 679 102 679 96.5 675.5 c 128,-1,19
 91 672 91 672 85 675.5 c 128,-1,20
 79 679 79 679 75 702 c 0,21,22
 73 713 73 713 76 722 c 128,-1,23
 79 731 79 731 85 738 c 128,-1,24
 91 745 91 745 99.5 749 c 128,-1,25
 108 753 108 753 116 755 c 0,26,27
 129 757 129 757 141.5 749.5 c 128,-1,28
 154 742 154 742 164.5 731 c 128,-1,29
 175 720 175 720 183 709.5 c 128,-1,30
 191 699 191 699 197 696 c 0,31,32
 213 698 213 698 224 699 c 0,33,34
 233 700 233 700 238.5 699 c 128,-1,35
 244 698 244 698 239 694 c 0,36,37
 218 679 218 679 207 655.5 c 128,-1,38
 196 632 196 632 191 605 c 128,-1,39
 186 578 186 578 185 549 c 128,-1,40
 184 520 184 520 184 492 c 0,41,42
 185 431 185 431 185 370.5 c 128,-1,43
 185 310 185 310 185 256 c 1,44,45
 200 271 200 271 220.5 291.5 c 128,-1,46
 241 312 241 312 263 334 c 128,-1,47
 285 356 285 356 306 377 c 128,-1,48
 327 398 327 398 343.5 414 c 128,-1,49
 360 430 360 430 370 440 c 0,50,-1
 380 450 l 2,51,52
 380 449 380 449 400 449 c 128,-1,53
 420 449 420 449 445 449 c 0,54,55
 474 449 474 449 511 450 c 1,56,57
 472 418 472 418 432 385 c 0,58,59
 397 357 397 357 356.5 323.5 c 128,-1,60
 316 290 316 290 278 260 c 1,61,62
 279 259 279 259 292 254 c 128,-1,63
 305 249 305 249 323 241 c 128,-1,64
 341 233 341 233 362.5 223 c 128,-1,65
 384 213 384 213 402.5 203.5 c 128,-1,66
 421 194 421 194 435 186 c 128,-1,67
 449 178 449 178 452 173 c 0,68,69
 466 153 466 153 470 118.5 c 128,-1,70
 474 84 474 84 475.5 47 c 128,-1,71
 477 10 477 10 480.5 -24 c 128,-1,72
 484 -58 484 -58 496 -77 c 0,73,74
 509 -97 509 -97 525.5 -112 c 128,-1,75
 542 -127 542 -127 556 -137 c 128,-1,76
 570 -147 570 -147 580 -152 c 0,77,-1
 589 -156 l 2,78,79
 590 -156 590 -156 579 -158 c 128,-1,80
 568 -160 568 -160 552 -161 c 0,81,82
 541 -162 541 -162 529 -162 c 0,83,84
 522 -162 522 -162 516 -162 c 0,85,86
 498 -162 498 -162 483 -156 c 0,87,88
 464 -150 464 -150 451.5 -144 c 128,-1,89
 439 -138 439 -138 430 -129.5 c 128,-1,90
 421 -121 421 -121 414.5 -107.5 c 128,-1,91
 408 -94 408 -94 401 -73 c 0,92,93
 398 -69 398 -69 396 -53.5 c 128,-1,94
 394 -38 394 -38 391.5 -16.5 c 128,-1,95
 389 5 389 5 386.5 30 c 128,-1,96
 384 55 384 55 381.5 77 c 128,-1,97
 379 99 379 99 376.5 115.5 c 128,-1,98
 374 132 374 132 372 137 c 0,99,100
 369 143 369 143 351.5 154 c 128,-1,101
 334 165 334 165 310.5 176.5 c 128,-1,102
 287 188 287 188 262.5 198.5 c 128,-1,103
 238 209 238 209 222 215 c 1,104,-1
 185 186 l 1,105,106
 186 136 186 136 186.5 104 c 128,-1,107
 187 72 187 72 189 68 c 0,108,109
 193 60 193 60 201.5 58.5 c 128,-1,110
 210 57 210 57 219 58 c 128,-1,111
 228 59 228 59 234.5 59.5 c 128,-1,112
 241 60 241 60 241 56 c 0,113,114
 242 44 242 44 245.5 34 c 128,-1,115
 249 24 249 24 252 17 c 128,-1,116
 255 10 255 10 255 6 c 128,-1,117
 255 2 255 2 249 2 c 0,118,119
 238 2 238 2 216 2 c 128,-1,120
 194 2 194 2 168 2 c 128,-1,121
 142 2 142 2 115 2 c 128,-1,122
 88 2 88 2 67 2 c 0,123,124
 61 2 61 2 58.5 6.5 c 128,-1,125
 56 11 56 11 55 20 c 128,-1,126
 54 29 54 29 53.5 41 c 128,-1,127
 53 53 53 53 51 68 c 0,128,129
 48 83 48 83 58 83 c 128,-1,130
 68 83 68 83 80.5 77.5 c 128,-1,131
 93 72 93 72 104.5 67 c 128,-1,132
 116 62 116 62 116 68 c 0,0,1
EndSplineSet
Validated: 1
EndChar

StartChar: l
Encoding: 108 108 42
Width: 294
Flags: W
HStem: -1 21G<170.5 183.5>
VStem: 102 71<62.6838 646.289>
LayerCount: 2
Fore
SplineSet
105 61 m 0,0,1
 105 115 105 115 104.5 154 c 128,-1,2
 104 193 104 193 103.5 224 c 128,-1,3
 103 255 103 255 102.5 282 c 128,-1,4
 102 309 102 309 102 340 c 0,5,6
 102 375 102 375 102 411.5 c 128,-1,7
 102 448 102 448 102 488.5 c 128,-1,8
 102 529 102 529 102 575 c 128,-1,9
 102 621 102 621 101 674 c 0,10,11
 101 681 101 681 96.5 676.5 c 128,-1,12
 92 672 92 672 86 668.5 c 128,-1,13
 80 665 80 665 73.5 668.5 c 128,-1,14
 67 672 67 672 63 695 c 0,15,16
 62 699 62 699 62 703 c 0,17,18
 62 720 62 720 74 731 c 0,19,20
 88 745 88 745 105 748 c 0,21,22
 119 750 119 750 131.5 742.5 c 128,-1,23
 144 735 144 735 154 724 c 128,-1,24
 164 713 164 713 172 702.5 c 128,-1,25
 180 692 180 692 186 689 c 0,26,27
 202 691 202 691 213 692 c 0,28,29
 222 693 222 693 228 692 c 128,-1,30
 234 691 234 691 229 687 c 0,31,32
 208 672 208 672 196 648.5 c 128,-1,33
 184 625 184 625 179 598 c 128,-1,34
 174 571 174 571 173 542 c 128,-1,35
 172 513 172 513 172 485 c 0,36,37
 173 410 173 410 173.5 336.5 c 128,-1,38
 174 263 174 263 174.5 203 c 128,-1,39
 175 143 175 143 176 104 c 128,-1,40
 177 65 177 65 180 61 c 0,41,42
 184 53 184 53 192 51.5 c 128,-1,43
 200 50 200 50 208.5 51 c 128,-1,44
 217 52 217 52 223.5 52.5 c 128,-1,45
 230 53 230 53 230 49 c 0,46,47
 231 37 231 37 234.5 29.5 c 128,-1,48
 238 22 238 22 241 17.5 c 128,-1,49
 244 13 244 13 244 11 c 128,-1,50
 244 9 244 9 238 6 c 0,51,52
 228 1 228 1 206 0 c 0,53,54
 192 -1 192 -1 175 -1 c 0,55,56
 166 -0 166 -0 158 -0 c 0,57,58
 132 0 132 0 106 0.5 c 128,-1,59
 80 1 80 1 59 1 c 0,60,61
 51 1 51 1 50.5 3 c 128,-1,62
 50 5 50 5 52 11 c 128,-1,63
 54 17 54 17 55.5 26.5 c 128,-1,64
 57 36 57 36 54 51 c 0,65,66
 52 66 52 66 59.5 67.5 c 128,-1,67
 67 69 67 69 77 65.5 c 128,-1,68
 87 62 87 62 96 58.5 c 128,-1,69
 105 55 105 55 105 61 c 0,0,1
EndSplineSet
Validated: 1
EndChar

StartChar: m
Encoding: 109 109 43
Width: 789
Flags: W
HStem: 341.2 54.8<211.768 336.806 458.352 519 534 597.148>
VStem: 53 174.5<0 52.2644> 53 169<3.61011 52.2644> 92.5 69.5<62.9062 98.5 286 301.935> 363.333 71.6667<70.3781 162 210 293> 621 72.5<73.3781 300.998>
LayerCount: 2
Fore
SplineSet
92 272 m 0,0,1
 91 287 91 287 91 292 c 0,2,3
 91 299 91 299 90 334 c 0,4,5
 90 337 90 337 84 340 c 0,6,7
 83 341 83 341 75 335 c 128,-1,8
 67 329 67 329 62 332 c 0,9,10
 56 336 56 336 52 359 c 0,11,12
 51 365 51 365 51 370 c 0,13,14
 52 385 52 385 62 395 c 0,15,16
 76 409 76 409 93 412 c 0,17,18
 105 414 105 414 116 408 c 128,-1,19
 127 402 127 402 136 393 c 128,-1,20
 145 384 145 384 153 374 c 128,-1,21
 161 364 161 364 167 358 c 1,22,23
 182 367 182 367 199.5 375.5 c 128,-1,24
 217 384 217 384 236 389 c 0,25,26
 264 396 264 396 276 396 c 0,27,28
 280 396 280 396 285 396 c 0,29,30
 301 396 301 396 317 391 c 0,31,32
 340 384 340 384 358 372 c 128,-1,33
 376 360 376 360 389 344 c 1,34,35
 400 351 400 351 419.5 362.5 c 128,-1,36
 439 374 439 374 463.5 383 c 128,-1,37
 488 392 488 392 516 396 c 0,38,39
 525 397 525 397 534 397 c 0,40,41
 554 397 554 397 573 391 c 0,42,43
 611 380 611 380 635 356 c 128,-1,44
 659 332 659 332 672 300 c 0,45,46
 684 272 684 272 689 234 c 0,47,48
 694 194 694 194 694 180 c 0,49,50
 694 176 694 176 693 174 c 128,-1,51
 692 172 692 172 692 166 c 0,52,53
 692 134 692 134 688.5 109.5 c 128,-1,54
 685 85 685 85 683 73 c 1,55,56
 690 69 690 69 699.5 64 c 128,-1,57
 709 59 709 59 717 53 c 128,-1,58
 725 47 725 47 731.5 41.5 c 128,-1,59
 738 36 738 36 739 31 c 0,60,61
 739 27 739 27 736.5 22 c 128,-1,62
 734 17 734 17 732 12 c 0,63,64
 729 6 729 6 726 0 c 1,65,-1
 603 0 l 2,66,67
 593 0 593 0 592.5 9 c 128,-1,68
 592 18 592 18 596 30 c 0,69,70
 602 46 602 46 605 51 c 0,71,72
 611 62 611 62 612 64 c 0,73,74
 614 75 614 75 616 100 c 0,75,76
 618 124 618 124 620 155 c 0,77,78
 621 170 621 170 621 193 c 0,79,80
 621 206 621 206 621 219 c 0,81,82
 620 252 620 252 613.5 279 c 128,-1,83
 607 306 607 306 594 324.5 c 128,-1,84
 581 343 581 343 559 344 c 0,85,86
 555 344 555 344 551 344 c 0,87,-1
 519 341 l 0,88,89
 499 337 499 337 480.5 329.5 c 128,-1,90
 462 322 462 322 446 312.5 c 128,-1,91
 430 303 430 303 417 294 c 1,92,93
 428 262 428 262 432 228 c 0,94,95
 435 201 435 201 435 176 c 0,96,97
 435 169 435 169 435 162 c 0,98,99
 434 131 434 131 431 106.5 c 128,-1,100
 428 82 428 82 426 70 c 1,101,102
 440 62 440 62 459 50 c 0,103,104
 480 37 480 37 480 28 c 0,105,106
 480 24 480 24 477.5 20 c 128,-1,107
 475 16 475 16 473 11 c 0,108,109
 470 6 470 6 467 0 c 1,110,-1
 345 0 l 2,111,112
 336 0 336 0 335 7 c 128,-1,113
 334 14 334 14 337 24 c 0,114,115
 341 37 341 37 345 42 c 0,116,117
 353 52 353 52 353 57 c 0,118,119
 353 57 353 57 357 89 c 0,120,121
 360 114 360 114 362 144 c 0,122,123
 363.333333333 167.333333333 363.333333333 167.333333333 363.333333333 177.777777778 c 0,124,125
 363.333333333 183 363.333333333 183 363 185 c 0,126,127
 363 191 363 191 363 193 c 0,128,129
 362 201 362 201 362 210 c 0,130,131
 362 244 362 244 355.5 272.5 c 128,-1,132
 349 301 349 301 336 320.5 c 128,-1,133
 323 340 323 340 300 341 c 0,134,135
 296 341 296 341 293 341 c 0,136,137
 289 341 289 341 286 341 c 0,138,139
 273 341 273 341 260 338 c 0,140,141
 238 333 238 333 222 325 c 0,142,143
 205 316 205 316 189 305.5 c 128,-1,144
 173 295 173 295 161 286 c 1,145,-1
 161 274 l 2,146,147
 162 199 162 199 162 158.5 c 128,-1,148
 162 118 162 118 162.5 98.5 c 128,-1,149
 163 79 163 79 163.5 73 c 128,-1,150
 164 67 164 67 166 63 c 0,151,152
 170 55 170 55 178.5 53.5 c 128,-1,153
 187 52 187 52 196 53 c 128,-1,154
 205 54 205 54 211.5 54.5 c 128,-1,155
 218 55 218 55 218 51 c 0,156,157
 219 39 219 39 222 29.5 c 128,-1,158
 225 20 225 20 226.5 13.5 c 128,-1,159
 228 7 228 7 227.5 3.5 c 128,-1,160
 227 0 227 0 220 0 c 2,161,-1
 61 0 l 2,162,163
 54 0 54 0 53 2 c 128,-1,164
 52 4 52 4 52.5 10 c 128,-1,165
 53 16 53 16 54 25.5 c 128,-1,166
 55 35 55 35 52 50 c 256,167,168
 49 65 49 65 55 67 c 128,-1,169
 61 69 61 69 69.5 66 c 128,-1,170
 78 63 78 63 85.5 60 c 128,-1,171
 93 57 93 57 93 63 c 0,172,173
 93 117 93 117 92.5 148 c 128,-1,174
 92 179 92 179 92 195 c 2,175,-1
 92 219 l 2,176,177
 92 246 92 246 92 255 c 0,178,179
 92 270 92 270 92 272 c 0,0,1
EndSplineSet
Validated: 524289
EndChar

StartChar: n
Encoding: 110 110 44
Width: 543
Flags: W
HStem: 0 56<53.6812 98.998> 341 52<236.445 363.984>
VStem: 98.5 68.5<59.3134 294.557> 384 76<74.0674 322.91>
LayerCount: 2
Fore
SplineSet
99 63 m 0,0,1
 99 117 99 117 98.5 148 c 128,-1,2
 98 179 98 179 98 195 c 2,3,-1
 98 219 l 2,4,5
 98 235 98 235 97.5 240.5 c 128,-1,6
 97 246 97 246 97 247.5 c 128,-1,7
 97 249 97 249 96.5 250 c 128,-1,8
 96 251 96 251 95.5 258.5 c 128,-1,9
 95 266 95 266 94.5 284.5 c 128,-1,10
 94 303 94 303 93 338 c 0,11,12
 93 345 93 345 88.5 340.5 c 128,-1,13
 84 336 84 336 78.5 332.5 c 128,-1,14
 73 329 73 329 67 332.5 c 128,-1,15
 61 336 61 336 57 359 c 0,16,17
 56 365 56 365 56 370 c 0,18,19
 56 385 56 385 66 395 c 0,20,21
 80 409 80 409 98 412 c 0,22,23
 111 414 111 414 123.5 406.5 c 128,-1,24
 136 399 136 399 146.5 388 c 128,-1,25
 157 377 157 377 165 366.5 c 128,-1,26
 173 356 173 356 179 353 c 1,27,28
 197 362 197 362 219.5 370.5 c 128,-1,29
 242 379 242 379 265 385 c 0,30,31
 288 390 288 390 312 392 c 0,32,33
 317 392 317 392 321 393 c 0,34,35
 340 393 340 393 357 388 c 0,36,37
 395 377 395 377 417 353 c 128,-1,38
 439 329 439 329 449 298 c 0,39,40
 460 266 460 266 460 231 c 0,41,42
 460 227 460 227 460 222 c 0,43,44
 460 192 460 192 456 164 c 0,45,46
 452 132 452 132 446 107 c 128,-1,47
 440 82 440 82 437 70 c 1,48,49
 444 66 444 66 453.5 61 c 128,-1,50
 463 56 463 56 471.5 50 c 128,-1,51
 480 44 480 44 486 38.5 c 128,-1,52
 492 33 492 33 493 28 c 0,53,54
 493 24 493 24 491.5 20 c 128,-1,55
 490 16 490 16 488 11 c 2,56,-1
 483 1 l 1,57,58
 456 0 456 0 431 0 c 2,59,-1
 359 0 l 2,60,61
 349 0 349 0 348 8 c 128,-1,62
 347 16 347 16 350.5 26.5 c 128,-1,63
 354 37 354 37 359 46.5 c 128,-1,64
 364 56 364 56 366 60 c 0,65,66
 368 71 368 71 372.5 95.5 c 128,-1,67
 377 120 377 120 380 151 c 128,-1,68
 383 182 383 182 384 215 c 0,69,70
 384 221 384 221 384 226 c 0,71,72
 384 254 384 254 380 276 c 0,73,74
 375 304 375 304 363 322 c 128,-1,75
 351 340 351 340 329 341 c 0,76,77
 326 341 326 341 323 341 c 0,78,79
 306 340 306 340 286 336 c 0,80,81
 264 330 264 330 242 321.5 c 128,-1,82
 220 313 220 313 200.5 301.5 c 128,-1,83
 181 290 181 290 166 281 c 1,84,-1
 166 274 l 2,85,86
 167 199 167 199 167 158.5 c 128,-1,87
 167 118 167 118 167.5 98.5 c 128,-1,88
 168 79 168 79 169 73 c 128,-1,89
 170 67 170 67 172 63 c 0,90,91
 176 55 176 55 184.5 53.5 c 128,-1,92
 193 52 193 52 202 53 c 128,-1,93
 211 54 211 54 217.5 54.5 c 128,-1,94
 224 55 224 55 224 51 c 0,95,96
 225 39 225 39 228 29.5 c 128,-1,97
 231 20 231 20 233.5 14 c 128,-1,98
 236 8 236 8 236 4.5 c 128,-1,99
 236 1 236 1 230 1 c 0,100,101
 219 1 219 1 200 0.5 c 128,-1,102
 181 0 181 0 158 0 c 128,-1,103
 135 0 135 0 111 0 c 128,-1,104
 87 0 87 0 66 0 c 0,105,106
 59 0 59 0 57 0 c 128,-1,107
 55 0 55 0 55 3.5 c 128,-1,108
 55 7 55 7 54.5 14.5 c 128,-1,109
 54 22 54 22 51 37 c 0,110,111
 49 52 49 52 56.5 56 c 128,-1,112
 64 60 64 60 73.5 59.5 c 128,-1,113
 83 59 83 59 91 58 c 128,-1,114
 99 57 99 57 99 63 c 0,0,1
EndSplineSet
Validated: 1
EndChar

StartChar: o
Encoding: 111 111 45
Width: 514
Flags: W
HStem: 0 66<195.747 324.608> 365 56<183.89 329.682>
VStem: 51 75<142.276 304.432> 385 78<134.375 310.734>
LayerCount: 2
Fore
SplineSet
268 421 m 0,0,1
 334 421 334 421 376 398 c 128,-1,2
 418 375 418 375 439 339 c 128,-1,3
 460 303 460 303 462 258 c 0,4,5
 462 250 462 250 463 241 c 0,6,7
 463 204 463 204 454 169 c 128,-1,8
 445 134 445 134 427.5 103 c 128,-1,9
 410 72 410 72 386 48.5 c 128,-1,10
 362 25 362 25 331 12 c 0,11,12
 302 0 302 0 269 -0 c 0,13,14
 266 0 266 0 264 0 c 0,15,16
 223 1 223 1 185 16 c 128,-1,17
 147 31 147 31 118 56.5 c 128,-1,18
 89 82 89 82 71 116.5 c 128,-1,19
 53 151 53 151 52 190 c 0,20,21
 51 205 51 205 51 219 c 0,22,23
 52 250 52 250 56 278 c 0,24,25
 62 320 62 320 85 351.5 c 128,-1,26
 108 383 108 383 152 402 c 128,-1,27
 196 421 196 421 268 421 c 0,0,1
260 365 m 0,28,29
 255 365 255 365 251 365 c 0,30,31
 224 365 224 365 203 355 c 0,32,33
 178 343 178 343 160.5 322.5 c 128,-1,34
 143 302 143 302 134.5 275 c 128,-1,35
 126 248 126 248 126 219 c 0,36,37
 127 192 127 192 137.5 164.5 c 128,-1,38
 148 137 148 137 166 115 c 128,-1,39
 184 93 184 93 208.5 79.5 c 128,-1,40
 233 66 233 66 262 66 c 0,41,42
 290 66 290 66 312 79 c 128,-1,43
 334 92 334 92 349.5 112.5 c 128,-1,44
 365 133 365 133 373.5 159 c 128,-1,45
 382 185 382 185 384 212 c 0,46,47
 385 220 385 220 385 228 c 0,48,49
 385 248 385 248 381 266 c 0,50,51
 376 292 376 292 362 313 c 128,-1,52
 348 334 348 334 323 348 c 128,-1,53
 298 362 298 362 260 365 c 0,28,29
EndSplineSet
Validated: 1
EndChar

StartChar: p
Encoding: 112 112 46
Width: 612
Flags: W
HStem: -295 75<60.5795 116> -1 50<187.908 420.776> 335 63.25<190.847 400.726>
VStem: 113 72<-234.964 3 66 328> 484 77<108.006 265.953>
LayerCount: 2
Fore
SplineSet
116 -235 m 0,0,1
 116 -181 116 -181 116 -142 c 128,-1,2
 116 -103 116 -103 115.5 -72 c 128,-1,3
 115 -41 115 -41 114.5 -14 c 128,-1,4
 114 13 114 13 113 44 c 0,5,6
 113 79 113 79 113 110.5 c 128,-1,7
 113 142 113 142 113 176.5 c 128,-1,8
 113 211 113 211 113 251.5 c 128,-1,9
 113 292 113 292 112 345 c 0,10,11
 112 352 112 352 107.5 347.5 c 128,-1,12
 103 343 103 343 97 339.5 c 128,-1,13
 91 336 91 336 85 339.5 c 128,-1,14
 79 343 79 343 75 366 c 0,15,16
 74 370 74 370 74 374 c 0,17,18
 74 391 74 391 86 402 c 0,19,20
 100 416 100 416 116 419 c 0,21,22
 128 421 128 421 139 417.5 c 128,-1,23
 150 414 150 414 159.5 408.5 c 128,-1,24
 169 403 169 403 176.5 396.5 c 128,-1,25
 184 390 184 390 190 386 c 1,26,27
 217 392 217 392 256 396 c 0,28,29
 274.75 398.25 274.75 398.25 294.0625 398.25 c 0,30,31
 300.5 398.25 300.5 398.25 307 398 c 0,32,33
 322 398 322 398 337 398 c 0,34,35
 379 396 379 396 420 384 c 128,-1,36
 461 372 461 372 493 346 c 128,-1,37
 525 320 525 320 544 276 c 0,38,39
 561 237 561 237 561 179 c 0,40,41
 561 173 561 173 561 167 c 0,42,43
 559 123 559 123 539 93 c 128,-1,44
 519 63 519 63 487 44 c 128,-1,45
 455 25 455 25 414.5 15.5 c 128,-1,46
 374 6 374 6 333 2 c 0,47,48
 300 -1 300 -1 269 -1 c 0,49,50
 262 -1 262 -1 254 -1 c 0,51,52
 216 0 216 0 187 3 c 1,53,54
 187 -44 187 -44 187.5 -86.5 c 128,-1,55
 188 -129 188 -129 189 -162 c 128,-1,56
 190 -195 190 -195 190.5 -214.5 c 128,-1,57
 191 -234 191 -234 192 -235 c 0,58,59
 196 -243 196 -243 204 -244.5 c 128,-1,60
 212 -246 212 -246 220.5 -245 c 128,-1,61
 229 -244 229 -244 235 -243.5 c 128,-1,62
 241 -243 241 -243 241 -247 c 0,63,64
 242 -259 242 -259 245.5 -266.5 c 128,-1,65
 249 -274 249 -274 252 -278.5 c 128,-1,66
 255 -283 255 -283 255 -285 c 128,-1,67
 255 -287 255 -287 249 -290 c 0,68,69
 238 -295 238 -295 217 -296 c 0,70,71
 203 -297 203 -297 187 -297 c 0,72,73
 178 -296 178 -296 170 -296 c 0,74,75
 144 -296 144 -296 118 -295.5 c 128,-1,76
 92 -295 92 -295 71 -295 c 0,77,78
 63 -295 63 -295 60.5 -291.5 c 128,-1,79
 58 -288 58 -288 57 -280.5 c 128,-1,80
 56 -273 56 -273 55 -261.5 c 128,-1,81
 54 -250 54 -250 51 -235 c 256,82,83
 48 -220 48 -220 58 -220 c 128,-1,84
 68 -220 68 -220 81 -225.5 c 128,-1,85
 94 -231 94 -231 105 -236 c 128,-1,86
 116 -241 116 -241 116 -235 c 0,0,1
185 175 m 0,87,88
 185 149 185 149 185 121.5 c 128,-1,89
 185 94 185 94 186 66 c 0,90,91
 187 66 187 66 210 61 c 128,-1,92
 233 56 233 56 266 52 c 0,93,94
 290 49 290 49 317 49 c 0,95,96
 328 50 328 50 338 50 c 0,97,98
 376 52 376 52 408.5 65 c 128,-1,99
 441 78 441 78 462.5 108 c 128,-1,100
 484 138 484 138 484 191 c 0,101,102
 484 238 484 238 462.5 266.5 c 128,-1,103
 441 295 441 295 408.5 310 c 128,-1,104
 376 325 376 325 338 330 c 128,-1,105
 300 335 300 335 267 335 c 128,-1,106
 234 335 234 335 211 331.5 c 128,-1,107
 188 328 188 328 185 328 c 2,108,-1
 185 324 l 2,109,110
 185 317 185 317 185.5 301.5 c 128,-1,111
 186 286 186 286 186 266 c 128,-1,112
 186 246 186 246 185.5 222 c 128,-1,113
 185 198 185 198 185 175 c 0,87,88
EndSplineSet
Validated: 524289
EndChar

StartChar: q
Encoding: 113 113 47
Width: 635
Flags: W
HStem: -282.5 54<384.735 424> -166 55<313 313 494 571.721> -2 48<181.418 421.179> 345.5 48.5<244.818 423.819> 384 20G<536.5 540.5>
VStem: 51 57.9565<108.958 256.873> 424 67<-221.903 -163 -105 2 58 345.829>
LayerCount: 2
Fore
SplineSet
585 -159 m 1,0,-1
 494 -161 l 1,1,2
 495 -187 495 -187 496 -203 c 128,-1,3
 497 -219 497 -219 499 -222 c 0,4,5
 503 -230 503 -230 511 -231.5 c 128,-1,6
 519 -233 519 -233 527 -232 c 128,-1,7
 535 -231 535 -231 541.5 -230.5 c 128,-1,8
 548 -230 548 -230 548 -234 c 0,9,10
 549 -246 549 -246 551 -253.5 c 128,-1,11
 553 -261 553 -261 553 -265 c 128,-1,12
 553 -269 553 -269 551 -271 c 128,-1,13
 549 -273 549 -273 543 -276 c 0,14,15
 532 -281 532 -281 513 -282 c 128,-1,16
 494 -283 494 -283 470.5 -283 c 128,-1,17
 447 -283 447 -283 422.5 -282.5 c 128,-1,18
 398 -282 398 -282 377 -282 c 0,19,20
 370 -282 370 -282 369 -278.5 c 128,-1,21
 368 -275 368 -275 370 -270 c 128,-1,22
 372 -265 372 -265 374.5 -260.5 c 128,-1,23
 377 -256 377 -256 377 -254 c 0,24,25
 377 -239 377 -239 384.5 -234 c 128,-1,26
 392 -229 392 -229 400.5 -228.5 c 128,-1,27
 409 -228 409 -228 416.5 -228 c 128,-1,28
 424 -228 424 -228 424 -222 c 2,29,-1
 424 -163 l 1,30,-1
 308 -166 l 1,31,-1
 313 -111 l 1,32,-1
 424 -107 l 1,33,34
 424 -75 424 -75 423.5 -49 c 128,-1,35
 423 -23 423 -23 423 2 c 1,36,37
 394 -1 394 -1 356 -2 c 0,38,39
 348 -2 348 -2 339 -2 c 0,40,41
 310 -2 310 -2 278 0 c 0,42,43
 238 4 238 4 197.5 13.5 c 128,-1,44
 157 23 157 23 125.5 41.5 c 128,-1,45
 94 60 94 60 73.5 90 c 128,-1,46
 53 120 53 120 51 163 c 0,47,48
 51 170 51 170 51 177 c 0,49,50
 52 236 52 236 74 275 c 0,51,52
 100 319 100 319 141 344.5 c 128,-1,53
 182 370 182 370 233.5 381 c 128,-1,54
 285 392 285 392 332 394 c 0,55,56
 353 395 353 395 373 396 c 0,57,58
 396 396 396 396 416 394 c 0,59,60
 453 391 453 391 467 389 c 1,61,62
 482 392 482 392 496.5 395 c 128,-1,63
 511 398 511 398 522.5 400 c 128,-1,64
 534 402 534 402 540.5 403 c 0,65,-1
 547 404 l 0,66,67
 526 389 526 389 514.5 365.5 c 128,-1,68
 503 342 503 342 498 315 c 128,-1,69
 493 288 493 288 492 259 c 128,-1,70
 491 230 491 230 491 202 c 2,71,-1
 493 -105 l 1,72,-1
 580 -102 l 1,73,-1
 585 -159 l 1,0,-1
132 107 m 128,-1,75
 155 78 155 78 189.5 64 c 128,-1,76
 224 50 224 50 264 48 c 0,77,78
 284 47 284 47 302 46 c 0,79,80
 319 46 319 46 338 48 c 0,81,82
 395 54 395 54 396 54 c 0,83,84
 420 59 420 59 422 58 c 1,85,86
 421 84 421 84 421 108 c 0,87,88
 422 127 422 127 422 145 c 0,89,90
 424 187 424 187 424 238 c 2,91,-1
 424 346 l 2,92,93
 423 346 423 346 399 345.5 c 128,-1,94
 375 345 375 345 339.5 341.5 c 128,-1,95
 304 338 304 338 263.5 328.5 c 128,-1,96
 223 319 223 319 188 302 c 0,97,98
 152 284 152 284 130 256 c 0,99,100
 108.956521739 229.217391304 108.956521739 229.217391304 108.956521739 193.285444234 c 0,101,74
 108.956521739 136.054820416 108.956521739 136.054820416 132 107 c 128,-1,75
EndSplineSet
Validated: 524289
EndChar

StartChar: r
Encoding: 114 114 48
Width: 383
Flags: W
HStem: 0 77<55.968 115.997> 328.5 65.5<77.3142 112.814> 329 52<185 273.323>
VStem: 113 72<63.6819 329>
LayerCount: 2
Fore
SplineSet
116 62 m 0,0,1
 116 116 116 116 115.5 147 c 128,-1,2
 115 178 115 178 114 194 c 0,3,4
 113 212 113 212 113 218 c 0,5,6
 112 265 112 265 112 280.5 c 128,-1,7
 112 296 112 296 113 297 c 0,8,9
 113 304 113 304 112.5 314 c 128,-1,10
 112 324 112 324 112 341 c 0,11,12
 112 348 112 348 107 342 c 128,-1,13
 102 336 102 336 95.5 331 c 128,-1,14
 89 326 89 326 82 328.5 c 128,-1,15
 75 331 75 331 71 354 c 0,16,17
 70 360 70 360 70 365 c 0,18,19
 70 378 70 378 77 384 c 0,20,21
 87 392 87 392 104 394 c 0,22,23
 119 396 119 396 131 396 c 0,24,25
 140 396 140 396 146 395 c 0,26,27
 162 392 162 392 172 381 c 1,28,29
 183 381 183 381 209 381 c 128,-1,30
 235 381 235 381 263 382 c 0,31,32
 296 383 296 383 333 384 c 1,33,34
 325 375 325 375 319 366 c 0,35,36
 314 358 314 358 309.5 349 c 128,-1,37
 305 340 305 340 303 332 c 0,38,39
 300 324 300 324 301 313.5 c 128,-1,40
 302 303 302 303 304 294 c 128,-1,41
 306 285 306 285 308 280 c 0,42,-1
 310 274 l 257,43,44
 300 270 l 0,45,46
 291 267 291 267 279.5 264 c 128,-1,47
 268 261 268 261 259 261 c 128,-1,48
 250 261 250 261 252 267 c 0,49,50
 254 274 254 274 260 280.5 c 128,-1,51
 266 287 266 287 270 293.5 c 128,-1,52
 274 300 274 300 273.5 306 c 128,-1,53
 273 312 273 312 263 318 c 0,54,55
 260 320 260 320 251 322 c 128,-1,56
 242 324 242 324 230 325.5 c 128,-1,57
 218 327 218 327 206 328 c 128,-1,58
 194 329 194 329 185 329 c 1,59,60
 186 320 186 320 185.5 310 c 128,-1,61
 185 300 185 300 185 289 c 0,62,63
 186 214 186 214 186 171 c 128,-1,64
 186 128 186 128 186 105.5 c 128,-1,65
 186 83 186 83 186.5 74.5 c 128,-1,66
 187 66 187 66 189 62 c 0,67,68
 193 54 193 54 201.5 52.5 c 128,-1,69
 210 51 210 51 218.5 52 c 128,-1,70
 227 53 227 53 233.5 53.5 c 128,-1,71
 240 54 240 54 240 50 c 0,72,73
 241 38 241 38 244.5 30.5 c 128,-1,74
 248 23 248 23 251 18.5 c 128,-1,75
 254 14 254 14 254 12 c 128,-1,76
 254 10 254 10 248 7 c 0,77,78
 237 2 237 2 216 0.5 c 128,-1,79
 195 -1 195 -1 169.5 -1 c 128,-1,80
 144 -1 144 -1 117.5 -0.5 c 128,-1,81
 91 0 91 0 70 0 c 0,82,83
 56 0 56 0 56 16 c 128,-1,84
 56 32 56 32 51 62 c 0,85,86
 48 77 48 77 58 77 c 128,-1,87
 68 77 68 77 80.5 71.5 c 128,-1,88
 93 66 93 66 104.5 61 c 128,-1,89
 116 56 116 56 116 62 c 0,0,1
EndSplineSet
Validated: 1
EndChar

StartChar: t
Encoding: 116 116 49
Width: 376
Flags: W
HStem: 0 75<100.956 161> 426 55<55 159 231 312.429>
VStem: 159 83<487.234 572.618> 161 70<60.1321 429 487 571.646>
LayerCount: 2
Fore
SplineSet
326 433 m 1,0,-1
 231 430 l 1,1,2
 231 363 231 363 231 298 c 128,-1,3
 231 233 231 233 231 181.5 c 128,-1,4
 231 130 231 130 232 97 c 128,-1,5
 233 64 233 64 235 60 c 0,6,7
 239 52 239 52 247.5 50.5 c 128,-1,8
 256 49 256 49 264.5 50 c 128,-1,9
 273 51 273 51 279.5 51.5 c 128,-1,10
 286 52 286 52 286 48 c 0,11,12
 287 36 287 36 290.5 28.5 c 128,-1,13
 294 21 294 21 297 16.5 c 128,-1,14
 300 12 300 12 300.5 10 c 128,-1,15
 301 8 301 8 295 5 c 0,16,17
 284 0 284 0 262 -1 c 0,18,19
 247 -2 247 -2 231 -2 c 0,20,21
 223 -2 223 -2 214 -2 c 0,22,23
 188 -2 188 -2 161.5 -1 c 128,-1,24
 135 0 135 0 114 0 c 0,25,26
 101 0 101 0 101 17 c 0,27,28
 101 32 101 32 95 60 c 0,29,30
 93 75 93 75 103 75 c 128,-1,31
 113 75 113 75 126 69.5 c 128,-1,32
 139 64 139 64 150 59 c 128,-1,33
 161 54 161 54 161 60 c 2,34,-1
 161 344 l 2,35,36
 160 377 160 377 159.5 396 c 128,-1,37
 159 415 159 415 159 429 c 1,38,-1
 50 426 l 1,39,-1
 55 481 l 1,40,-1
 160 484 l 1,41,42
 160 494 160 494 160 511 c 128,-1,43
 160 528 160 528 159 566 c 1,44,45
 128 573 128 573 122.5 584 c 128,-1,46
 117 595 117 595 126.5 604.5 c 128,-1,47
 136 614 136 614 156 620 c 0,48,49
 172 625 172 625 187 626 c 0,50,-1
 194 626 l 0,51,52
 214 624 214 624 228 613 c 0,53,54
 242 603 242 603 242 580 c 0,55,56
 242 564 242 564 240 561 c 128,-1,57
 238 558 238 558 236 554 c 128,-1,58
 234 550 234 550 232.5 540 c 128,-1,59
 231 530 231 530 231 502 c 2,60,-1
 231 487 l 1,61,-1
 322 490 l 1,62,-1
 326 433 l 1,0,-1
EndSplineSet
Validated: 1
EndChar

StartChar: u
Encoding: 117 117 50
Width: 572
Flags: W
HStem: -1 48<194.411 349.728> 370 52<61.1565 95.8434> 401 2<223.055 229.5>
VStem: 53 93<98.5225 316.758> 386 108.5<232.007 421.934> 409 83.5<110.32 395.216>
LayerCount: 2
Fore
SplineSet
522 29 m 0,0,1
 522 23 522 23 517 12.5 c 128,-1,2
 512 2 512 2 512 0 c 2,3,4
 498 -0 l 0,5,6
 485 -1 485 -1 466.5 -1.5 c 128,-1,7
 448 -2 448 -2 429.5 -2 c 128,-1,8
 411 -2 411 -2 401 -2 c 0,9,10
 389 -2 389 -2 387.5 7 c 128,-1,11
 386 16 386 16 391 27 c 1,12,13
 368 18 368 18 332.5 8.5 c 128,-1,14
 297 -1 297 -1 243 -1 c 0,15,16
 173 -1 173 -1 133 22.5 c 128,-1,17
 93 46 93 46 74 82 c 0,18,19
 56 119 56 119 54 163 c 0,20,21
 53 175 53 175 53 178 c 0,22,23
 53 214 53 214 59 249 c 0,24,25
 66 291 66 291 77.5 325.5 c 128,-1,26
 89 360 89 360 96 377 c 1,27,28
 91 375 91 375 84.5 372.5 c 128,-1,29
 78 370 78 370 72 370 c 128,-1,30
 66 370 66 370 61 374 c 128,-1,31
 56 378 56 378 53 389 c 0,32,33
 48 402 48 402 63.5 411 c 128,-1,34
 79 420 79 420 96 422 c 0,35,36
 102 422 102 422 107 422 c 0,37,38
 131 422 131 422 148 415 c 0,39,40
 169 406 169 406 181 403 c 2,41,-1
 212 403 l 2,42,43
 223 403 223 403 229.5 403 c 128,-1,44
 236 403 236 403 228 401 c 0,45,46
 208 398 208 398 191.5 382 c 128,-1,47
 175 366 175 366 163 349 c 1,48,49
 160 324 160 324 155 292 c 0,50,51
 150 262 150 262 148 228 c 0,52,53
 147 213 147 213 146 197 c 0,54,55
 146 180 146 180 148 162 c 0,56,57
 151 130 151 130 164 104.5 c 128,-1,58
 177 79 177 79 202.5 63 c 128,-1,59
 228 47 228 47 270 47 c 0,60,61
 315 48 315 48 342.5 64 c 128,-1,62
 370 80 370 80 385 106 c 128,-1,63
 400 132 400 132 405 165 c 0,64,65
 409 190 409 190 409 217 c 0,66,67
 408 224 408 224 408 232 c 0,68,69
 406 266 406 266 401.5 300 c 128,-1,70
 397 334 397 334 392.5 360.5 c 128,-1,71
 388 387 388 387 386 403.5 c 128,-1,72
 384 420 384 420 390 422 c 2,73,-1
 436 422 l 1,74,-1
 489 422 l 2,75,76
 491 422 491 422 492.5 403.5 c 128,-1,77
 494 385 494 385 494.5 355 c 128,-1,78
 495 325 495 325 495 286 c 128,-1,79
 495 247 495 247 493.5 206.5 c 128,-1,80
 492 166 492 166 490 127 c 128,-1,81
 488 88 488 88 485 57 c 2,82,-1
 485 56 l 1,83,84
 499 49 499 49 510 42 c 128,-1,85
 521 35 521 35 522 29 c 0,0,1
EndSplineSet
Validated: 1
EndChar

StartChar: v
Encoding: 118 118 51
Width: 572
Flags: W
HStem: 1 21G<267.25 293.75> 375 20G<423.148 522>
LayerCount: 2
Fore
SplineSet
522 394 m 1,0,-1
 298 55 l 1,1,2
 302 47 302 47 311 46 c 128,-1,3
 320 45 320 45 328 46 c 128,-1,4
 336 47 336 47 342.5 47.5 c 128,-1,5
 349 48 349 48 349 44 c 0,6,7
 350 32 350 32 354 25.5 c 128,-1,8
 358 19 358 19 361.5 16 c 128,-1,9
 365 13 365 13 366 12 c 128,-1,10
 367 11 367 11 361 8 c 0,11,12
 350 3 350 3 328.5 2 c 128,-1,13
 307 1 307 1 280.5 1 c 128,-1,14
 254 1 254 1 226.5 1.5 c 128,-1,15
 199 2 199 2 178 2 c 0,16,17
 171 2 171 2 171.5 6 c 128,-1,18
 172 10 172 10 175 16 c 128,-1,19
 178 22 178 22 181 28.5 c 128,-1,20
 184 35 184 35 181 40 c 0,21,22
 172 54 172 54 178.5 56 c 128,-1,23
 185 58 185 58 195.5 56.5 c 128,-1,24
 206 55 206 55 216 53 c 128,-1,25
 226 51 226 51 224 56 c 0,26,27
 206 104 206 104 191.5 143 c 128,-1,28
 177 182 177 182 161.5 215 c 128,-1,29
 146 248 146 248 128.5 276.5 c 128,-1,30
 111 305 111 305 89 334 c 1,31,32
 89 341 89 341 84.5 336.5 c 128,-1,33
 80 332 80 332 74 328.5 c 128,-1,34
 68 325 68 325 61.5 328.5 c 128,-1,35
 55 332 55 332 51 355 c 0,36,37
 49 366 49 366 53 373 c 128,-1,38
 57 380 57 380 64.5 384.5 c 128,-1,39
 72 389 72 389 80.5 391.5 c 128,-1,40
 89 394 89 394 97 396 c 0,41,42
 111 398 111 398 122.5 394.5 c 128,-1,43
 134 391 134 391 143.5 385.5 c 128,-1,44
 153 380 153 380 160 374 c 128,-1,45
 167 368 167 368 173 365 c 0,46,47
 189 367 189 367 200 368 c 0,48,49
 210 369 210 369 215.5 368 c 128,-1,50
 221 367 221 367 216 363 c 0,51,52
 195 348 195 348 188.5 333.5 c 128,-1,53
 182 319 182 319 185.5 303 c 128,-1,54
 189 287 189 287 200.5 267.5 c 128,-1,55
 212 248 212 248 227 222 c 2,56,-1
 267 132 l 1,57,-1
 436 395 l 1,58,-1
 522 394 l 1,0,-1
EndSplineSet
Validated: 1
EndChar

StartChar: x
Encoding: 120 120 52
Width: 565
Flags: W
HStem: -1 22G<69.0526 116 415.25 437.75> 375 20G<407.93 515>
LayerCount: 2
Fore
SplineSet
515 395 m 1,0,-1
 300 183 l 1,1,2
 335 149 335 149 374.5 116 c 128,-1,3
 414 83 414 83 445 57.5 c 128,-1,4
 476 32 476 32 490.5 16 c 128,-1,5
 505 0 505 0 490 0 c 0,6,7
 449 -1 449 -1 426.5 -1 c 128,-1,8
 404 -1 404 -1 392.5 0 c 128,-1,9
 381 1 381 1 378.5 4.5 c 128,-1,10
 376 8 376 8 374.5 13.5 c 128,-1,11
 373 19 373 19 370 28.5 c 128,-1,12
 367 38 367 38 356 51 c 0,13,14
 333 78 333 78 311 102.5 c 128,-1,15
 289 127 289 127 267 150 c 1,16,-1
 116 1 l 1,17,-1
 50 0 l 1,18,-1
 231 190 l 1,19,20
 198 225 198 225 168.5 257.5 c 128,-1,21
 139 290 139 290 115 321 c 1,22,23
 115 328 115 328 110.5 323.5 c 128,-1,24
 106 319 106 319 100 315.5 c 128,-1,25
 94 312 94 312 87.5 315.5 c 128,-1,26
 81 319 81 319 77 342 c 0,27,28
 76 347 76 347 76 351 c 0,29,30
 76 367 76 367 88 378 c 0,31,32
 102 392 102 392 119 395 c 0,33,34
 133 397 133 397 145.5 389.5 c 128,-1,35
 158 382 158 382 168 371 c 128,-1,36
 178 360 178 360 185.5 349.5 c 128,-1,37
 193 339 193 339 199 336 c 0,38,39
 215 338 215 338 226 339 c 0,40,41
 236 340 236 340 241.5 339 c 128,-1,42
 247 338 247 338 242 334 c 0,43,44
 229 325 229 325 225.5 312.5 c 128,-1,45
 222 300 222 300 225.5 286 c 128,-1,46
 229 272 229 272 239 256 c 128,-1,47
 249 240 249 240 263 223 c 1,48,-1
 427 395 l 1,49,-1
 515 395 l 1,0,-1
EndSplineSet
Validated: 1
EndChar

StartChar: zero
Encoding: 48 48 53
Width: 576
Flags: W
HStem: 2 56<259.043 363.107> 690 65<242.794 308.751>
VStem: 51 95<199.242 517.639> 436 87<247.861 517.7>
LayerCount: 2
Fore
SplineSet
197 723 m 0,0,1
 220 741 220 741 248 749 c 0,2,3
 268 755 268 755 290 755 c 0,4,5
 298 756 298 756 308 754 c 0,6,7
 340 750 340 750 369.5 734 c 128,-1,8
 399 718 399 718 434 667 c 128,-1,9
 469 616 469 616 483.5 579.5 c 128,-1,10
 498 543 498 543 509 495.5 c 128,-1,11
 520 448 520 448 523 399 c 2,12,13
 523 384 l 2,14,15
 523 336 523 336 502 250 c 0,16,17
 477 149 477 149 457 110 c 0,18,19
 435 68 435 68 417 55 c 0,20,21
 394 38 394 38 368 24 c 0,22,23
 342 12 342 12 314 6 c 0,24,25
 301 3 301 3 281 2 c 0,26,27
 268 2 268 2 256 4 c 0,28,29
 226 8 226 8 197.5 25.5 c 128,-1,30
 169 43 169 43 143.5 70.5 c 128,-1,31
 118 98 118 98 97 138.5 c 128,-1,32
 76 179 76 179 64 233.5 c 128,-1,33
 52 288 52 288 51 348 c 0,34,35
 51 354 51 354 51 359 c 0,36,37
 51 412 51 412 59 458 c 0,38,39
 68 509 68 509 85.5 558 c 128,-1,40
 103 607 103 607 130.5 649.5 c 128,-1,41
 158 692 158 692 197 723 c 0,0,1
189 174 m 0,42,43
 191 184 191 184 202 211.5 c 128,-1,44
 213 239 213 239 272.5 418 c 128,-1,45
 332 597 332 597 338 634 c 1,46,47
 317 683 317 683 309 687 c 128,-1,48
 301 691 301 691 296 690 c 0,49,50
 275 687 275 687 255.5 677.5 c 128,-1,51
 236 668 236 668 205.5 623.5 c 128,-1,52
 175 579 175 579 163.5 519.5 c 128,-1,53
 152 460 152 460 148 392 c 0,54,55
 146 366 146 366 146 342 c 0,56,57
 146 304 146 304 150 273 c 0,58,59
 156 223 156 223 162 199.5 c 128,-1,60
 168 176 168 176 174.5 165 c 128,-1,61
 181 154 181 154 189 174 c 0,42,43
242 133 m 0,62,63
 241 127 241 127 241 122 c 0,64,65
 241 106 241 106 247 94 c 0,66,67
 256 76 256 76 290 62 c 0,68,69
 301 57 301 57 312 58 c 0,70,71
 336 58 336 58 361 78 c 0,72,73
 398 108 398 108 420 234 c 0,74,75
 436 324 436 324 436 381 c 0,76,77
 436 402 436 402 434 420 c 0,78,79
 426 482 426 482 410 532 c 0,80,81
 397 574 397 574 392 574 c 0,82,83
 391 574 391 574 390 573 c 0,84,85
 383 556 383 556 323 388 c 128,-1,86
 263 220 263 220 242 133 c 0,62,63
EndSplineSet
Validated: 1
EndChar

StartChar: one
Encoding: 49 49 54
Width: 451
Flags: W
HStem: 3 62.5<69.1584 171.059>
VStem: 231 78<374 632>
LayerCount: 2
Fore
SplineSet
171 68 m 0,0,1
 171 122 171 122 173 163.5 c 128,-1,2
 175 205 175 205 178.5 238.5 c 128,-1,3
 182 272 182 272 187 301.5 c 128,-1,4
 192 331 192 331 197 362 c 256,5,6
 202 393 202 393 208 422.5 c 128,-1,7
 214 452 214 452 219 483.5 c 128,-1,8
 224 515 224 515 227.5 551 c 128,-1,9
 231 587 231 587 231 632 c 1,10,11
 225 634 225 634 216.5 636 c 128,-1,12
 208 638 208 638 197 643 c 0,13,14
 168 655 168 655 141 655 c 0,15,16
 128 655 128 655 116 652 c 0,17,18
 76 644 76 644 57 618 c 0,19,20
 51 610 51 610 50.5 613 c 128,-1,21
 50 616 50 616 52 625.5 c 128,-1,22
 54 635 54 635 58.5 648.5 c 128,-1,23
 63 662 63 662 67 674 c 128,-1,24
 71 686 71 686 74 694.5 c 128,-1,25
 77 703 77 703 76 703 c 256,26,27
 75 703 75 703 90.5 705.5 c 128,-1,28
 106 708 106 708 129.5 711.5 c 128,-1,29
 153 715 153 715 180 718.5 c 128,-1,30
 207 722 207 722 230 725 c 0,31,32
 251 728 251 728 273 734 c 128,-1,33
 295 740 295 740 313 747 c 0,34,35
 334 754 334 754 354 763 c 1,36,37
 353 757 353 757 352 750 c 0,38,39
 351 744 351 744 349.5 736 c 128,-1,40
 348 728 348 728 346 718 c 1,41,-1
 349 722 l 1,42,43
 347 705 347 705 343.5 677.5 c 128,-1,44
 340 650 340 650 336 617.5 c 128,-1,45
 332 585 332 585 327 549.5 c 128,-1,46
 322 514 322 514 318 481 c 128,-1,47
 314 448 314 448 311.5 420 c 128,-1,48
 309 392 309 392 309 374 c 0,49,50
 309 299 309 299 303.5 244 c 128,-1,51
 298 189 298 189 292.5 151.5 c 128,-1,52
 287 114 287 114 283.5 94 c 128,-1,53
 280 74 280 74 284 70 c 0,54,55
 290 62 290 62 305.5 63 c 128,-1,56
 321 64 321 64 337 68 c 128,-1,57
 353 72 353 72 365.5 75 c 128,-1,58
 378 78 378 78 378 74 c 0,59,60
 379 62 379 62 385.5 49 c 128,-1,61
 392 36 392 36 396.5 26 c 128,-1,62
 401 16 401 16 400.5 9.5 c 128,-1,63
 400 3 400 3 389 3 c 2,64,-1
 88 3 l 2,65,66
 74 3 74 3 69 7.5 c 128,-1,67
 64 12 64 12 62 20.5 c 128,-1,68
 60 29 60 29 59 41 c 128,-1,69
 58 53 58 53 52 68 c 0,70,71
 49 78 49 78 56.5 81 c 128,-1,72
 64 84 64 84 77 82.5 c 128,-1,73
 90 81 90 81 106.5 77.5 c 128,-1,74
 123 74 123 74 137.5 70.5 c 128,-1,75
 152 67 152 67 161.5 65.5 c 128,-1,76
 171 64 171 64 171 68 c 0,0,1
EndSplineSet
Validated: 1
EndChar

StartChar: two
Encoding: 50 50 55
Width: 673
Flags: W
HStem: 0 49<241 439.995> 1 166<476 561.528> 686 67<244.797 354.688>
VStem: 440 120<391.479 557.833>
LayerCount: 2
Fore
SplineSet
421 553 m 0,0,1
 409 576 409 576 397 600 c 128,-1,2
 385 624 385 624 372 643.5 c 128,-1,3
 359 663 359 663 343 675 c 0,4,5
 328 686 328 686 311 686 c 0,6,7
 310 686 310 686 308 686 c 0,8,9
 269 684 269 684 245.5 665.5 c 128,-1,10
 222 647 222 647 210 626 c 128,-1,11
 198 605 198 605 194.5 588.5 c 128,-1,12
 191 572 191 572 191 575 c 256,13,14
 190 578 190 578 176 578 c 0,15,16
 169 578 169 578 161 578 c 0,17,18
 152 578 152 578 144 578 c 0,19,20
 126 578 126 578 114 578 c 0,21,22
 99 577 l 256,23,24
 99 578 99 578 102 590 c 0,25,26
 104 601 104 601 110 619.5 c 128,-1,27
 116 638 116 638 128 659.5 c 128,-1,28
 140 681 140 681 161 700.5 c 128,-1,29
 182 720 182 720 214 734 c 0,30,31
 256 753 256 753 293 753 c 0,32,33
 296 753 296 753 299 753 c 0,34,35
 338 753 338 753 372 741 c 0,36,37
 408 728 408 728 434.5 707.5 c 128,-1,38
 461 687 461 687 481 663.5 c 128,-1,39
 501 640 501 640 512 621 c 0,40,41
 527 595 527 595 528 594 c 0,42,43
 530 589 530 589 532 585 c 1,44,45
 553 536 553 536 559 492 c 0,46,47
 560 485 560 485 560 478 c 0,48,49
 560 444 560 444 537 388 c 0,50,51
 516 337 516 337 479.5 287.5 c 128,-1,52
 443 238 443 238 401 193.5 c 128,-1,53
 359 149 359 149 316.5 112 c 128,-1,54
 274 75 274 75 241 49 c 1,55,56
 266 49 266 49 303.5 52.5 c 128,-1,57
 341 56 341 56 377 61 c 128,-1,58
 413 66 413 66 440 71 c 128,-1,59
 467 76 467 76 473 80 c 0,60,61
 491 90 491 90 495 98.5 c 128,-1,62
 499 107 499 107 496.5 115.5 c 128,-1,63
 494 124 494 124 488 133.5 c 128,-1,64
 482 143 482 143 479 156 c 0,65,66
 476 167 476 167 490.5 167 c 128,-1,67
 505 167 505 167 524.5 161.5 c 128,-1,68
 544 156 544 156 561 150 c 128,-1,69
 578 144 578 144 581 143 c 1,70,71
 577 141 577 141 568 130 c 0,72,73
 562 123 562 123 562 110 c 0,74,75
 562 103 562 103 564 93 c 0,76,77
 567 78 567 78 576 62 c 128,-1,78
 585 46 585 46 596 32 c 0,79,80
 608 16 608 16 623 1 c 1,81,-1
 428 1 l 2,82,83
 390 1 390 1 351 1 c 128,-1,84
 312 1 312 1 277.5 0.5 c 128,-1,85
 243 0 243 0 216 0 c 0,86,87
 196 0 196 0 176 0 c 2,88,-1
 175 0 l 1,89,-1
 167 0 l 1,90,-1
 163 0 l 2,91,92
 152 0 152 0 134 0.5 c 128,-1,93
 116 1 116 1 98 1 c 128,-1,94
 80 1 80 1 66 1 c 128,-1,95
 52 1 52 1 50 0 c 1,96,97
 54 3 54 3 77.5 19.5 c 128,-1,98
 101 36 101 36 134.5 63 c 128,-1,99
 168 90 168 90 209 125.5 c 128,-1,100
 250 161 250 161 289 202 c 128,-1,101
 328 243 328 243 362 288 c 128,-1,102
 396 333 396 333 416 378 c 0,103,104
 440 431 440 431 440 468 c 0,105,106
 440 473 440 473 440 479 c 0,107,108
 440 518 440 518 421 553 c 0,0,1
EndSplineSet
Validated: 1
EndChar

StartChar: three
Encoding: 51 51 56
Width: 585
Flags: W
HStem: 4 88<189.615 402.625> 686 56<163.021 285.928>
VStem: 51 88<586.07 665.936> 370 117<452.638 588.104> 439 95<126.557 234.993>
LayerCount: 2
Fore
SplineSet
345 596 m 0,0,1
 320 638 320 638 288 663 c 0,2,3
 258 686 258 686 223 686 c 0,4,5
 220 686 220 686 217 686 c 0,6,7
 179 684 179 684 162.5 668 c 128,-1,8
 146 652 146 652 142 634 c 0,9,10
 139 622 139 622 139 611 c 0,11,12
 140 606 140 606 140 600 c 0,13,14
 142 584 142 584 143 583 c 1,15,16
 139 586 139 586 124 586 c 0,17,18
 116 586 116 586 108 586 c 128,-1,19
 100 586 100 586 92 586 c 0,20,21
 76 586 76 586 64 585 c 0,22,-1
 51 584 l 2,23,-1
 50 594 l 0,24,25
 50 605 50 605 53 621.5 c 128,-1,26
 56 638 56 638 64 657.5 c 128,-1,27
 72 677 72 677 90 694.5 c 128,-1,28
 108 712 108 712 138 725 c 128,-1,29
 168 738 168 738 215 742 c 0,30,31
 219 742 219 742 223 742 c 0,32,33
 261 742 261 742 293 733 c 0,34,35
 328 723 328 723 355 707.5 c 128,-1,36
 382 692 382 692 401 674 c 128,-1,37
 420 656 420 656 432 641.5 c 128,-1,38
 444 627 444 627 447.5 619.5 c 128,-1,39
 451 612 451 612 448 616 c 1,40,41
 484 565 484 565 487 524 c 0,42,43
 487 518 487 518 487 512 c 0,44,45
 487 478 487 478 473 450 c 0,46,47
 456 418 456 418 424.5 394.5 c 128,-1,48
 393 371 393 371 360 355 c 1,49,50
 363 348 363 348 365 342 c 1,51,52
 398 327 398 327 430.5 307.5 c 128,-1,53
 463 288 463 288 488 266 c 128,-1,54
 513 244 513 244 526 220 c 0,55,56
 534 204 534 204 534 187 c 0,57,58
 534 178 534 178 532 170 c 0,59,60
 520 125 520 125 497.5 92.5 c 128,-1,61
 475 60 475 60 440.5 40 c 128,-1,62
 406 20 406 20 358 11 c 0,63,64
 319 4 319 4 269 4 c 0,65,66
 258 4 258 4 246 4 c 0,67,68
 199 7 199 7 167 21 c 128,-1,69
 135 35 135 35 113.5 53 c 128,-1,70
 92 71 92 71 79.5 91.5 c 128,-1,71
 67 112 67 112 61 129.5 c 128,-1,72
 55 147 55 147 53 158 c 0,73,-1
 51 169 l 2,74,75
 64 168 l 0,76,77
 80 168 80 168 96 168 c 0,78,79
 105 168 105 168 114 168 c 0,80,81
 122 168 122 168 129 168 c 0,82,83
 144 168 144 168 144 170 c 0,84,85
 144 173 144 173 147 162 c 128,-1,86
 150 151 150 151 162 136.5 c 128,-1,87
 174 122 174 122 197 109 c 128,-1,88
 220 96 220 96 259 94 c 0,89,90
 280 93 280 93 304 92 c 0,91,92
 309 92 309 92 313 92 c 0,93,94
 333 92 333 92 352 95 c 0,95,96
 376 99 376 99 396 109.5 c 128,-1,97
 416 120 416 120 427 141 c 0,98,99
 439 163 439 163 439 182 c 0,100,101
 439 190 439 190 437 196 c 0,102,103
 431 220 431 220 413.5 239.5 c 128,-1,104
 396 259 396 259 370 273 c 128,-1,105
 344 287 344 287 320 296.5 c 128,-1,106
 296 306 296 306 277.5 311 c 128,-1,107
 259 316 259 316 256 317 c 0,108,109
 241 312 241 312 228 308.5 c 128,-1,110
 215 305 215 305 205 301 c 0,111,112
 194 297 194 297 184 293 c 1,113,114
 199 319 199 319 201.5 333 c 128,-1,115
 204 347 204 347 200 354.5 c 128,-1,116
 196 362 196 362 190 367 c 128,-1,117
 184 372 184 372 181 381 c 0,118,119
 179 384 179 384 185 386.5 c 128,-1,120
 191 389 191 389 201 390 c 128,-1,121
 211 391 211 391 224.5 391.5 c 128,-1,122
 238 392 238 392 252 392 c 0,123,124
 259 394 259 394 275 400.5 c 128,-1,125
 291 407 291 407 308 417.5 c 128,-1,126
 325 428 325 428 341 444 c 0,127,128
 356 460 356 460 364 482 c 0,129,130
 369 498 369 498 370 516 c 0,131,132
 370 524 370 524 369 532 c 0,133,134
 366 560 366 560 345 596 c 0,0,1
143 583 m 1026,135,-1
EndSplineSet
Validated: 1
EndChar

StartChar: four
Encoding: 52 52 57
Width: 668
Flags: W
HStem: 0.5 58<250.158 353> 1 74.5<250.158 353> 194 51<159 332.744> 245 54<473.076 550.029 551.811 564.344> 722 21G<50.3046 148 386.5 403>
VStem: 50 98<393.5 740> 59 101<155 194 245 533.75> 351 127<486.596 648> 351 118<61.0966 199 296 615.625>
LayerCount: 2
Fore
SplineSet
59 151 m 1,0,-1
 50 742 l 1,1,-1
 148 740 l 1,2,-1
 158 245 l 1,3,4
 181 247 181 247 208 250 c 128,-1,5
 235 253 235 253 261 256 c 128,-1,6
 287 259 287 259 310 263 c 128,-1,7
 333 267 333 267 350 270 c 1,8,-1
 347 340 l 2,9,10
 347 356 347 356 347 373 c 0,11,12
 347 406 347 406 348 438 c 0,13,14
 350 488 350 488 351 535 c 0,15,16
 351 547 351 547 351 558 c 0,17,18
 351 593 351 593 349 626 c 0,19,20
 346 670 346 670 334 708 c 0,21,22
 327 730 327 730 336 734.5 c 128,-1,23
 345 739 345 739 376 742 c 0,24,25
 383 743 383 743 390 743 c 0,26,27
 416 743 416 743 433 733 c 0,28,29
 454 721 454 721 464 698.5 c 128,-1,30
 474 676 474 676 476 648 c 0,31,32
 477 632 477 632 478 616 c 0,33,34
 478 604 478 604 477 590 c 0,35,36
 475 560 475 560 472 532.5 c 128,-1,37
 469 505 469 505 469 486 c 0,38,39
 469 437 469 437 469.5 389 c 128,-1,40
 470 341 470 341 471 296 c 0,41,42
 474 296 474 296 478 298 c 0,43,44
 480 299 480 299 481 299 c 0,45,46
 520 301 520 301 551 301 c 0,47,48
 577 301 577 301 598 299 c 128,-1,49
 619 297 619 297 617 291 c 0,50,51
 614 282 614 282 607.5 277.5 c 128,-1,52
 601 273 601 273 597.5 265.5 c 128,-1,53
 594 258 594 258 596 245 c 128,-1,54
 598 232 598 232 612 207 c 1,55,56
 587 216 587 216 562 224 c 0,57,58
 541 231 541 231 517 237 c 128,-1,59
 493 243 493 243 473 245 c 1,60,61
 474 207 474 207 476 174.5 c 128,-1,62
 478 142 478 142 480 117.5 c 128,-1,63
 482 93 482 93 484 78.5 c 128,-1,64
 486 64 486 64 489 61 c 0,65,66
 496 53 496 53 512 54 c 128,-1,67
 528 55 528 55 544 59 c 128,-1,68
 560 63 560 63 572.5 66 c 128,-1,69
 585 69 585 69 585 65 c 0,70,71
 586 53 586 53 592 43 c 128,-1,72
 598 33 598 33 602.5 25.5 c 128,-1,73
 607 18 607 18 606.5 13.5 c 128,-1,74
 606 9 606 9 596 6 c 0,75,76
 578 1 578 1 538 0 c 0,77,78
 512 -1 512 -1 482 -1 c 0,79,80
 467 -0 467 -0 451 -0 c 0,81,82
 404 0 404 0 355 0.5 c 128,-1,83
 306 1 306 1 269 1 c 0,84,85
 255 1 255 1 250 4.5 c 128,-1,86
 245 8 245 8 243.5 15.5 c 128,-1,87
 242 23 242 23 241 34.5 c 128,-1,88
 240 46 240 46 235 61 c 0,89,90
 232 71 232 71 239.5 74 c 128,-1,91
 247 77 247 77 260 75.5 c 128,-1,92
 273 74 273 74 289 70.5 c 128,-1,93
 305 67 305 67 319.5 63.5 c 128,-1,94
 334 60 334 60 343.5 58.5 c 128,-1,95
 353 57 353 57 353 61 c 0,96,97
 353 106 353 106 353 139 c 128,-1,98
 353 172 353 172 352 199 c 1,99,100
 304 198 304 198 251.5 197 c 128,-1,101
 199 196 199 196 159 194 c 1,102,-1
 160 155 l 1,103,-1
 59 151 l 1,0,-1
EndSplineSet
Validated: 1
EndChar

StartChar: five
Encoding: 53 53 58
Width: 605
Flags: W
HStem: -3 73<190.916 323.152> 698 50<208 370.097>
VStem: 420 99<161.21 267.848> 428 67<546.156 664.948>
LayerCount: 2
Fore
SplineSet
504 152 m 0,0,1
 499 144 499 144 484 118 c 128,-1,2
 469 92 469 92 439.5 64.5 c 128,-1,3
 410 37 410 37 364 16 c 0,4,5
 322 -3 322 -3 262 -3 c 0,6,7
 256 -3 256 -3 251 -3 c 0,8,9
 203 1 203 1 170 16 c 128,-1,10
 137 31 137 31 115 51.5 c 128,-1,11
 93 72 93 72 80.5 94 c 128,-1,12
 68 116 68 116 62 135 c 128,-1,13
 56 154 56 154 54 166 c 0,14,15
 52 179 52 179 51 179 c 256,16,17
 52 179 52 179 64 178 c 0,18,19
 78 178 78 178 96 178 c 0,20,21
 104 178 104 178 113 178 c 0,22,23
 120 178 120 178 128 178 c 0,24,25
 144 178 144 178 146 181 c 0,26,27
 146 182 146 182 147.5 166 c 128,-1,28
 149 150 149 150 159.5 129.5 c 128,-1,29
 170 109 170 109 191.5 91 c 128,-1,30
 213 73 213 73 254 70 c 0,31,32
 256 70 256 70 258 70 c 0,33,34
 278 70 278 70 300 80 c 0,35,36
 326 91 326 91 350 110 c 128,-1,37
 374 129 374 129 392.5 153.5 c 128,-1,38
 411 178 411 178 418 203 c 0,39,40
 420 209 420 209 420 215 c 0,41,42
 420 234 420 234 406 256 c 0,43,44
 388 286 388 286 357 315.5 c 128,-1,45
 326 345 326 345 288.5 373 c 128,-1,46
 251 401 251 401 217.5 422.5 c 128,-1,47
 184 444 184 444 160.5 458 c 128,-1,48
 137 472 137 472 135 473 c 2,49,-1
 140 473 l 1,50,-1
 103 751 l 1,51,-1
 202 749 l 1,52,-1
 202 748 l 1,53,54
 224 748 224 748 251.5 748 c 128,-1,55
 279 748 279 748 308 748 c 128,-1,56
 337 748 337 748 367 748 c 128,-1,57
 397 748 397 748 424 748 c 2,58,-1
 555 748 l 1,59,60
 541 732 541 732 530 715 c 0,61,62
 520 701 520 701 510.5 684.5 c 128,-1,63
 501 668 501 668 497 653 c 0,64,65
 495 643 495 643 495 633 c 0,66,67
 495 626 495 626 496 618 c 0,68,69
 498 599 498 599 502.5 583 c 128,-1,70
 507 567 507 567 511 556 c 0,71,-1
 515 546 l 2,72,-1
 506 543 l 0,73,74
 498 540 498 540 485 535.5 c 128,-1,75
 472 531 472 531 457.5 527 c 128,-1,76
 443 523 443 523 431 521.5 c 128,-1,77
 419 520 419 520 412 522 c 128,-1,78
 405 524 405 524 407 532 c 0,79,80
 410 545 410 545 417 564 c 128,-1,81
 424 583 424 583 427 602 c 0,82,83
 428 610 428 610 428 618 c 0,84,85
 428 628 428 628 426 638 c 0,86,87
 422 655 422 655 405 666 c 0,88,89
 398 670 398 670 372.5 675.5 c 128,-1,90
 347 681 347 681 316 686 c 0,91,92
 277 693 277 693 255 696 c 0,93,94
 240 698 240 698 224 698 c 0,95,96
 221 698 221 698 216 698 c 0,97,98
 212 698 212 698 208 698 c 1,99,-1
 239 471 l 2,100,101
 242 469 242 469 269.5 455.5 c 128,-1,102
 297 442 297 442 334 419.5 c 128,-1,103
 371 397 371 397 410.5 366.5 c 128,-1,104
 450 336 450 336 478 301 c 128,-1,105
 506 266 506 266 516 228 c 0,106,107
 519 217 519 217 519 205 c 0,108,109
 519 179 519 179 504 152 c 0,0,1
EndSplineSet
Validated: 1
EndChar

StartChar: six
Encoding: 54 54 59
Width: 577
Flags: W
HStem: -6 71<200.832 379.432> 325 69<219.474 385.296> 732 20G<308 406>
VStem: 50 93<120.278 257.187> 445 81<126.657 267.42>
LayerCount: 2
Fore
SplineSet
406 752 m 1,0,-1
 208 382 l 1,1,2
 252 394 252 394 295 394 c 0,3,4
 301 394 301 394 307 394 c 0,5,6
 348 393 348 393 386.5 381 c 128,-1,7
 425 369 425 369 455.5 347.5 c 128,-1,8
 486 326 486 326 505 295 c 128,-1,9
 524 264 524 264 526 225 c 0,10,11
 526 214 526 214 526 204 c 0,12,13
 526 170 526 170 522 138 c 0,14,15
 516 97 516 97 492 65.5 c 128,-1,16
 468 34 468 34 424.5 15 c 128,-1,17
 381 -4 381 -4 310 -6 c 0,18,19
 304 -6 304 -6 298 -6 c 0,20,21
 228 -6 228 -6 178 16 c 0,22,23
 124 40 124 40 93 79 c 128,-1,24
 62 118 62 118 54 166 c 0,25,26
 50 186 50 186 50 205 c 0,27,28
 50 232 50 232 57 258 c 1,29,-1
 54 258 l 1,30,-1
 61 271 l 2,31,32
 65 283 65 283 73 296 c 2,33,-1
 308 748 l 1,34,-1
 404 752 l 1,35,-1
 406 752 l 1,0,-1
285 65 m 0,36,37
 291 65 291 65 296 65 c 0,38,39
 322 65 322 65 346 72 c 0,40,41
 376 81 376 81 398 99 c 128,-1,42
 420 117 420 117 433 142 c 0,43,44
 445 165 445 165 445 197 c 0,45,46
 445 224 445 224 434 248 c 0,47,48
 422 274 422 274 406 288 c 0,49,50
 387 305 387 305 362.5 315 c 128,-1,51
 338 325 338 325 309 325 c 256,52,53
 280 325 280 325 251 316 c 128,-1,54
 222 307 222 307 199 291 c 128,-1,55
 176 275 176 275 160.5 252.5 c 128,-1,56
 145 230 145 230 143 203 c 0,57,58
 143 200 143 200 143 196 c 0,59,60
 144 142 144 142 174 108 c 0,61,62
 206 70 206 70 285 65 c 0,36,37
EndSplineSet
Validated: 1
EndChar

StartChar: seven
Encoding: 55 55 60
Width: 545
Flags: W
HStem: -2 21G<50 148.443> 680 66.5<209.222 361.747>
LayerCount: 2
Fore
SplineSet
495 752 m 1,0,-1
 139 -2 l 1,1,-1
 50 2 l 1,2,-1
 362 675 l 1,3,4
 354 680 354 680 332 680 c 0,5,6
 328 680 328 680 324 680 c 0,7,8
 304 680 304 680 284 678 c 0,9,10
 260 676 260 676 238 671.5 c 128,-1,11
 216 667 216 667 209 663 c 0,12,13
 192 651 192 651 191.5 641.5 c 128,-1,14
 191 632 191 632 198 622 c 128,-1,15
 205 612 205 612 215 601 c 128,-1,16
 225 590 225 590 229 577 c 0,17,18
 232 565 232 565 216.5 565.5 c 128,-1,19
 201 566 201 566 180.5 571 c 128,-1,20
 160 576 160 576 141.5 583 c 128,-1,21
 123 590 123 590 119 591 c 1,22,23
 124 593 124 593 134 609 c 0,24,25
 141 620 141 620 141 637 c 0,26,27
 141 645 141 645 139 654 c 0,28,29
 135 669 135 669 125 686.5 c 128,-1,30
 115 704 115 704 104 718 c 0,31,32
 91 735 91 735 76 752 c 1,33,34
 150 750 150 750 213 749 c 0,35,36
 240 748 240 748 267.5 747.5 c 128,-1,37
 295 747 295 747 319.5 746.5 c 128,-1,38
 344 746 344 746 364 746 c 128,-1,39
 384 746 384 746 395 746 c 1,40,-1
 396 748 l 1,41,-1
 492 752 l 1,42,-1
 495 752 l 1,0,-1
EndSplineSet
Validated: 1
EndChar

StartChar: eight
Encoding: 56 56 61
Width: 540
Flags: W
HStem: 7 79<175.242 358.252> 375 74<191.342 328.494> 697 50<179.955 341.307>
VStem: 51 74<133.181 300.224 494.477 640.066> 390 76<485.301 651.767> 414 75<136.282 285.554>
LayerCount: 2
Fore
SplineSet
274 747 m 0,0,1
 341 747 341 747 382.5 726 c 128,-1,2
 424 705 424 705 444 671.5 c 128,-1,3
 464 638 464 638 466 595 c 0,4,5
 466 589 466 589 466 583 c 0,6,7
 466 546 466 546 456 508 c 0,8,9
 446 466 446 466 423.5 445 c 128,-1,10
 401 424 401 424 369 416 c 1,11,12
 406 396 406 396 432 364.5 c 128,-1,13
 458 333 458 333 472 296 c 128,-1,14
 486 259 486 259 488 220 c 0,15,16
 489 212 489 212 489 203 c 0,17,18
 489 174 489 174 482 147 c 0,19,20
 473 112 473 112 452 86 c 0,21,22
 432 60 432 60 402 41 c 0,23,24
 373 23 373 23 338 14 c 0,25,26
 310 7 310 7 283 7 c 0,27,-1
 276 7 l 0,28,29
 272 7 272 7 268 7 c 0,30,31
 227 8 227 8 188.5 18.5 c 128,-1,32
 150 29 150 29 120 49 c 128,-1,33
 90 69 90 69 71.5 99 c 128,-1,34
 53 129 53 129 52 168 c 0,35,36
 51 182 51 182 51 197 c 0,37,38
 51 219 51 219 53 241 c 0,39,40
 56 278 56 278 67.5 312 c 128,-1,41
 79 346 79 346 101 374 c 128,-1,42
 123 402 123 402 159 419 c 1,43,44
 114 429 114 429 85 453.5 c 128,-1,45
 56 478 56 478 54 529 c 0,46,47
 54 539 54 539 54 548 c 0,48,49
 54 583 54 583 60 615 c 0,50,51
 68 655 68 655 91.5 684 c 128,-1,52
 115 713 115 713 159 730 c 128,-1,53
 203 747 203 747 274 747 c 0,0,1
260 375 m 0,54,55
 256 375 256 375 253 375 c 0,56,57
 225 375 225 375 202 361 c 0,58,59
 176 345 176 345 158 319 c 128,-1,60
 140 293 140 293 132 261 c 0,61,62
 125 233 125 233 125 210 c 0,63,64
 125 208 125 208 125 205 c 128,-1,65
 125 202 125 202 125 199 c 0,66,67
 128 142 128 142 165.5 114 c 128,-1,68
 203 86 203 86 264 86 c 0,69,70
 292 86 292 86 318.5 92.5 c 128,-1,71
 345 99 345 99 365.5 112 c 128,-1,72
 386 125 386 125 399 145 c 128,-1,73
 412 165 412 165 414 192 c 0,74,75
 414 195 414 195 414 198 c 0,76,77
 414 224 414 224 406 252 c 0,78,79
 397 283 397 283 377.5 309 c 128,-1,80
 358 335 358 335 328.5 353.5 c 128,-1,81
 299 372 299 372 260 375 c 0,54,55
267 697 m 0,82,83
 261 697 261 697 256 697 c 0,84,85
 228 697 228 697 206 689 c 0,86,87
 180 679 180 679 162 660 c 0,88,89
 143 640 143 640 134 615 c 0,90,91
 126 593 126 593 126 570 c 0,92,93
 126 568 126 568 126 565 c 128,-1,94
 126 562 126 562 126 559 c 0,95,96
 128 502 128 502 166.5 475.5 c 128,-1,97
 205 449 205 449 266 449 c 0,98,99
 323 449 323 449 355 472.5 c 128,-1,100
 387 496 387 496 390 552 c 0,101,102
 390 558 390 558 390 563 c 0,103,104
 390 586 390 586 387 606 c 0,105,106
 383 631 383 631 369.5 650 c 128,-1,107
 356 669 356 669 331 681.5 c 128,-1,108
 306 694 306 694 267 697 c 0,82,83
EndSplineSet
Validated: 1
EndChar

StartChar: nine
Encoding: 57 57 62
Width: 578
Flags: W
HStem: 353 67<190.101 357.5> 685 68<196.018 377.168>
VStem: 51 77<481.736 621.469> 436 92<489.813 627.407>
LayerCount: 2
Fore
SplineSet
171 -5 m 1,0,-1
 368 365 l 1,1,2
 344 358 344 358 320 355 c 0,3,4
 302 353 302 353 284 353 c 0,5,6
 278 353 278 353 272 353 c 0,7,8
 231 354 231 354 192.5 365.5 c 128,-1,9
 154 377 154 377 123 399 c 128,-1,10
 92 421 92 421 72.5 452 c 128,-1,11
 53 483 53 483 51 522 c 0,12,13
 51 532 51 532 51 542 c 0,14,15
 51 577 51 577 56 609 c 0,16,17
 63 650 63 650 86 681.5 c 128,-1,18
 109 713 109 713 152.5 732 c 128,-1,19
 196 751 196 751 268 753 c 0,20,21
 274 753 274 753 280 753 c 0,22,23
 350 752 350 752 400 730 c 0,24,25
 454 706 454 706 485 667 c 128,-1,26
 516 628 516 628 524 580 c 0,27,28
 528 560 528 560 528 542 c 0,29,30
 528 515 528 515 521 489 c 1,31,-1
 524 489 l 1,32,-1
 516 474 l 2,33,34
 511 461 511 461 504 451 c 2,35,-1
 270 -1 l 1,36,-1
 176 -5 l 1,37,-1
 171 -5 l 1,0,-1
292 685 m 0,38,39
 286 685 286 685 281 685 c 0,40,41
 278 685 278 685 275 685 c 0,42,43
 273 685 273 685 270 685 c 0,44,45
 268.222222222 685.111111111 268.222222222 685.111111111 266.333333333 685.111111111 c 0,46,47
 251.222222222 685.111111111 251.222222222 685.111111111 229 678 c 0,48,49
 198 668 198 668 176 650 c 128,-1,50
 154 632 154 632 140 606 c 0,51,52
 128 584 128 584 128 559 c 0,53,54
 128 525 128 525 140 499 c 0,55,56
 151 475 151 475 169.5 457.5 c 128,-1,57
 188 440 188 440 213 430 c 128,-1,58
 238 420 238 420 268 420 c 0,59,60
 296 420 296 420 325.5 429 c 128,-1,61
 355 438 355 438 379 454.5 c 128,-1,62
 403 471 403 471 418.5 494 c 128,-1,63
 434 517 434 517 436 544 c 0,64,65
 436 547 436 547 436 551 c 0,66,67
 436 605 436 605 405 640 c 0,68,69
 366 685 366 685 292 685 c 0,38,39
EndSplineSet
Validated: 524289
EndChar

StartChar: less
Encoding: 60 60 63
Width: 489
Flags: W
LayerCount: 2
Fore
SplineSet
51 340 m 0,0,1
 47 340 47 340 67 355.5 c 128,-1,2
 87 371 87 371 120 394 c 128,-1,3
 153 417 153 417 193 445 c 128,-1,4
 233 473 233 473 268.5 497 c 128,-1,5
 304 521 304 521 328.5 538.5 c 128,-1,6
 353 556 353 556 356 559 c 1,7,8
 357 557 357 557 368.5 550 c 128,-1,9
 380 543 380 543 394.5 534.5 c 128,-1,10
 409 526 409 526 422 519.5 c 128,-1,11
 435 513 435 513 438 513 c 0,12,13
 439 513 439 513 428.5 506 c 128,-1,14
 418 499 418 499 400.5 487 c 128,-1,15
 383 475 383 475 360 460 c 128,-1,16
 337 445 337 445 313 429 c 0,17,18
 257 392 257 392 184 345 c 1,19,-1
 438 162 l 1,20,21
 420 147 420 147 405 136 c 0,22,23
 392 126 392 126 380.5 118 c 128,-1,24
 369 110 369 110 366 110 c 0,25,26
 364 110 364 110 350 120 c 128,-1,27
 336 130 336 130 313.5 146 c 128,-1,28
 291 162 291 162 262.5 182.5 c 128,-1,29
 234 203 234 203 205 225 c 0,30,31
 136 275 136 275 51 340 c 0,0,1
356 559 m 1048,32,33
EndSplineSet
Validated: 1
EndChar

StartChar: greater
Encoding: 62 62 64
Width: 489
Flags: W
LayerCount: 2
Fore
SplineSet
420 326 m 128,-1,1
 402 312 402 312 369 288.5 c 128,-1,2
 336 265 336 265 296.5 238 c 128,-1,3
 257 211 257 211 222 186.5 c 128,-1,4
 187 162 187 162 161.5 144 c 128,-1,5
 136 126 136 126 132 122 c 1,6,7
 130 124 130 124 118.5 132 c 128,-1,8
 107 140 107 140 92.5 148 c 128,-1,9
 78 156 78 156 66 162.5 c 128,-1,10
 54 169 54 169 51 169 c 0,11,12
 50 169 50 169 60.5 176 c 128,-1,13
 71 183 71 183 88.5 195 c 128,-1,14
 106 207 106 207 129 222 c 128,-1,15
 152 237 152 237 176 253 c 0,16,17
 232 290 232 290 305 337 c 1,18,-1
 51 520 l 1,19,20
 69 535 69 535 84 546 c 0,21,22
 97 556 97 556 108.5 564 c 128,-1,23
 120 572 120 572 122 572 c 128,-1,24
 124 572 124 572 138 562 c 0,25,26
 173 537 173 537 174 536 c 0,27,28
 205 513 205 513 226 499 c 0,29,30
 235 493 235 493 283 457 c 20,31,32
 438 345 438 345 438.005102404 342.034182239 c 0,33,0
 438.008590523 340.006681518 438.008590523 340.006681518 420 326 c 128,-1,1
EndSplineSet
Validated: 524289
EndChar

StartChar: question
Encoding: 63 63 65
Width: 484
Flags: W
HStem: 3 103<133.928 257.005> 635.143 51.9481<153.626 282.614>
VStem: 55.5 79<550.8 615.652> 126 141.5<14.5074 95.9082>
LayerCount: 2
Fore
SplineSet
139 343 m 1,0,1
 205 382 205 382 254 420 c 0,2,3
 275 436 275 436 294.5 453 c 128,-1,4
 314 470 314 470 328 487 c 128,-1,5
 342 504 342 504 348.5 519.5 c 128,-1,6
 355 535 355 535 351 548 c 0,7,8
 343 565 343 565 326 581.5 c 128,-1,9
 309 598 309 598 288 610 c 0,10,11
 267 624 267 624 245 630 c 0,12,13
 227 635.142857143 227 635.142857143 214.87755102 635.142857143 c 0,14,15
 212.857142857 635.142857143 212.857142857 635.142857143 211 635 c 128,-1,16
 209 635 209 635 207 635 c 0,17,18
 174 631 174 631 157.5 617 c 128,-1,19
 141 603 141 603 134.5 588 c 128,-1,20
 128 573 128 573 128 562 c 0,21,-1
 127 550 l 2,22,23
 125 552 125 552 113 552 c 128,-1,24
 101 552 101 552 86.5 551 c 128,-1,25
 72 550 72 550 61.5 549 c 0,26,-1
 51 548 l 2,27,-1
 52 557 l 0,28,29
 52 566 52 566 55.5 579.5 c 128,-1,30
 59 593 59 593 67.5 609.5 c 128,-1,31
 76 626 76 626 92.5 641.5 c 128,-1,32
 109 657 109 657 134.5 669 c 128,-1,33
 160 681 160 681 199 686 c 0,34,35
 212 687 212 687 225 687 c 0,36,37
 228.545454545 687.090909091 228.545454545 687.090909091 232.016528926 687.090909091 c 0,38,39
 266.727272727 687.090909091 266.727272727 687.090909091 294 678 c 0,40,41
 334 666 334 666 359.5 647.5 c 128,-1,42
 385 629 385 629 398.5 611.5 c 128,-1,43
 412 594 412 594 417 588 c 0,44,45
 433 568 433 568 433 546 c 0,46,47
 432 540 432 540 432 536 c 0,48,49
 428 510 428 510 408.5 484.5 c 128,-1,50
 389 459 389 459 360 436 c 128,-1,51
 331 413 331 413 303 395 c 128,-1,52
 275 377 275 377 252.5 365 c 128,-1,53
 230 353 230 353 224 350 c 1,54,-1
 213 152 l 1,55,-1
 131 145 l 1,56,-1
 143 343 l 1,57,-1
 139 343 l 1,0,1
199 106 m 0,58,59
 223 106 223 106 237.5 100 c 128,-1,60
 252 94 252 94 259.5 84.5 c 128,-1,61
 267 75 267 75 267.5 63.5 c 128,-1,62
 268 52 268 52 264 40 c 0,63,64
 259 21 259 21 242 11 c 0,65,66
 228 3 228 3 207 3 c 0,67,68
 203 3 203 3 199 3 c 0,69,70
 172 3 172 3 149.5 13.5 c 128,-1,71
 127 24 127 24 126 45 c 0,72,73
 125 57 125 57 127 68.5 c 128,-1,74
 129 80 129 80 136.5 88 c 128,-1,75
 144 96 144 96 159 101 c 128,-1,76
 174 106 174 106 199 106 c 0,58,59
EndSplineSet
Validated: 524289
EndChar

StartChar: ampersand
Encoding: 38 38 66
Width: 778
Flags: W
HStem: 1 86<179.964 351.495> 15 71<560.922 639.438> 680 60<270.742 386.897>
VStem: 55 95<118.237 278.047> 166 68<507.1 646.258> 409 64<576.834 657.835> 561 83<248.446 329.672> 642 74<87.6331 144.985>
LayerCount: 2
Fore
SplineSet
494 200 m 0,0,1
 554 250 554 250 560 298 c 0,2,3
 561 309 561 309 561 317 c 0,4,5
 561 330 561 330 557 330 c 128,-1,6
 553 330 553 330 547 322 c 0,7,8
 538 311 538 311 527 311 c 0,9,10
 514 311 514 311 499 326 c 0,11,12
 480 344 480 344 480 360 c 0,13,14
 480 368 480 368 486 376 c 0,15,16
 501 396 501 396 544 418 c 0,17,18
 558 425 558 425 568 425 c 0,19,20
 568 425 568 425 569 425 c 128,-1,21
 570 425 570 425 570 425 c 0,22,23
 571.317073171 425.097560976 571.317073171 425.097560976 572.634146341 425.097560976 c 0,24,-1
 624 388 l 0,25,26
 644 359 644 359 644 325 c 0,27,28
 644 294 644 294 627 254 c 0,29,30
 592 172 592 172 536 139 c 0,31,32
 535 139 535 139 535 138 c 0,33,34
 536 132 536 132 558 110 c 0,35,36
 581 86 581 86 607 86 c 0,37,38
 609 86 609 86 612 86 c 0,39,40
 641 88 641 88 642 124 c 1,41,42
 654 161 654 161 671 161 c 0,43,44
 682 160 682 160 695 144 c 0,45,46
 716 118 716 118 716 95 c 0,47,48
 716 81 716 81 708 68 c 0,49,50
 688 33 688 33 646 19 c 0,51,52
 633 15 633 15 619 15 c 0,53,54
 588 15 588 15 552 35 c 0,55,56
 498 65 498 65 488 75 c 1,57,58
 488 72 488 72 420 45 c 128,-1,59
 352 18 352 18 262 4 c 0,60,61
 244 1 244 1 227 1 c 0,62,63
 158 1 158 1 110 48 c 0,64,65
 55 101 55 101 55 176 c 0,66,67
 55 183 55 183 56 191 c 0,68,69
 62 276 62 276 116.5 345.5 c 128,-1,70
 171 415 171 415 216 437 c 1,71,72
 166 535 166 535 166 597 c 0,73,74
 166 643 166 643 194 668 c 0,75,76
 260 728 260 728 307 738 c 0,77,78
 318 740 318 740 329 740 c 0,79,80
 368 740 368 740 415 714 c 0,81,82
 473 682 473 682 473 630 c 0,83,84
 473 574 473 574 313 423 c 1,85,86
 302 423 302 423 310 402 c 0,87,88
 318 382 318 382 394 280 c 0,89,90
 456 197 456 197 484 196 c 0,91,92
 490 196 490 196 494 200 c 0,0,1
408 135 m 1,93,-1
 401 143 l 1,94,95
 332 228 332 228 289.5 286.5 c 128,-1,96
 247 345 247 345 241 354 c 2,97,-1
 237 363 l 1,98,99
 236.789473684 363.01754386 236.789473684 363.01754386 236.569405971 363.01754386 c 0,100,101
 224.245614035 363.01754386 224.245614035 363.01754386 182 308 c 0,102,103
 150 267 150 267 150 208 c 0,104,105
 150 186 150 186 154 162 c 0,106,107
 167 87 167 87 242 87 c 0,108,109
 256 87 256 87 272 90 c 0,110,111
 374 107 374 107 394 121 c 128,-1,112
 414 135 414 135 408 135 c 1,93,-1
276 466 m 1,113,114
 308 498 308 498 374 560 c 0,115,116
 409 593 409 593 409 621 c 0,117,118
 408 644 408 644 382 662 c 128,-1,119
 356 680 356 680 330 680 c 0,120,121
 297 680 297 680 262 652 c 0,122,123
 234 630 234 630 234 590 c 0,124,125
 234 541 234 541 276 466 c 1,113,114
EndSplineSet
Validated: 524289
EndChar

StartChar: exclam
Encoding: 33 33 67
Width: 245
Flags: W
HStem: 5 103<58.7695 183.039>
VStem: 51 140<16.1665 98.3481> 79 75<235 752>
LayerCount: 2
Fore
SplineSet
79 231 m 1,0,-1
 79 754 l 1,1,-1
 151 752 l 1,2,-1
 154 235 l 1,3,-1
 79 231 l 1,0,-1
124 108 m 0,4,5
 148 108 148 108 163 102 c 128,-1,6
 178 96 178 96 185.5 86.5 c 128,-1,7
 193 77 193 77 194 65.5 c 128,-1,8
 195 54 195 54 191 42 c 0,9,10
 178 5 178 5 131 5 c 0,11,12
 127 5 127 5 124 5 c 0,13,14
 96 5 96 5 74 15.5 c 128,-1,15
 52 26 52 26 51 47 c 0,16,17
 49 59 49 59 51 70.5 c 128,-1,18
 53 82 53 82 61 90 c 128,-1,19
 69 98 69 98 84 103 c 128,-1,20
 99 108 99 108 124 108 c 0,4,5
EndSplineSet
Validated: 1
EndChar

StartChar: slash
Encoding: 47 47 68
Width: 545
Flags: W
HStem: 0 21G<56.2727 129.259> 730 20G<410.808 495>
LayerCount: 2
Fore
SplineSet
119 0 m 1,0,-1
 50 22 l 1,1,-1
 421 750 l 1,2,-1
 495 733 l 1,3,-1
 119 0 l 1,0,-1
EndSplineSet
Validated: 1
EndChar

StartChar: y
Encoding: 121 121 70
Width: 618
Flags: W
HStem: -317 53<-25.3369 87.3359> 377 20G<470.889 567>
VStem: -100 87<-228.719 -192.938>
LayerCount: 2
Fore
SplineSet
567 397 m 1,0,-1
 346 16 l 1,1,-1
 345 16 l 1,2,3
 344 12 344 12 330 -16.5 c 128,-1,4
 316 -45 316 -45 291.5 -85 c 128,-1,5
 267 -125 267 -125 234 -170 c 128,-1,6
 201 -215 201 -215 161 -250.5 c 128,-1,7
 121 -286 121 -286 76 -305 c 0,8,9
 47 -317 47 -317 16 -317 c 0,10,11
 -5 -317 -5 -317 -16 -314 c 0,12,13
 -65 -301 -65 -301 -85 -282 c 0,14,15
 -106 -264 -106 -264 -110 -246 c 0,16,17
 -112 -237 -112 -237 -112 -229 c 0,18,19
 -112 -220 -112 -220 -108 -212 c 0,20,21
 -102 -196 -102 -196 -100 -188 c 1,22,23
 -85 -189 -85 -189 -70 -189.5 c 128,-1,24
 -55 -190 -55 -190 -42 -192 c 0,25,26
 -27 -194 -27 -194 -13 -195 c 1,27,28
 -28 -211 -28 -211 -30 -224 c 0,29,30
 -31 -230 -31 -230 -29 -236 c 128,-1,31
 -27 -242 -27 -242 -20.5 -247.5 c 128,-1,32
 -14 -253 -14 -253 -2.5 -257 c 128,-1,33
 9 -261 9 -261 28 -264 c 0,34,35
 62 -264 62 -264 96 -235.5 c 128,-1,36
 130 -207 130 -207 160.5 -166 c 128,-1,37
 191 -125 191 -125 216.5 -78.5 c 128,-1,38
 242 -32 242 -32 260 4 c 1,39,40
 250 23 250 23 236 51.5 c 128,-1,41
 222 80 222 80 206.5 112.5 c 128,-1,42
 191 145 191 145 174.5 179.5 c 128,-1,43
 158 214 158 214 141.5 245.5 c 128,-1,44
 125 277 125 277 109.5 303.5 c 128,-1,45
 94 330 94 330 82 345 c 1,46,47
 82 352 82 352 77.5 347.5 c 128,-1,48
 73 343 73 343 67 339.5 c 128,-1,49
 61 336 61 336 55 339.5 c 128,-1,50
 49 343 49 343 45 366 c 0,51,52
 44 370 44 370 44 374 c 0,53,54
 44 391 44 391 56 402 c 0,55,56
 70 416 70 416 86 419 c 0,57,58
 100 421 100 421 112 413.5 c 128,-1,59
 124 406 124 406 134.5 395 c 128,-1,60
 145 384 145 384 153 373.5 c 128,-1,61
 161 363 161 363 167 360 c 0,62,63
 183 362 183 362 194 363 c 0,64,65
 203 364 203 364 209 363 c 128,-1,66
 215 362 215 362 210 358 c 0,67,68
 197 348 197 348 197 328 c 0,69,70
 197 322 197 322 199 312 c 0,71,72
 205 278 205 278 223 237 c 128,-1,73
 241 196 241 196 265 154 c 128,-1,74
 289 112 289 112 307 82 c 1,75,-1
 482 397 l 1,76,-1
 567 397 l 1,0,-1
EndSplineSet
Validated: 1
EndChar

StartChar: z
Encoding: 122 122 71
Width: 554
Flags: W
HStem: -1 23<160.564 351.15> 397 23<189.912 383.436>
LayerCount: 2
Fore
SplineSet
501 419 m 1,0,-1
 160 27 l 1,1,2
 178 26 178 26 204 24 c 0,3,4
 223 23 223 23 243 22 c 0,5,6
 250 22 250 22 258 22 c 0,7,8
 286 22 286 22 314 25.5 c 128,-1,9
 342 29 342 29 364 38 c 0,10,11
 383 45 383 45 394.5 54.5 c 128,-1,12
 406 64 406 64 412.5 71.5 c 128,-1,13
 419 79 419 79 421.5 84 c 128,-1,14
 424 89 424 89 424 88 c 256,15,16
 424 87 424 87 438 72 c 0,17,18
 450 58 450 58 462 42 c 128,-1,19
 474 26 474 26 475 12 c 0,20,21
 475 -1 475 -1 449 -1 c 2,22,-1
 279 -1 l 2,23,24
 207 -1 207 -1 117 0 c 2,25,-1
 50 0 l 1,26,-1
 384 392 l 1,27,28
 366 393 366 393 340.5 395 c 128,-1,29
 315 397 315 397 286.5 397 c 128,-1,30
 258 397 258 397 230 394 c 128,-1,31
 202 391 202 391 180 382 c 0,32,33
 161 374 161 374 149 365 c 128,-1,34
 137 356 137 356 130.5 348.5 c 128,-1,35
 124 341 124 341 121.5 336 c 128,-1,36
 119 331 119 331 119 332 c 256,37,38
 119 333 119 333 113 340 c 128,-1,39
 107 347 107 347 99.5 357.5 c 128,-1,40
 92 368 92 368 85 379.5 c 128,-1,41
 78 391 78 391 76 400.5 c 128,-1,42
 74 410 74 410 78.5 416 c 128,-1,43
 83 422 83 422 99 420 c 0,44,45
 101 420 101 420 123 420 c 128,-1,46
 145 420 145 420 176.5 420 c 128,-1,47
 208 420 208 420 245.5 420 c 128,-1,48
 283 420 283 420 317 420 c 128,-1,49
 351 420 351 420 376.5 420 c 128,-1,50
 402 420 402 420 410 420 c 2,51,-1
 425 420 l 1,52,-1
 499 419 l 1,53,-1
 501 419 l 1,0,-1
EndSplineSet
Validated: 1
EndChar

StartChar: period
Encoding: 46 46 72
Width: 264
Flags: W
HStem: 0 140<72.6116 193.49>
VStem: 51 162<16.0645 118.55>
LayerCount: 2
Fore
SplineSet
136 140 m 0,0,1
 163 140 163 140 179.5 129.5 c 128,-1,2
 196 119 196 119 204 104 c 128,-1,3
 212 89 212 89 213 72 c 128,-1,4
 214 55 214 55 209 42 c 0,5,6
 202 22 202 22 183 10 c 0,7,8
 167 0 167 0 144 -0 c 0,9,10
 140 0 140 0 136 0 c 0,11,12
 104 0 104 0 78 12 c 128,-1,13
 52 24 52 24 51 48 c 0,14,15
 50 62 50 62 52.5 78 c 128,-1,16
 55 94 55 94 64 108 c 128,-1,17
 73 122 73 122 90 131 c 128,-1,18
 107 140 107 140 136 140 c 0,0,1
EndSplineSet
Validated: 1
EndChar

StartChar: colon
Encoding: 58 58 73
Width: 271
Flags: W
HStem: 0 140<72.6116 193.49> 234 140<79.6116 200.49>
VStem: 51 162<16.0645 118.55> 58 162<250.064 352.55>
LayerCount: 2
Fore
SplineSet
136 140 m 0,0,1
 163 140 163 140 179.5 129.5 c 128,-1,2
 196 119 196 119 204 104 c 128,-1,3
 212 89 212 89 213 72 c 128,-1,4
 214 55 214 55 209 42 c 0,5,6
 202 22 202 22 183 10 c 0,7,8
 167 0 167 0 144 -0 c 0,9,10
 140 0 140 0 136 0 c 0,11,12
 104 0 104 0 78 12 c 128,-1,13
 52 24 52 24 51 48 c 0,14,15
 50 62 50 62 52.5 78 c 128,-1,16
 55 94 55 94 64 108 c 128,-1,17
 73 122 73 122 90 131 c 128,-1,18
 107 140 107 140 136 140 c 0,0,1
143 374 m 0,19,20
 170 374 170 374 186.5 363.5 c 128,-1,21
 203 353 203 353 211 338 c 128,-1,22
 219 323 219 323 220 306 c 128,-1,23
 221 289 221 289 216 276 c 0,24,25
 209 256 209 256 190 244 c 0,26,27
 174 234 174 234 151 234 c 0,28,29
 147 234 147 234 143 234 c 0,30,31
 111 234 111 234 85 246 c 128,-1,32
 59 258 59 258 58 282 c 0,33,34
 57 296 57 296 59.5 312 c 128,-1,35
 62 328 62 328 71 342 c 128,-1,36
 80 356 80 356 97 365 c 128,-1,37
 114 374 114 374 143 374 c 0,19,20
EndSplineSet
Validated: 1
EndChar

StartChar: semicolon
Encoding: 59 59 74
Width: 315
Flags: W
HStem: 263 140<113.612 234.49>
VStem: 92 162<277.769 381.55>
LayerCount: 2
Fore
SplineSet
156 -40 m 1,0,1
 122 -34 122 -34 86 6 c 0,2,3
 68 27 68 27 68 56 c 0,4,5
 68 86 68 86 84 120 c 0,6,7
 104 162 104 162 146 162 c 0,8,9
 147 162 147 162 148 162 c 0,10,11
 178 162 178 162 220 141 c 1,12,13
 258 98 258 98 258 47 c 0,14,15
 258 37 258 37 256 27 c 0,16,17
 248 -36 248 -36 238 -67 c 0,18,19
 209 -196 209 -196 86 -225 c 1,20,21
 155 -103 155 -103 156 -40 c 1,0,1
177 403 m 0,22,23
 204 403 204 403 220.5 392.5 c 128,-1,24
 237 382 237 382 245 367 c 128,-1,25
 253 352 253 352 254 335 c 0,26,27
 255 320 255 320 250 305 c 0,28,29
 243 283 243 283 224 272 c 0,30,31
 209 263 209 263 189 263 c 0,32,33
 187 263 187 263 185 263 c 0,34,35
 181 263 181 263 177 263 c 0,36,37
 145 263 145 263 119 275 c 128,-1,38
 93 287 93 287 92 311 c 0,39,40
 91 325 91 325 93.5 341 c 128,-1,41
 96 357 96 357 105 371 c 128,-1,42
 114 385 114 385 131 394 c 128,-1,43
 148 403 148 403 177 403 c 0,22,23
EndSplineSet
Validated: 1
EndChar

StartChar: comma
Encoding: 44 44 75
Width: 315
Flags: W
LayerCount: 2
Fore
SplineSet
156 -40 m 1,0,1
 122 -34 122 -34 86 6 c 0,2,3
 68 27 68 27 68 56 c 0,4,5
 68 86 68 86 84 120 c 0,6,7
 104 162 104 162 146 162 c 0,8,9
 147 162 147 162 148 162 c 0,10,11
 178 162 178 162 220 141 c 1,12,13
 258 98 258 98 258 47 c 0,14,15
 258 37 258 37 256 27 c 0,16,17
 248 -36 248 -36 238 -67 c 0,18,19
 209 -196 209 -196 86 -225 c 1,20,21
 155 -103 155 -103 156 -40 c 1,0,1
EndSplineSet
Validated: 1
EndChar

StartChar: quotedbl
Encoding: 34 34 76
Width: 495
Flags: W
HStem: 512 230
VStem: 53 179<639.501 713.57> 265 178<635.501 710.906>
LayerCount: 2
Fore
SplineSet
135 614 m 1,0,1
 120 619 120 619 101 626 c 0,2,3
 82 632 82 632 69 644 c 0,4,5
 53 658 53 658 53 678 c 0,6,7
 53 694 53 694 72 718 c 0,8,9
 80 727 80 727 95 733.5 c 128,-1,10
 110 740 110 740 127 742 c 0,11,12
 135 743 135 743 142 743 c 0,13,14
 152 744 152 744 162 742 c 0,15,16
 180 740 180 740 192 730 c 0,17,18
 207 720 207 720 217 705 c 0,19,20
 226 690 226 690 230 674 c 0,21,22
 232 667 232 667 232 659 c 0,23,24
 232 650 232 650 230 640 c 0,25,26
 226 624 226 624 213 612 c 0,27,28
 151 547 151 547 115 526 c 0,29,30
 98 516 98 516 87 516 c 0,31,32
 75 516 75 516 70 529 c 0,33,34
 64 542 64 542 64 551 c 0,35,36
 64 558 64 558 68 562 c 0,37,38
 76 572 76 572 88.5 577.5 c 128,-1,39
 101 583 101 583 115.5 590 c 128,-1,40
 130 597 130 597 135 614 c 1,0,1
346 610 m 1,41,42
 332 615 332 615 314 622 c 0,43,44
 295 628 295 628 281 640 c 0,45,46
 265 654 265 654 265 672 c 0,47,48
 265 689 265 689 285 714 c 0,49,50
 291 723 291 723 306.5 729.5 c 128,-1,51
 322 736 322 736 339 738 c 0,52,53
 347 739 347 739 354 739 c 0,54,-1
 373 738 l 0,55,56
 390 736 390 736 405 726 c 0,57,58
 419 716 419 716 428.5 701 c 128,-1,59
 438 686 438 686 442 670 c 0,60,61
 444 662 444 662 443 654 c 0,62,63
 443 644 443 644 441 636 c 0,64,65
 437 620 437 620 425 608 c 0,66,67
 362 543 362 543 326 522 c 0,68,69
 309 512 309 512 299 512 c 0,70,71
 287 512 287 512 283 525 c 0,72,73
 277 539 277 539 277 547 c 0,74,75
 277 554 277 554 280 558 c 0,76,77
 287 568 287 568 299.5 573.5 c 128,-1,78
 312 579 312 579 326.5 586 c 128,-1,79
 341 593 341 593 346 610 c 1,41,42
EndSplineSet
Validated: 1
EndChar

StartChar: quotedblbase
Encoding: 8222 8222 77
Width: 495
Flags: W
HStem: -101 230
VStem: 51 180<27.5007 101.143> 264 179<22.5066 96.3828>
LayerCount: 2
Fore
SplineSet
134 1 m 1,0,1
 119 6 119 6 100 13 c 128,-1,2
 81 20 81 20 67 32 c 0,3,4
 51 45 51 45 51 63 c 0,5,6
 51 80 51 80 72 105 c 0,7,8
 79 114 79 114 93.5 120.5 c 128,-1,9
 108 127 108 127 126 129 c 0,10,11
 134 130 134 130 142 130 c 0,12,13
 152 130 152 130 162 128 c 0,14,15
 180 126 180 126 192 117 c 0,16,17
 206 107 206 107 216 92 c 0,18,19
 226 76 226 76 230 60 c 0,20,21
 232 53 232 53 231 46 c 0,22,23
 230 38 230 38 228 28 c 0,24,25
 224 12 224 12 212 -1 c 0,26,27
 148 -66 148 -66 113 -87 c 0,28,29
 97 -97 97 -97 86 -97 c 0,30,31
 74 -97 74 -97 69 -84 c 128,-1,32
 64 -71 64 -71 64 -62 c 0,33,34
 64 -56 64 -56 67 -52 c 0,35,36
 74 -42 74 -42 87 -36 c 128,-1,37
 100 -30 100 -30 114.5 -23 c 128,-1,38
 129 -16 129 -16 134 1 c 1,0,1
345 -3 m 1,39,40
 331 2 331 2 311.5 9 c 128,-1,41
 292 16 292 16 279 28 c 0,42,43
 264 41 264 41 264 59 c 0,44,45
 264 76 264 76 283 101 c 0,46,47
 291 110 291 110 305.5 116.5 c 128,-1,48
 320 123 320 123 338 125 c 0,49,50
 346 126 346 126 353 126 c 0,51,52
 363 126 363 126 372 124 c 0,53,54
 387 122 387 122 402 113 c 0,55,56
 418 103 418 103 428 88 c 0,57,58
 437 72 437 72 441 56 c 0,59,60
 443 48 443 48 443 41 c 0,61,62
 442 32 442 32 440 24 c 0,63,64
 436 8 436 8 424 -5 c 0,65,66
 360 -70 360 -70 325 -91 c 0,67,68
 309 -101 309 -101 298 -101 c 0,69,70
 286 -101 286 -101 280 -88 c 0,71,72
 275 -76 275 -76 275 -67 c 0,73,74
 275 -60 275 -60 279 -56 c 0,75,76
 287 -46 287 -46 299.5 -40 c 128,-1,77
 312 -34 312 -34 326.5 -27 c 128,-1,78
 341 -20 341 -20 345 -3 c 1,39,40
EndSplineSet
Validated: 1
EndChar

StartChar: Adieresis
Encoding: 196 196 78
Width: 542
Flags: W
HStem: 0 1<270 270.964> 1 39<76.9703 119.905> 150 51<222 342> 539.5 49.5<205 227.999> 643 91<147.47 241.436 347.47 443.436>
VStem: 128.96 127.04<656.736 717.589> 228 109<486.626 539.999> 331 127<657.082 717.593>
LayerCount: 2
Fore
SplineSet
153 205 m 2,0,1
 158 225 l 0,2,3
 163 245 163 245 171 276.5 c 128,-1,4
 179 308 179 308 188 346.5 c 128,-1,5
 197 385 197 385 205.5 422 c 128,-1,6
 214 459 214 459 220 489.5 c 128,-1,7
 226 520 226 520 228 535 c 0,8,9
 228 540 228 540 225.5 540 c 128,-1,10
 223 540 223 540 217.5 539.5 c 128,-1,11
 212 539 212 539 204.5 541 c 128,-1,12
 197 543 197 543 187 553 c 1,13,14
 195 560 195 560 199 566 c 128,-1,15
 203 572 203 572 205 577 c 256,16,17
 207 582 207 582 205 587 c 1,18,19
 214 590 214 590 222 589 c 128,-1,20
 230 588 230 588 238 585 c 128,-1,21
 246 582 246 582 255 579 c 128,-1,22
 264 576 264 576 275 575 c 0,23,24
 280 575 280 575 285 575 c 0,25,26
 294 575 294 575 306 576 c 0,27,28
 324 578 324 578 338 580 c 0,29,30
 355 583 355 583 372 587 c 1,31,32
 390 582 390 582 390 565 c 0,33,34
 390 550 390 550 381 534 c 1,35,36
 375 538 375 538 368 540 c 0,37,38
 362 542 362 542 354 542 c 128,-1,39
 346 542 346 542 337 537 c 1,40,41
 337 528 337 528 341 502.5 c 128,-1,42
 345 477 345 477 352.5 441.5 c 128,-1,43
 360 406 360 406 369.5 364 c 128,-1,44
 379 322 379 322 389 280 c 0,45,46
 412 181 412 181 442 60 c 0,47,48
 442 52 442 52 449.5 48.5 c 128,-1,49
 457 45 457 45 466 42.5 c 128,-1,50
 475 40 475 40 482.5 37 c 128,-1,51
 490 34 490 34 491 27 c 0,52,53
 492 19 492 19 486.5 12 c 128,-1,54
 481 5 481 5 481 3 c 0,55,56
 481 2 481 2 461.5 1.5 c 128,-1,57
 442 1 442 1 414.5 1 c 128,-1,58
 387 1 387 1 357.5 1 c 128,-1,59
 328 1 328 1 308 1 c 0,60,61
 299 1 299 1 305 8 c 128,-1,62
 311 15 311 15 323 24 c 128,-1,63
 335 33 335 33 347.5 42.5 c 128,-1,64
 360 52 360 52 363 58 c 0,65,66
 370 71 370 71 369.5 87 c 128,-1,67
 369 103 369 103 365 117 c 0,68,69
 361 134 361 134 353 150 c 1,70,-1
 214 150 l 1,71,72
 203 125 203 125 197 105 c 0,73,74
 192 88 192 88 189 71.5 c 128,-1,75
 186 55 186 55 192 50 c 0,76,77
 201 42 201 42 214 33.5 c 128,-1,78
 227 25 227 25 239.5 17.5 c 128,-1,79
 252 10 252 10 261 5.5 c 128,-1,80
 270 1 270 1 271 1 c 1,81,82
 270 0 270 0 251.5 0 c 128,-1,83
 233 0 233 0 206 0 c 128,-1,84
 179 0 179 0 148 0.5 c 128,-1,85
 117 1 117 1 92 1 c 0,86,87
 65 1 65 1 57 9.5 c 128,-1,88
 49 18 49 18 51 20 c 0,89,90
 52 21 52 21 51.5 26.5 c 128,-1,91
 51 32 51 32 52 38 c 128,-1,92
 53 44 53 44 58.5 49 c 128,-1,93
 64 54 64 54 77 56 c 1,94,95
 76 53 76 53 81.5 49 c 128,-1,96
 87 45 87 45 94.5 42.5 c 128,-1,97
 102 40 102 40 109.5 40 c 128,-1,98
 117 40 117 40 120 44 c 0,99,100
 127 53 127 53 132 69.5 c 128,-1,101
 137 86 137 86 140 102.5 c 128,-1,102
 143 119 143 119 143.5 132 c 128,-1,103
 144 145 144 145 142 148 c 0,104,105
 129 152 129 152 118.5 151 c 128,-1,106
 108 150 108 150 100 146.5 c 128,-1,107
 92 143 92 143 87.5 140 c 128,-1,108
 83 137 83 137 83 138 c 0,109,110
 73 153 73 153 82.5 165.5 c 128,-1,111
 92 178 92 178 108 187 c 128,-1,112
 124 196 124 196 138.5 201 c 128,-1,113
 153 206 153 206 153 205 c 2,0,1
222 201 m 1,114,-1
 342 202 l 1,115,116
 325 283 325 283 313 345 c 0,117,118
 308 372 308 372 303 397.5 c 128,-1,119
 298 423 298 423 294 442.5 c 128,-1,120
 290 462 290 462 288 474 c 0,121,-1
 285 486 l 257,122,-1
 282 474 l 0,123,124
 279 461 279 461 274.5 441 c 128,-1,125
 270 421 270 421 264.5 395.5 c 128,-1,126
 259 370 259 370 253 343 c 0,127,128
 239 281 239 281 222 201 c 1,114,-1
347 652 m 1,129,130
 331 670 331 670 331 689 c 0,131,132
 332 709 332 709 354 722 c 0,133,134
 376 734 376 734 401 734 c 128,-1,135
 426 734 426 734 444 718 c 0,136,137
 458 705 458 705 458 688 c 0,138,139
 458 684 458 684 457 680 c 0,140,141
 454 660 454 660 414 648 c 0,142,143
 397 643 397 643 382 643 c 0,144,145
 362 643 362 643 347 652 c 1,129,130
147 652 m 1,146,147
 128.96 670.04 128.96 670.04 128.96 690.5888 c 0,148,149
 128.96 709.52 128.96 709.52 152 722 c 0,150,151
 174 734 174 734 199 734 c 128,-1,152
 224 734 224 734 242 718 c 0,153,154
 256.0625 704.875 256.0625 704.875 256.0625 689.11328125 c 2,155,-1
 256 680 l 2,156,157
 252 660 252 660 212 648 c 0,158,159
 195 643 195 643 181 643 c 0,160,161
 162 643 162 643 147 652 c 1,146,147
EndSplineSet
Validated: 524289
EndChar

StartChar: Odieresis
Encoding: 214 214 79
Width: 519
Flags: W
HStem: 6 37<211.52 324.623> 533 51<194.195 329.24> 643 91<117.501 212.467 318.501 413.436>
VStem: 51 60<172.382 423.513> 102 125<656.516 717.562> 303 126<657.082 717.562> 408 60<155.977 436.25>
LayerCount: 2
Fore
SplineSet
117 652 m 1,0,1
 102 670 102 670 102 689 c 0,2,3
 102 709 102 709 125 722 c 0,4,5
 147 734 147 734 171.5 734 c 128,-1,6
 196 734 196 734 213 718 c 0,7,8
 227 704 227 704 227 687 c 0,9,10
 227 684 227 684 227 680 c 0,11,12
 224 660 224 660 184 648 c 0,13,14
 167 643 167 643 153 643 c 0,15,16
 133 643 133 643 117 652 c 1,0,1
318 652 m 1,17,18
 303 670 303 670 303 689 c 0,19,20
 304 709 304 709 326 722 c 0,21,22
 348 734 348 734 372 734 c 128,-1,23
 396 734 396 734 414 718 c 0,24,25
 429 704 429 704 429 687 c 0,26,27
 428 684 428 684 428 680 c 0,28,29
 424 660 424 660 386 648 c 0,30,31
 369 643 369 643 354 643 c 0,32,33
 334 643 334 643 318 652 c 1,17,18
270 584 m 0,34,35
 338 584 338 584 380 550.5 c 128,-1,36
 422 517 422 517 444 464 c 0,37,38
 466 410 466 410 468 344 c 0,39,40
 468 344 468 344 468 320 c 0,41,42
 468 266 468 266 459 212 c 0,43,44
 442 109 442 109 393 56 c 0,45,46
 347 6 347 6 278 6 c 0,47,48
 274 6 274 6 270 6 c 0,49,50
 229 7 229 7 190 22.5 c 128,-1,51
 151 38 151 38 121 68 c 128,-1,52
 91 98 91 98 72 142 c 128,-1,53
 53 186 53 186 52 244 c 0,54,55
 51 265 51 265 51 286 c 0,56,57
 52 332 52 332 56 374 c 0,58,59
 62 436 62 436 85.5 482.5 c 128,-1,60
 109 529 109 529 153.5 556.5 c 128,-1,61
 198 584 198 584 270 584 c 0,34,35
267 533 m 0,62,63
 262 533 262 533 257 533 c 0,64,65
 226 533 226 533 200 516 c 0,66,67
 170 496 170 496 150 460 c 0,68,69
 130 425 130 425 120 379 c 0,70,71
 110.909090909 337.181818182 110.909090909 337.181818182 110.909090909 300.32231405 c 0,72,73
 110.909090909 296.636363636 110.909090909 296.636363636 111 293 c 0,74,75
 111 289 111 289 111 285 c 0,76,77
 113 238 113 238 125.5 194.5 c 128,-1,78
 138 151 138 151 159 117.5 c 128,-1,79
 180 84 180 84 208 63.5 c 128,-1,80
 236 43 236 43 269 43 c 256,81,82
 302 43 302 43 326.5 62 c 128,-1,83
 351 81 351 81 368.5 112.5 c 128,-1,84
 386 144 386 144 395.5 186 c 128,-1,85
 405 228 405 228 407 273 c 0,86,87
 408 286 408 286 408 298 c 0,88,89
 408 334 408 334 404 366 c 0,90,91
 398 410 398 410 382.5 445.5 c 128,-1,92
 367 481 367 481 338.5 504.5 c 128,-1,93
 310 528 310 528 267 533 c 0,62,63
EndSplineSet
Validated: 524289
EndChar

StartChar: Aring
Encoding: 197 197 80
Width: 542
Flags: W
HStem: 0 1<270 270.964> 1 39<76.9703 119.905> 150 51<222 342> 539.5 49.5<205 227.999> 621 18<267.105 317.008> 717 23<260.314 321.607>
VStem: 217 34<647.229 705.624> 228 109<486.626 539.999> 331 31<646.883 703.14>
LayerCount: 2
Fore
SplineSet
153 205 m 2,0,1
 158 225 l 0,2,3
 163 245 163 245 171 276.5 c 128,-1,4
 179 308 179 308 188 346.5 c 128,-1,5
 197 385 197 385 205.5 422 c 128,-1,6
 214 459 214 459 220 489.5 c 128,-1,7
 226 520 226 520 228 535 c 0,8,9
 228 540 228 540 225.5 540 c 128,-1,10
 223 540 223 540 217.5 539.5 c 128,-1,11
 212 539 212 539 204.5 541 c 128,-1,12
 197 543 197 543 187 553 c 1,13,14
 195 560 195 560 199 566 c 128,-1,15
 203 572 203 572 205 577 c 256,16,17
 207 582 207 582 205 587 c 1,18,19
 214 590 214 590 222 589 c 128,-1,20
 230 588 230 588 238 585 c 128,-1,21
 246 582 246 582 255 579 c 128,-1,22
 264 576 264 576 275 575 c 0,23,24
 280 575 280 575 285 575 c 0,25,26
 294 575 294 575 306 576 c 0,27,28
 324 578 324 578 338 580 c 0,29,30
 355 583 355 583 372 587 c 1,31,32
 390 582 390 582 390 565 c 0,33,34
 390 550 390 550 381 534 c 1,35,36
 375 538 375 538 368 540 c 0,37,38
 362 542 362 542 354 542 c 128,-1,39
 346 542 346 542 337 537 c 1,40,41
 337 528 337 528 341 502.5 c 128,-1,42
 345 477 345 477 352.5 441.5 c 128,-1,43
 360 406 360 406 369.5 364 c 128,-1,44
 379 322 379 322 389 280 c 0,45,46
 412 181 412 181 442 60 c 0,47,48
 442 52 442 52 449.5 48.5 c 128,-1,49
 457 45 457 45 466 42.5 c 128,-1,50
 475 40 475 40 482.5 37 c 128,-1,51
 490 34 490 34 491 27 c 0,52,53
 492 19 492 19 486.5 12 c 128,-1,54
 481 5 481 5 481 3 c 0,55,56
 481 2 481 2 461.5 1.5 c 128,-1,57
 442 1 442 1 414.5 1 c 128,-1,58
 387 1 387 1 357.5 1 c 128,-1,59
 328 1 328 1 308 1 c 0,60,61
 299 1 299 1 305 8 c 128,-1,62
 311 15 311 15 323 24 c 128,-1,63
 335 33 335 33 347.5 42.5 c 128,-1,64
 360 52 360 52 363 58 c 0,65,66
 370 71 370 71 369.5 87 c 128,-1,67
 369 103 369 103 365 117 c 0,68,69
 361 134 361 134 353 150 c 1,70,-1
 214 150 l 1,71,72
 203 125 203 125 197 105 c 0,73,74
 192 88 192 88 189 71.5 c 128,-1,75
 186 55 186 55 192 50 c 0,76,77
 201 42 201 42 214 33.5 c 128,-1,78
 227 25 227 25 239.5 17.5 c 128,-1,79
 252 10 252 10 261 5.5 c 128,-1,80
 270 1 270 1 271 1 c 1,81,82
 270 0 270 0 251.5 0 c 128,-1,83
 233 0 233 0 206 0 c 128,-1,84
 179 0 179 0 148 0.5 c 128,-1,85
 117 1 117 1 92 1 c 0,86,87
 65 1 65 1 57 9.5 c 128,-1,88
 49 18 49 18 51 20 c 0,89,90
 52 21 52 21 51.5 26.5 c 128,-1,91
 51 32 51 32 52 38 c 128,-1,92
 53 44 53 44 58.5 49 c 128,-1,93
 64 54 64 54 77 56 c 1,94,95
 76 53 76 53 81.5 49 c 128,-1,96
 87 45 87 45 94.5 42.5 c 128,-1,97
 102 40 102 40 109.5 40 c 128,-1,98
 117 40 117 40 120 44 c 0,99,100
 127 53 127 53 132 69.5 c 128,-1,101
 137 86 137 86 140 102.5 c 128,-1,102
 143 119 143 119 143.5 132 c 128,-1,103
 144 145 144 145 142 148 c 0,104,105
 129 152 129 152 118.5 151 c 128,-1,106
 108 150 108 150 100 146.5 c 128,-1,107
 92 143 92 143 87.5 140 c 128,-1,108
 83 137 83 137 83 138 c 0,109,110
 73 153 73 153 82.5 165.5 c 128,-1,111
 92 178 92 178 108 187 c 128,-1,112
 124 196 124 196 138.5 201 c 128,-1,113
 153 206 153 206 153 205 c 2,0,1
222 201 m 1,114,-1
 342 202 l 1,115,116
 325 283 325 283 313 345 c 0,117,118
 308 372 308 372 303 397.5 c 128,-1,119
 298 423 298 423 294 442.5 c 128,-1,120
 290 462 290 462 288 474 c 0,121,-1
 285 486 l 257,122,-1
 282 474 l 0,123,124
 279 461 279 461 274.5 441 c 128,-1,125
 270 421 270 421 264.5 395.5 c 128,-1,126
 259 370 259 370 253 343 c 0,127,128
 239 281 239 281 222 201 c 1,114,-1
294 740 m 0,129,130
 317 740 317 740 331.5 733 c 128,-1,131
 346 726 346 726 353.5 715 c 128,-1,132
 361 704 361 704 362 690.5 c 128,-1,133
 363 677 363 677 359 663 c 0,134,135
 352 642 352 642 335 630 c 0,136,137
 322.272727273 620.909090909 322.272727273 620.909090909 304.58677686 620.909090909 c 0,138,139
 302.818181818 620.909090909 302.818181818 620.909090909 301 621 c 0,140,141
 298 621 298 621 294 621 c 0,142,143
 265 621 265 621 241 633.5 c 128,-1,144
 217 646 217 646 217 670 c 0,145,146
 216 684 216 684 218.5 697 c 128,-1,147
 221 710 221 710 229.5 719.5 c 128,-1,148
 238 729 238 729 253.5 734.5 c 128,-1,149
 269 740 269 740 294 740 c 0,129,130
292 717 m 0,150,151
 289 717 289 717 287 717 c 0,152,153
 270 716 270 716 260 706 c 0,154,155
 248 694 248 694 251 678 c 0,156,157
 251 663 251 663 263.5 651 c 128,-1,158
 276 639 276 639 293 639 c 256,159,160
 310 639 310 639 319.5 650.5 c 128,-1,161
 329 662 329 662 331 676 c 0,162,163
 331 692 331 692 323.5 703.5 c 128,-1,164
 316 715 316 715 292 717 c 0,150,151
EndSplineSet
Validated: 524289
EndChar

StartChar: quotesinglbase
Encoding: 8218 8218 81
Width: 217
Flags: W
HStem: -63 141.042<82.375 83>
VStem: 60 106<9.00342 55.6252>
LayerCount: 2
Fore
SplineSet
104 -2 m 1,0,1
 94 2 94 2 72 14 c 0,2,3
 60 21 60 21 60 33 c 0,4,5
 60 44 60 44 68 56 c 0,6,7
 82.375 78.0416666667 82.375 78.0416666667 118.791666667 78.0416666667 c 0,8,9
 120.375 78.0416666667 120.375 78.0416666667 122 78 c 0,10,11
 131 78 131 78 142 77 c 1,12,13
 166 51 166 51 166 29 c 0,14,15
 166 6 166 6 157 -3 c 0,16,17
 83 -63 83 -63 65 -63 c 0,18,19
 61 -63 61 -63 59 -60 c 1,20,21
 101 -13 101 -13 104 -2 c 1,0,1
EndSplineSet
Validated: 524289
EndChar

